<svg width="8" height="15" viewBox="0 0 8 15" fill="none" xmlns="http://www.w3.org/2000/svg">
  <path d="M3.7391 14.7855C3.93192 14.9783 4.24453 14.9783 4.43735 14.7855L7.57945 11.6434C7.77227 11.4506 7.77227 11.138 7.57945 10.9452C7.38664 10.7523 7.07402 10.7523 6.88121 10.9452L4.08823 13.7381L1.29525 10.9452C1.10243 10.7523 0.789818 10.7523 0.597003 10.9452C0.404188 11.138 0.404188 11.4506 0.597003 11.6434L3.7391 14.7855ZM3.59449 0.447266L3.59449 10.3032L4.58196 10.3032L4.58196 0.447266L3.59449 0.447266ZM3.59449 10.3032L3.59449 14.4364L4.58196 14.4364L4.58196 10.3032L3.59449 10.3032Z" fill="#0556E2"/>
</svg>
