<svg width="274" height="244" viewBox="0 0 274 244" fill="none" xmlns="http://www.w3.org/2000/svg">
  <path d="M-99 0.67334C-47.2318 86.2742 124.842 115.831 114.421 74.5813C109.29 54.2724 63.063 77.1572 46.1135 91.054C-2.0691 132.896 124 217 224 180.5" stroke="#0461FC" stroke-miterlimit="10" stroke-dasharray="4 4"/>
  <path d="M-68.4006 12.3308C-16.6324 97.9317 146.921 122.749 136.5 81.5C129.552 54 83.3218 87.1828 66.3722 101.08C32.9205 140.443 99.5 198.5 200.5 184.5" stroke="#F2F5F9" stroke-miterlimit="10" stroke-dasharray="4 4"/>
  <path d="M204.295 201.443L206.008 210.792L261.05 174.933L197.146 183.642L205.459 195.623L204.295 201.443Z" fill="#BCD8EF"/>
  <path d="M261.05 174.933L202.031 171.773L197.146 183.642L246.893 176.625L192.53 194.168L182.606 214.307L261.05 174.933Z" fill="#0461FC"/>
</svg>
