<svg width="75" height="134" viewBox="0 0 75 134" fill="none" xmlns="http://www.w3.org/2000/svg">
  <path d="M12.7239 101.85H52.2102L47.679 134H16.6078L12.7239 101.85Z" fill="#C6E2FA"/>
  <path d="M40.127 105.302H46.1686L42.5005 133.784H36.8904L40.127 105.302Z" fill="white"/>
  <path d="M25.5468 23.9645L22.5676 24.6054C22.3964 25.0495 24.7043 27.567 26.4712 28.6532C30.8884 31.3687 35.8548 29.3695 38.0769 26.3895C39.8547 24.0056 40.1687 20.3732 40.1036 18.855L38.3951 20.5026L37.9768 20.0689L40.1513 17.972C37.5667 11.313 30.6036 8.48574 27.4452 7.90446L26.5573 10.7138L25.8284 10.5796L26.8557 7.91488C24.5997 6.07277 19.4741 6.47708 17.1933 6.9095C21.135 10.2509 22.2751 19.1213 22.3524 23.1388L25.3156 22.7924L25.5468 23.9645Z" fill="white"/>
  <path d="M56.3098 41.8655C50.4408 47.7345 42.6443 45.4617 39.4796 43.5917C34.1285 39.2762 33.7976 31.2927 34.3011 27.8403C35.682 17.6559 50.8436 10.5067 58.2518 8.20511V12.3048H59.1149V8.20511C64.466 5.96108 69.9754 7.2701 72.0612 8.20511C70.1192 8.85242 67.53 14.6783 66.2353 18.7779C65.1996 22.0577 62.783 30.2138 61.7041 33.8819L57.3887 32.8031V33.8819L60.841 34.745C59.9779 36.8164 57.4606 40.3551 56.3098 41.8655Z" fill="#C6E2FA"/>
  <path d="M18.9894 61.4778C24.7014 66.4155 30.5109 63.0638 32.7016 60.7708C36.2022 55.7582 35.0556 47.8529 34.0447 44.5268C31.1457 34.6999 17.8048 29.8306 11.4968 28.6243L12.2209 32.6595L11.5334 32.7829L10.8092 28.7477C6.15003 27.3039 1.99235 29.38 0.49592 30.5985C2.15726 30.958 5.24897 36.3221 7.00444 40.1722C8.40883 43.2523 11.7746 50.9347 13.282 54.3909L16.5292 52.7121L16.7198 53.774L14.122 55.1171C15.1755 57.0325 17.8059 60.1557 18.9894 61.4778Z" fill="#C6E2FA"/>
  <path d="M48.3263 109.834H13.8028" stroke="#FFFEFF" stroke-width="0.822889"/>
  <path d="M44.2267 102.929V75.9575C43.939 74.5909 43.9246 69.8296 46.1686 68.6212M39.0482 102.929L39.6955 41.6498M32.7908 104.224V53.5172M27.6123 105.087V59.1273M20.7076 105.087V59.1273M27.6123 42.7286C29.8419 39.7797 34.6896 33.7957 36.2431 33.4504" stroke="#CEE0EF" stroke-width="0.822889"/>
  <path d="M54.7995 69.4845L56.5257 72.0738C56.3099 72.5053 52.6418 72.5916 50.484 72.0738C45.0897 70.7791 42.932 65.8164 43.5793 62.1483C44.0972 59.2138 46.6721 56.4663 47.8948 55.4593V57.8328H48.5421V54.812C55.6194 52.0501 62.9988 55.0997 65.8038 56.9697L64.2934 59.559L64.9407 59.9905L66.2354 57.4013C69.3425 57.7465 72.8524 61.7167 74.2189 63.6587C68.6952 63.1408 60.9849 68.4776 57.8203 71.2107L55.8783 68.8372L54.7995 69.4845Z" fill="white"/>
</svg>
