<svg width="1183" height="936" viewBox="0 0 1183 936" fill="none" xmlns="http://www.w3.org/2000/svg">
  <path d="M-291.216 1.31763C-149.851 334.255 450.858 528.329 434.723 375.345C426.779 300.025 249.585 358.214 181.791 399.256C-12.1291 524.293 590 957.999 1044 841.999" stroke="#0461FC" stroke-width="2" stroke-miterlimit="10" stroke-dasharray="10 10"/>
  <path d="M-261.121 12.0552C-119.756 344.992 430.749 539.505 414.614 386.521C406.67 311.201 243.507 357.805 175.713 398.847C35.7881 522.571 451 867.999 883 867.999" stroke="#F2F5F9" stroke-width="2" stroke-miterlimit="10" stroke-dasharray="10 10"/>
  <path d="M1072.55 865.226L1077.75 879.797L1156.79 807.777L1056.4 838.495L1072.89 855.57L1072.55 865.226Z" fill="#BCD8EF"/>
  <path d="M1156.79 807.777L1061.14 818.147L1056.4 838.495L1134.49 814.201L1051.74 856.616L1041.07 891.57L1156.79 807.777Z" fill="#0461FC"/>
</svg>
