<svg width="202" height="367" viewBox="0 0 202 367" fill="none" xmlns="http://www.w3.org/2000/svg">
  <path d="M34.0033 278.242H141.875L129.496 366.072H44.6136L34.0033 278.242Z" fill="#C6E2FA"/>
  <path d="M108.865 287.673H125.37L115.349 365.482H100.023L108.865 287.673Z" fill="white"/>
  <path d="M69.0337 65.4682L60.8951 67.2188C60.4273 68.4321 66.7322 75.3098 71.5591 78.2771C83.6263 85.6955 97.1939 80.2338 103.265 72.093C108.121 65.5803 108.979 55.6572 108.801 51.5097L104.134 56.0106L102.991 54.8258L108.931 49.0973C101.871 30.9058 82.8484 23.182 74.22 21.594L71.7943 29.2687L69.8031 28.9023L72.6096 21.6225C66.4464 16.5901 52.4439 17.6946 46.2131 18.8759C56.9813 28.0043 60.0959 52.2371 60.3072 63.2125L68.4023 62.266L69.0337 65.4682Z" fill="white"/>
  <path d="M153.075 114.371C137.041 130.405 115.742 124.196 107.097 119.087C92.478 107.298 91.5741 85.4879 92.9496 76.0565C96.7221 48.2339 138.142 28.703 158.38 22.4154V33.6152H160.738V22.4154C175.356 16.285 190.407 19.8611 196.105 22.4154C190.8 24.1838 183.727 40.0993 180.19 51.2991C177.361 60.2589 170.759 82.5405 167.811 92.5614L156.022 89.6141V92.5614L165.453 94.9192C163.096 100.578 156.218 110.245 153.075 114.371Z" fill="#C6E2FA"/>
  <path d="M51.1198 167.949C66.7244 181.438 82.5951 172.282 88.5799 166.018C98.1431 152.324 95.0107 130.728 92.2491 121.641C84.3293 94.7955 47.8838 81.493 30.6509 78.1975L32.6292 89.2212L30.7509 89.5583L28.7726 78.5346C16.0442 74.5904 4.68597 80.262 0.597894 83.5907C5.13646 84.5729 13.5826 99.2269 18.3784 109.745C22.215 118.159 31.41 139.147 35.5279 148.589L44.3989 144.002L44.9195 146.903L37.8227 150.573C40.7006 155.805 47.8866 164.337 51.1198 167.949Z" fill="#C6E2FA"/>
  <path d="M131.265 300.052H36.9508" stroke="#FFFEFF"/>
  <path d="M120.065 281.189V207.506C119.279 203.773 119.24 190.766 125.37 187.465M105.918 281.189L107.686 113.782M88.8235 284.726V146.202M74.6764 287.084V161.528M55.8136 287.084V161.528M74.6764 116.729C80.7675 108.673 94.0107 92.3255 98.2548 91.3823" stroke="#CEE0EF"/>
  <path d="M148.949 189.823L153.664 196.896C153.075 198.075 143.054 198.311 137.159 196.896C122.423 193.359 116.528 179.802 118.297 169.781C119.711 161.764 126.745 154.259 130.086 151.508V157.992H131.854V149.739C151.189 142.194 171.348 150.525 179.011 155.634L174.885 162.707L176.653 163.886L180.19 156.813C188.678 157.756 198.267 168.602 202 173.907C186.91 172.493 165.846 187.072 157.201 194.538L151.896 188.054L148.949 189.823Z" fill="white"/>
</svg>
