<svg width="179" height="551" viewBox="0 0 179 551" fill="none" xmlns="http://www.w3.org/2000/svg">
  <path d="M177.437 45.3491C177.437 45.3491 110.192 72.1023 96.3096 107.098C82.4269 142.094 106.432 173.186 106.432 173.186C106.432 173.186 110.192 144.408 136.656 133.852C163.265 123.295 182.643 74.4161 177.437 45.3491Z" fill="#C5E1F9"/>
  <path d="M9.97652 239.852C9.97652 239.852 56.2524 261.833 62.1814 304.783C68.1105 347.588 62.1814 361.326 62.1814 361.326C62.1814 361.326 -28.0564 316.496 9.97652 239.852Z" fill="#EAF0F9"/>
  <path d="M140.561 210.64C140.561 210.64 109.035 230.163 101.66 272.534C94.4295 314.905 97.0325 328.933 97.0325 328.933C97.0325 328.933 158.637 289.02 140.561 210.64Z" fill="#EAF0F9"/>
  <path d="M31.8135 188.37C31.8135 188.37 26.4628 221.342 50.3238 248.095C74.1847 274.848 85.0306 279.765 85.0306 279.765C85.0306 279.765 94.2858 214.4 31.8135 188.37Z" fill="#C5E1F9"/>
  <path d="M23.8602 0.519531C23.8602 0.519531 20.9679 26.405 40.9243 56.1951C59.1454 83.3821 76.9327 91.9142 76.9327 91.9142C76.9327 91.9142 96.0215 24.2359 23.8602 0.519531Z" fill="#C5E1F9"/>
  <path d="M2.60231 75.4282C2.60231 75.4282 49.1673 84.3942 64.2069 121.415C79.2466 158.435 63.05 191.841 63.05 191.841C49.4565 159.448 -13.4496 152.796 2.60231 75.4282Z" fill="#EAF0F9"/>
  <path d="M28.4874 285.694C28.4874 285.694 58.422 329.512 62.0373 361.326C64.4957 383.018 64.6404 423.799 64.6404 423.799" stroke="#C5E1F9" stroke-miterlimit="10"/>
  <path d="M58.2769 229.729C58.2769 229.729 90.8146 269.209 89.2238 324.884C87.6331 380.56 89.2238 423.799 89.2238 423.799" stroke="#C5E1F9" stroke-miterlimit="10"/>
  <path d="M37.5977 122.716C37.5977 122.716 65.7969 190.25 71.003 213.099C76.3536 235.803 74.9075 423.798 74.9075 423.798" stroke="#C5E1F9" stroke-miterlimit="10"/>
  <path d="M50.3232 36.0933C50.3232 36.0933 84.7408 83.8152 85.8977 140.503V424.5" stroke="#C5E1F9" stroke-miterlimit="10"/>
  <path d="M130.872 549.9H33.1139L23.7141 423.799H141.717L130.872 549.9Z" fill="#C5E1F9"/>
  <path d="M43 425L52.6585 551H79L69.4878 425H43Z" fill="#EAF4FF"/>
  <path d="M141.717 87.4307C141.717 87.4307 107.733 138.768 106.287 178.247C104.552 231.319 106.287 423.075 106.287 423.075" stroke="#C5E1F9" stroke-miterlimit="10"/>
</svg>
