<svg width="71" height="87" viewBox="0 0 71 87" fill="none" xmlns="http://www.w3.org/2000/svg">
  <path d="M3.8147e-06 3.21533C3.8147e-06 3.21533 21.9292 4.40417 32.2316 18.0217C42.5339 31.6392 63.4499 68.1688 60.6383 78.8649C57.8301 89.561 32.2316 80.7225 32.2316 80.7225C32.2316 80.7225 26.5184 56.2872 17.2467 34.4121C11.537 20.9431 0.964874 8.44687 3.8147e-06 3.21533Z" fill="#EAF0F9"/>
  <path d="M11.0946 6.39115C11.1707 7.97513 10.2301 9.54562 9.00581 10.5217C7.85765 11.4369 6.40862 12.0043 4.89734 12.2239C2.50418 8.4142 0.705846 5.32053 0.332347 3.30762C0.332347 3.30762 4.82816 3.55079 10.7039 5.08073C10.9079 5.49953 11.0739 5.93521 11.0946 6.39115Z" fill="#2164FC"/>
  <path d="M41.161 44.115C37.7303 47.2864 32.4322 48.6339 27.836 48.9041C26.1345 49.0054 24.2913 48.948 22.531 48.6035C21.6871 46.2056 20.7949 43.7705 19.8577 41.3287C19.9787 41.3625 20.0998 41.3962 20.2208 41.4266C25.972 42.7978 32.5463 40.8559 37.0905 37.2961C38.9131 35.8675 40.6388 33.9525 41.1679 31.6694C42.399 33.679 43.644 35.7797 44.8821 37.9345C44.436 40.2682 42.9385 42.4703 41.161 44.115Z" fill="#FF2734"/>
  <path d="M45.2591 86.7783C51.2904 86.7783 52.7809 81.9284 50.4915 78.0107C47.1128 72.2287 40.0266 61.9648 32.3319 61.9648C21.6249 61.9648 32.2627 83.9852 36.1291 85.1639C37.9828 85.7246 41.78 86.7783 45.2591 86.7783Z" fill="#2164FC"/>
  <path d="M36.2536 51.5117C36.2536 51.5117 25.9063 75.8051 24.0319 78.5272C22.0607 81.3912 18.4052 80.2733 18.4052 80.2733" stroke="#0561FC" stroke-width="3.29156" stroke-miterlimit="10" stroke-linecap="round"/>
  <path d="M57.3806 81.5401C62.4851 80.7734 66.9947 77.0043 68.5544 72.1949C70.1176 67.3855 68.6582 61.769 64.937 58.27" stroke="#0561FC" stroke-width="3.29156" stroke-miterlimit="10" stroke-linecap="round"/>
  <path d="M30.2534 86.3759C29.5756 86.2779 28.8667 86.1496 28.3272 85.7375C27.7877 85.3255 27.4833 84.5318 27.843 83.961C28.0747 83.5895 28.5139 83.4038 28.9289 83.2484C33.2414 81.6374 37.9517 81.3301 42.572 81.4179C44.5744 81.455 47.0367 81.6171 48.6068 82.9985C51.0276 85.1296 48.1572 86.2036 46.0234 86.44C40.867 87.0074 35.3994 87.129 30.2534 86.3759Z" fill="#2164FC"/>
  <path d="M13.4425 5.85971C15.8322 6.61962 18.3464 7.5923 20.8157 8.83855C20.8779 8.86894 20.9402 8.90273 21.0024 8.93312C21.4935 8.50082 24.8204 5.47808 27.9537 0C29.3093 2.01966 27.4349 13.0636 27.4349 13.0636L27.4418 13.0704C28.8425 14.2052 30.1635 15.4649 31.3567 16.8733C32.5498 18.2816 27.4488 26.0462 21.3275 22.2028C15.2962 18.4134 12.8131 10.9561 13.4425 5.85971Z" fill="#2665FC"/>
  <path d="M18.7678 15.3172C17.8435 14.6183 17.4924 13.5496 17.9835 12.9302C18.4746 12.3107 19.6219 12.3751 20.5462 13.074C21.4705 13.7728 21.8216 14.8415 21.3305 15.461C20.8394 16.0804 19.692 16.016 18.7678 15.3172Z" fill="#EAF4FF"/>
  <path d="M26.3905 28.2617C26.3905 28.2617 20.3004 29.2952 19.1453 28.2617C19.3597 29.7815 21.8463 32.5881 23.9627 31.6695C26.0792 30.7542 26.3905 28.2617 26.3905 28.2617Z" fill="#2665FC"/>
</svg>
