<svg width="133" height="164" viewBox="0 0 133 164" fill="none" xmlns="http://www.w3.org/2000/svg">
  <path d="M-6.86646e-05 6.06787C-6.86646e-05 6.06787 41.3837 8.31139 60.8258 34.0097C80.2679 59.7081 119.739 128.645 114.433 148.83C109.134 169.015 60.8258 152.336 60.8258 152.336C60.8258 152.336 50.0442 106.223 32.547 64.9408C21.7719 39.5229 1.82079 15.9406 -6.86646e-05 6.06787Z" fill="#EAF0F9"/>
  <path d="M20.9372 12.0608C21.0808 15.05 19.3056 18.0138 16.9952 19.8557C14.8285 21.583 12.094 22.6537 9.24193 23.068C4.72568 15.8786 1.33195 10.0404 0.627106 6.2417C0.627106 6.2417 9.11139 6.7006 20.1997 9.58784C20.5848 10.3782 20.898 11.2004 20.9372 12.0608Z" fill="#2164FC"/>
  <path d="M77.6768 83.2518C71.2027 89.2367 61.2043 91.7797 52.5307 92.2896C49.3197 92.4808 45.8412 92.3724 42.5192 91.7223C40.9268 87.1971 39.243 82.6017 37.4744 77.9936C37.7028 78.0574 37.9312 78.1211 38.1596 78.1785C49.013 80.7661 61.4196 77.1013 69.9953 70.3836C73.4347 67.6875 76.6914 64.0737 77.6899 59.7651C80.0133 63.5574 82.3628 67.5218 84.6992 71.5882C83.8573 75.9923 81.0314 80.1479 77.6768 83.2518Z" fill="#FF2734"/>
  <path d="M85.4106 163.763C96.7926 163.763 99.6055 154.611 95.285 147.217C88.9088 136.306 75.5362 116.937 61.015 116.937C40.8093 116.937 60.8845 158.492 68.181 160.717C71.6791 161.775 78.8451 163.763 85.4106 163.763Z" fill="#2164FC"/>
  <path d="M68.416 97.21C68.416 97.21 48.8891 143.055 45.3518 148.192C41.6317 153.597 34.7334 151.487 34.7334 151.487" stroke="#0561FC" stroke-width="4" stroke-miterlimit="10" stroke-linecap="round"/>
  <path d="M108.286 153.878C117.919 152.431 126.429 145.318 129.372 136.242C132.322 127.166 129.568 116.567 122.546 109.964" stroke="#0561FC" stroke-width="4" stroke-miterlimit="10" stroke-linecap="round"/>
  <path d="M57.0927 163.005C55.8135 162.82 54.4756 162.578 53.4575 161.8C52.4394 161.022 51.8651 159.525 52.5438 158.447C52.9811 157.746 53.8099 157.396 54.5931 157.103C62.7315 154.062 71.6204 153.482 80.3397 153.648C84.1184 153.718 88.7652 154.024 91.7282 156.631C96.2966 160.653 90.8798 162.68 86.853 163.126C77.1221 164.197 66.804 164.426 57.0927 163.005Z" fill="#2164FC"/>
  <path d="M25.368 11.0582C29.8777 12.4922 34.6224 14.3278 39.2822 16.6797C39.3997 16.737 39.5172 16.8008 39.6347 16.8581C40.5614 16.0423 46.8398 10.338 52.7527 0C55.311 3.81141 51.7737 24.653 51.7737 24.653L51.7868 24.6658C54.43 26.8073 56.923 29.1846 59.1747 31.8424C61.4263 34.5002 51.7998 49.1531 40.2482 41.9C28.8661 34.7488 24.1802 20.6759 25.368 11.0582Z" fill="#2665FC"/>
  <path d="M35.4175 28.9054C33.6733 27.5865 33.0106 25.5697 33.9374 24.4007C34.8642 23.2318 37.0295 23.3532 38.7737 24.6721C40.5179 25.9909 41.1806 28.0077 40.2538 29.1767C39.327 30.3457 37.1617 30.2242 35.4175 28.9054Z" fill="#EAF4FF"/>
  <path d="M49.8027 53.334C49.8027 53.334 38.3098 55.2843 36.13 53.334C36.5346 56.2021 41.2271 61.4986 45.2212 59.7649C49.2154 58.0377 49.8027 53.334 49.8027 53.334Z" fill="#2665FC"/>
</svg>
