<svg width="28" height="29" viewBox="0 0 28 29" fill="none" xmlns="http://www.w3.org/2000/svg">
  <path d="M27.5 14.5339C27.5 7.09806 21.457 1.06804 14 1.06804C6.543 1.06804 0.5 7.09806 0.5 14.5339C0.5 21.9697 6.543 27.9998 14 27.9998C21.457 27.9998 27.5 21.9697 27.5 14.5339Z" stroke="#0461FC" stroke-opacity="0.5"/>
  <path d="M14 4.55835C8.486 4.55835 4 9.03341 4 14.534C4 20.0345 8.486 24.5096 14 24.5096C19.514 24.5096 24 20.0345 24 14.534C24 9.03341 19.514 4.55835 14 4.55835ZM12.001 18.9362L8.99718 15.9462C8.60575 15.5565 8.60496 14.9232 8.99541 14.5325C9.38476 14.143 10.016 14.1423 10.4062 14.5309L11.999 16.1171L16.5877 11.5396C16.9775 11.1507 17.6085 11.1507 17.9983 11.5396C18.3894 11.9297 18.3894 12.5634 17.9983 12.9536L12.001 18.9362Z" fill="#0461FC"/>
</svg>
