<svg width="356" height="258" viewBox="0 0 356 258" fill="none" xmlns="http://www.w3.org/2000/svg">
  <path d="M141.5 29.9999C134.453 31.2884 -51 17.5001 38.2429 133.958C74.2583 180.957 200.135 208.752 200.135 208.752" stroke="#0461FC" stroke-miterlimit="10" stroke-dasharray="4 4"/>
  <path d="M210.899 220.832L209.593 228.502L261.983 216.373L210.397 205.136L213.427 216.683L210.899 220.832Z" fill="#BCD8EF"/>
  <path d="M261.983 216.373L217.484 197.38L210.397 205.137L250.622 213.701L203.894 211.936L190.611 224.638L261.983 216.373Z" fill="#0461FC"/>
  <path d="M58.8375 142.074C58.8375 142.074 95.7466 84.6816 111.002 84.6816C131.25 84.6816 140.958 167.63 163.315 167.63C193.615 167.63 210.134 91.8452 240.856 91.8452C265.197 90.5905 271.973 107.655 294.558 105.647C317.394 102.385 334.709 33.6265 334.709 33.6265V182.229H36.3405L58.8375 142.074Z" fill="#C5E1F9"/>
  <path d="M58.8376 141.866C58.8376 141.866 95.7467 84.4733 111.002 84.4733C131.25 84.4733 141.46 167.128 163.817 167.128C194.117 167.128 211.137 91.845 241.86 91.845C264.808 91.845 271.379 105.898 292.048 105.898C316.641 105.898 333.454 35.6338 333.454 35.6338" stroke="#0561FC" stroke-width="0.822889" stroke-miterlimit="10" stroke-linecap="round"/>
  <path d="M93.0751 100.812L90.3333 100.674C89.2788 100.604 88.3648 101.435 88.2945 102.474L88.0133 107.32L85.7636 150.174L92.3721 150.52L94.6218 107.666L94.903 102.82C94.9733 101.781 94.1297 100.881 93.0751 100.812Z" fill="#EAF4FE"/>
  <path d="M106.644 104.828L103.902 104.897C102.847 104.897 101.933 105.797 102.004 106.835L102.074 111.682L102.636 154.605L109.245 154.536L108.682 111.612L108.612 106.766C108.612 105.658 107.698 104.828 106.644 104.828Z" fill="white"/>
  <path d="M77.8194 107.873L75.1479 108.496C74.0933 108.773 73.4606 109.812 73.7418 110.781L74.937 115.489L85.2012 157.235L91.6691 155.712L81.4049 113.966L80.2097 109.258C79.9285 108.219 78.8739 107.596 77.8194 107.873Z" fill="#C5E1F9"/>
  <path d="M91.5285 141.728L84.9903 142.836L77.96 103.789C77.6788 101.989 78.8739 100.328 80.6315 99.9815C82.4594 99.7046 84.1467 100.882 84.4982 102.612L91.5285 141.728Z" fill="#FF2227"/>
  <path d="M94.4813 114.658L101.09 114.242L104.042 157.097L97.434 157.512L94.4813 114.658Z" fill="#FCD20A"/>
  <path d="M101.09 114.174L94.4812 114.589L94.1297 109.743C94.0594 108.705 94.903 107.805 95.9576 107.735L98.6994 107.528C99.7539 107.458 100.668 108.289 100.738 109.328L101.09 114.174Z" fill="#0561FC"/>
  <path d="M103.199 144.358L110.159 101.989L116.697 103.027L109.737 145.397L103.199 144.358Z" fill="#EAF4FF"/>
  <path d="M116.627 102.958L110.088 101.92L110.862 97.1426C111.002 96.1042 112.057 95.4119 113.111 95.5503L115.853 95.9657C116.908 96.1042 117.611 97.1426 117.47 98.1811L116.627 102.958Z" fill="#00056D"/>
  <path d="M111.424 182.09H81.6157C78.3115 182.09 75.64 179.459 75.64 176.205V132.589H117.47V176.205C117.4 179.39 114.728 182.09 111.424 182.09Z" fill="white"/>
  <path d="M87.451 137.158H80.491V171.497C80.491 174.751 83.1625 177.382 86.4667 177.382H87.3807C87.3807 177.312 87.3807 177.174 87.3807 177.105V137.158H87.451Z" fill="#C5E1F9"/>
  <path d="M92.8642 141.935C92.9345 144.289 89.8412 147.197 89.8412 149.551C89.8412 157.789 100.176 155.089 100.176 160.905C100.176 166.72 94.7624 177.451 87.4509 177.451C88.0836 176.689 83.5842 165.543 83.3733 163.882C82.8109 159.174 82.7406 154.397 83.0921 149.62C83.303 146.851 82.6703 137.435 85.7636 137.158C90.1927 136.812 92.7939 138.751 92.8642 141.935Z" fill="#C5E1F9"/>
  <path d="M263.031 99.9796C264.467 99.9796 265.632 98.8327 265.632 97.418C265.632 96.0033 264.467 94.8564 263.031 94.8564C261.594 94.8564 260.43 96.0033 260.43 97.418C260.43 98.8327 261.594 99.9796 263.031 99.9796Z" fill="white" stroke="#0561FC" stroke-width="1.64578" stroke-miterlimit="10"/>
  <path d="M334.298 37.2437C335.735 37.2437 336.9 36.0969 336.9 34.6822C336.9 33.2675 335.735 32.1206 334.298 32.1206C332.862 32.1206 331.697 33.2675 331.697 34.6822C331.697 36.0969 332.862 37.2437 334.298 37.2437Z" fill="white" stroke="#0561FC" stroke-width="1.64578" stroke-miterlimit="10"/>
  <path d="M104.324 88.6278C105.76 88.6278 106.925 87.4809 106.925 86.0662C106.925 84.6515 105.76 83.5046 104.324 83.5046C102.887 83.5046 101.722 84.6515 101.722 86.0662C101.722 87.4809 102.887 88.6278 104.324 88.6278Z" fill="white" stroke="#0561FC" stroke-width="1.64578" stroke-miterlimit="10"/>
  <path d="M199.092 154.813H101.722C101.722 154.813 113.604 146.851 116.486 128.643C118.876 113.551 130.969 31.7883 130.969 31.7883H224.682C224.682 31.7883 211.958 112.651 209.919 130.097C207.95 147.612 199.092 154.813 199.092 154.813Z" fill="#0561FC"/>
  <path d="M240.079 181.397C239.798 175.79 234.876 169.628 231.572 165.266C228.971 161.805 225.596 158.966 222.644 155.782C227.916 165.405 232.908 175.236 233.752 182.505H240.36C240.219 182.228 240.079 181.813 240.079 181.397Z" fill="#C5E1F9"/>
  <path d="M13 183H356" stroke="#00056D" stroke-width="0.822889" stroke-miterlimit="10"/>
  <path opacity="0.2" d="M284.371 45.1323H252.946C250.555 45.1323 248.868 43.1938 249.219 40.84L253.508 11.4166C253.859 9.06275 256.109 7.12427 258.499 7.12427H290.206C292.596 7.12427 294.284 9.06275 293.932 11.4166L289.363 40.84C289.081 43.1938 286.761 45.1323 284.371 45.1323Z" fill="#0561FC"/>
  <path d="M101.722 55.3965H112.83" stroke="white" stroke-width="0.822889" stroke-miterlimit="10"/>
  <path d="M179.689 59.2042H153.817C153.536 59.2042 153.325 58.9965 153.395 58.7196L153.536 57.8888C153.606 57.6119 153.817 57.335 154.169 57.335H180.04C180.321 57.335 180.532 57.5427 180.462 57.8196L180.321 58.6504C180.251 58.9965 180.04 59.2042 179.689 59.2042Z" fill="white"/>
  <path d="M165.276 64.9498H152.833C152.552 64.9498 152.341 64.7421 152.411 64.4652L152.552 63.6344C152.622 63.3575 152.833 63.0806 153.184 63.0806H165.558C165.839 63.0806 166.05 63.2883 165.979 63.5652L165.839 64.396C165.839 64.7421 165.558 64.9498 165.276 64.9498Z" fill="white"/>
  <path d="M183.415 64.9498H168.721C168.44 64.9498 168.229 64.7421 168.299 64.4652L168.44 63.6344C168.51 63.3575 168.721 63.0806 169.073 63.0806H183.766C184.047 63.0806 184.258 63.2883 184.188 63.5652L184.047 64.396C183.977 64.7421 183.696 64.9498 183.415 64.9498Z" fill="white"/>
  <path d="M194.171 59.2042H182.571C182.29 59.2042 182.079 58.9965 182.149 58.7196L182.29 57.8888C182.36 57.6119 182.571 57.335 182.922 57.335H194.522C194.804 57.335 195.015 57.5427 194.944 57.8196L194.804 58.6504C194.733 58.9965 194.452 59.2042 194.171 59.2042Z" fill="white"/>
  <path d="M148.685 60.7268C148.123 64.2577 144.818 67.1654 141.233 67.1654C137.647 67.1654 135.187 64.2577 135.679 60.7268C136.171 57.196 139.475 54.2883 143.131 54.2883C146.716 54.2883 149.247 57.196 148.685 60.7268Z" fill="#C5E1F9"/>
  <path d="M141.444 63.3583C141.373 63.3583 141.233 63.3583 141.162 63.289C140.67 63.1506 140.248 62.8737 140.038 62.389L138.772 59.1352C138.702 58.9275 138.842 58.6505 139.124 58.6505H140.178C140.319 58.6505 140.459 58.7198 140.53 58.8582L141.584 61.4198L148.615 54.7043L149.81 55.9505L142.568 62.8737C142.217 63.2198 141.865 63.3583 141.444 63.3583Z" fill="#0561FC"/>
  <path d="M170.127 122.62H144.256C143.975 122.62 143.764 122.343 143.834 122.135L143.975 121.374C144.045 121.097 144.256 120.82 144.607 120.82H170.479C170.76 120.82 170.971 121.097 170.901 121.305L170.76 122.066C170.69 122.343 170.479 122.62 170.127 122.62Z" fill="white"/>
  <path d="M155.645 128.297H143.201C142.92 128.297 142.709 128.02 142.779 127.812L142.92 127.051C142.99 126.774 143.201 126.497 143.553 126.497H155.996C156.278 126.497 156.488 126.774 156.418 126.981L156.278 127.743C156.278 128.089 155.996 128.297 155.645 128.297Z" fill="white"/>
  <path d="M173.853 128.297H159.16C158.879 128.297 158.668 128.02 158.738 127.812L158.879 127.051C158.949 126.774 159.16 126.497 159.512 126.497H174.205C174.486 126.497 174.697 126.774 174.627 126.981L174.486 127.743C174.416 128.089 174.135 128.297 173.853 128.297Z" fill="white"/>
  <path d="M184.61 122.62H173.01C172.729 122.62 172.518 122.343 172.588 122.135L172.729 121.374C172.799 121.097 173.01 120.82 173.361 120.82H184.961C185.242 120.82 185.453 121.097 185.383 121.305L185.242 122.066C185.172 122.343 184.891 122.62 184.61 122.62Z" fill="white"/>
  <path d="M139.124 124.074C138.561 127.605 135.257 130.512 131.672 130.512C128.086 130.512 125.625 127.605 126.118 124.074C126.61 120.543 129.914 117.635 133.57 117.635C137.155 117.704 139.686 120.543 139.124 124.074Z" fill="#C5E1F9"/>
  <path d="M171.111 80.3194H150.794C150.513 80.3194 150.302 80.1117 150.372 79.8348L150.513 79.004C150.583 78.7271 150.794 78.4502 151.145 78.4502H171.463C171.744 78.4502 171.955 78.7271 171.885 78.9348L171.744 79.6964C171.674 80.1118 171.463 80.3194 171.111 80.3194Z" fill="white"/>
  <path d="M153.255 86.0656H149.739C149.458 86.0656 149.247 85.7887 149.318 85.581L149.458 84.8195C149.529 84.5426 149.739 84.2656 150.091 84.2656H153.606C153.887 84.2656 154.098 84.4733 154.028 84.7502L153.887 85.581C153.817 85.858 153.606 86.0656 153.255 86.0656Z" fill="white"/>
  <path d="M169.354 86.0656H156.207C155.926 86.0656 155.715 85.7887 155.786 85.581L155.926 84.8195C155.996 84.5426 156.207 84.2656 156.559 84.2656H169.705C169.987 84.2656 170.198 84.4733 170.127 84.7502L169.987 85.581C169.916 85.858 169.635 86.0656 169.354 86.0656Z" fill="white"/>
  <path d="M191.148 80.3194H173.994C173.713 80.3194 173.502 80.1117 173.572 79.8348L173.713 79.004C173.783 78.7271 173.994 78.4502 174.345 78.4502H191.499C191.781 78.4502 191.991 78.7271 191.921 78.9348L191.781 79.6964C191.71 80.1118 191.429 80.3194 191.148 80.3194Z" fill="white"/>
  <path d="M145.662 81.8426C145.099 85.3734 141.795 88.2811 138.21 88.2811C134.624 88.2811 132.164 85.3734 132.656 81.8426C133.148 78.3118 136.452 75.4041 140.108 75.4041C143.693 75.4041 146.154 78.3118 145.662 81.8426Z" fill="#C5E1F9"/>
  <path d="M138.421 84.4731C138.35 84.4731 138.21 84.4731 138.139 84.4039C137.647 84.3347 137.225 83.9885 137.015 83.5039L135.749 80.3192C135.679 80.1115 135.819 79.8346 136.101 79.8346H137.155C137.296 79.8346 137.436 79.9039 137.507 80.0423L138.561 82.6039L145.592 75.8884L146.787 77.1346L139.545 84.0577C139.194 84.3347 138.772 84.4731 138.421 84.4731Z" fill="#0561FC"/>
  <path d="M161.761 142.005C154.379 142.005 146.998 141.935 139.616 141.935C139.335 141.935 139.194 141.728 139.335 141.52C139.475 141.243 139.616 141.105 139.756 140.897C139.897 140.62 140.249 140.481 140.6 140.481C147.982 140.481 155.364 140.551 162.675 140.551C162.956 140.551 163.097 140.758 163.027 140.966C162.886 141.243 162.816 141.381 162.605 141.589C162.464 141.797 162.042 142.005 161.761 142.005Z" fill="white"/>
  <path d="M139.335 146.297C137.788 146.297 137.015 146.297 135.538 146.297C135.257 146.297 135.187 146.159 135.398 145.951C135.679 145.743 135.749 145.605 136.03 145.328C136.241 145.12 136.663 144.912 137.015 144.912H140.811C141.092 144.912 141.233 145.12 141.022 145.259C140.741 145.466 140.67 145.605 140.389 145.882C140.108 146.159 139.686 146.297 139.335 146.297Z" fill="white"/>
  <path d="M156.84 146.228C151.146 146.228 148.193 146.228 142.498 146.297C142.217 146.297 142.147 146.158 142.358 145.951C142.639 145.743 142.779 145.605 142.99 145.397C143.201 145.189 143.623 144.981 143.975 144.981C149.739 144.981 152.622 144.981 158.387 144.981C158.668 144.981 158.809 145.12 158.598 145.328C158.316 145.535 158.246 145.674 157.965 145.881C157.613 146.089 157.192 146.228 156.84 146.228Z" fill="white"/>
  <path d="M182.852 142.074C175.892 142.004 172.236 142.004 164.784 142.004C164.503 142.004 164.362 141.797 164.503 141.589C164.644 141.312 164.714 141.174 164.925 140.966C165.066 140.689 165.417 140.551 165.698 140.551C173.08 140.551 176.736 140.62 183.696 140.62C183.977 140.62 184.118 140.827 184.047 141.035C183.907 141.312 183.836 141.451 183.696 141.658C183.555 141.866 183.204 142.074 182.852 142.074Z" fill="white"/>
  <path d="M133.359 143.112C131.179 145.882 125.415 147.959 121.759 147.959C118.103 147.959 117.751 145.882 119.79 143.043C121.829 140.205 125.836 137.643 129.562 137.643C133.359 137.643 135.538 140.343 133.359 143.112Z" fill="#C5E1F9"/>
  <path d="M124.43 145.12C124.29 145.12 124.219 145.12 124.149 145.12C123.727 145.051 123.446 144.774 123.516 144.428C123.657 143.459 123.657 142.905 123.657 141.867C123.657 141.659 123.938 141.451 124.149 141.52C124.571 141.52 124.782 141.52 125.274 141.52C125.415 141.52 125.555 141.59 125.555 141.728C125.625 142.559 125.625 142.974 125.555 143.736C129.773 141.659 131.742 140.62 135.327 138.197C135.749 138.613 135.89 138.82 136.312 139.305C132.515 141.728 130.406 142.767 125.907 144.913C125.344 144.982 124.852 145.12 124.43 145.12Z" fill="#0561FC"/>
  <path d="M156.981 101.504H147.49C147.209 101.504 146.998 101.227 147.068 101.02L147.209 100.258C147.279 99.9813 147.49 99.7043 147.841 99.7043H157.332C157.613 99.7043 157.824 99.9813 157.754 100.189L157.613 100.951C157.543 101.227 157.262 101.504 156.981 101.504Z" fill="white"/>
  <path d="M160.425 107.181H146.435C146.154 107.181 145.943 106.904 146.013 106.697L146.154 105.935C146.224 105.658 146.435 105.381 146.787 105.381H160.777C161.058 105.381 161.269 105.658 161.199 105.866L161.058 106.628C160.988 106.974 160.777 107.181 160.425 107.181Z" fill="white"/>
  <path d="M185.946 101.504H177.439C177.158 101.504 176.947 101.227 177.017 101.02L177.158 100.258C177.228 99.9813 177.439 99.7043 177.79 99.7043H186.297C186.578 99.7043 186.789 99.9813 186.719 100.189L186.578 100.951C186.508 101.227 186.227 101.504 185.946 101.504Z" fill="white"/>
  <path d="M166.05 107.181H163.308C163.027 107.181 162.816 106.904 162.886 106.697L163.027 105.935C163.097 105.658 163.308 105.381 163.659 105.381H166.401C166.682 105.381 166.893 105.658 166.823 105.866L166.682 106.628C166.612 106.974 166.331 107.181 166.05 107.181Z" fill="white"/>
  <path d="M174.346 101.504H159.863C159.582 101.504 159.371 101.227 159.441 101.02L159.582 100.258C159.652 99.9813 159.863 99.7043 160.215 99.7043H174.697C174.978 99.7043 175.189 99.9813 175.119 100.189L174.978 100.951C174.908 101.227 174.697 101.504 174.346 101.504Z" fill="white"/>
  <path d="M142.358 102.959C141.795 106.489 138.491 109.397 134.905 109.397C131.32 109.397 128.859 106.489 129.352 102.959C129.844 99.4277 133.148 96.52 136.804 96.52C140.389 96.5893 142.92 99.4277 142.358 102.959Z" fill="#C5E1F9"/>
  <path d="M135.116 105.658C135.046 105.658 134.905 105.658 134.835 105.589C134.343 105.52 133.921 105.174 133.71 104.689L132.445 101.504C132.374 101.297 132.515 101.02 132.796 101.02H133.851C133.991 101.02 134.132 101.089 134.202 101.227L135.257 103.789L142.287 97.0735L143.482 98.3197L136.241 105.243C135.89 105.45 135.538 105.658 135.116 105.658Z" fill="#0561FC"/>
  <path opacity="0.2" d="M151.751 49.1181H81.0401C79.3218 49.1181 78.1189 47.6798 78.3766 45.9876L81.4697 24.7507C81.7275 23.0585 83.3599 21.6201 85.0783 21.6201H155.961C157.68 21.6201 158.883 23.0585 158.625 24.7507L155.274 45.9876C155.102 47.6798 153.47 49.1181 151.751 49.1181Z" fill="#0561FC"/>
  <path d="M146.51 45.8178H75.7989C74.0806 45.8178 72.8777 44.3795 73.1355 42.6873L76.2285 21.4504C76.4863 19.7582 78.1188 18.3198 79.8371 18.3198H150.72C152.439 18.3198 153.641 19.7582 153.384 21.4504L150.033 42.6873C149.861 44.3795 148.229 45.8178 146.51 45.8178Z" fill="white"/>
  <path d="M98.2238 37.2733H84.219C83.3598 37.2733 82.6725 36.5118 82.8443 35.6657L84.305 26.9509C84.4768 26.0202 85.2501 25.428 86.1952 25.428H100.2C101.059 25.428 101.746 26.1895 101.575 27.0356L100.114 35.7503C99.8563 36.5964 99.083 37.2733 98.2238 37.2733Z" stroke="#0561FC" stroke-width="0.822889" stroke-miterlimit="10"/>
  <path d="M84.6487 26.1047L91.4363 30.8429C91.8659 31.1813 92.4673 31.1813 92.8969 30.9275L101.317 26.1047" stroke="#0561FC" stroke-width="0.822889" stroke-miterlimit="10"/>
  <path d="M106.128 28.5581H123.999" stroke="#0561FC" stroke-width="0.822889" stroke-miterlimit="10" stroke-linecap="round"/>
  <path d="M104.324 34.2268H122.195" stroke="#0561FC" stroke-width="0.822889" stroke-miterlimit="10" stroke-linecap="round"/>
  <path d="M127.866 28.5581H137.317" stroke="#0561FC" stroke-width="0.822889" stroke-miterlimit="10" stroke-linecap="round"/>
  <path d="M105.183 31.3503H116.954" stroke="#0561FC" stroke-width="0.822889" stroke-miterlimit="10" stroke-linecap="round"/>
  <path d="M119.274 31.3503H127.866" stroke="#0561FC" stroke-width="0.822889" stroke-miterlimit="10" stroke-linecap="round"/>
  <path d="M273.964 73.2729H257.797C256.867 73.2729 256.041 73.9871 255.886 74.9053L254.233 86.0768C254.078 86.995 254.749 87.7091 255.628 87.7091H260.483L262.187 90.4127C262.446 90.8208 263.014 90.8718 263.375 90.5658L266.474 87.7091H271.743C272.673 87.7091 273.499 86.995 273.654 86.0768L275.41 74.9053C275.513 73.9871 274.894 73.2729 273.964 73.2729Z" fill="#FF2227"/>
  <path d="M280.325 40.6388H246.861C244.33 40.6388 242.502 38.5619 242.924 36.0003L247.494 4.63851C247.845 2.07694 250.306 0 252.837 0H286.653C289.254 0 291.012 2.07694 290.59 4.63851L285.668 36.0003C285.247 38.5619 282.856 40.6388 280.325 40.6388Z" fill="#C5E1F9"/>
  <path d="M273.225 30.7383H271.186C270.624 30.7383 270.202 30.2537 270.272 29.7691L272.1 16.8228C272.17 16.4074 272.522 16.0613 273.014 16.0613H275.053C275.615 16.0613 276.037 16.5459 275.967 17.0998L274.139 30.046C274.068 30.4614 273.717 30.7383 273.225 30.7383Z" fill="#0561FC"/>
  <path d="M264.999 20.5613L263.664 29.7691C263.593 30.323 264.015 30.8076 264.578 30.8076H266.616C267.038 30.8076 267.46 30.4614 267.53 30.0461L268.866 20.8383C268.936 20.2844 268.514 19.7998 267.952 19.7998H265.913C265.421 19.7998 265.07 20.0767 264.999 20.5613Z" fill="#0561FC"/>
  <path d="M257.969 24.5076L257.196 29.7692C257.125 30.3231 257.547 30.7385 258.11 30.7385H260.148C260.57 30.7385 260.992 30.3923 261.062 29.9769L261.836 24.7153C261.906 24.1615 261.484 23.7461 260.922 23.7461H258.883C258.391 23.7461 258.039 24.0922 257.969 24.5076Z" fill="#0561FC"/>
  <path d="M257.617 18.7616C257.617 18.7616 269.921 17.6539 275.264 7.68457" stroke="#0561FC" stroke-width="1.64578" stroke-miterlimit="10" stroke-linecap="round"/>
  <path d="M276.248 5.88452L276.178 7.33838V8.79224L274.912 8.0307L273.647 7.26915L274.982 6.57684L276.248 5.88452Z" fill="#0561FC" stroke="#0561FC" stroke-width="1.64578" stroke-miterlimit="10" stroke-linecap="round" stroke-linejoin="round"/>
</svg>
