<svg width="893" height="664" viewBox="0 0 893 664" fill="none" xmlns="http://www.w3.org/2000/svg">
  <path d="M494.286 145.793C478.761 145.873 -53.7646 25.1182 116.112 313.691C181.203 424.264 433.211 534.574 433.211 534.574" stroke="#0461FC" stroke-width="2" stroke-miterlimit="10" stroke-dasharray="15 15"/>
  <path d="M451.603 564.426L445.912 580.295L562.285 574.253L456.475 530.746L458.568 556.529L451.603 564.426Z" fill="#BCD8EF"/>
  <path d="M562.285 574.253L474.533 516.881L456.475 530.746L539.057 564.251L440.024 542.791L406.874 564.862L562.285 574.253Z" fill="#0461FC"/>
  <path d="M252.925 344.024C252.925 344.024 327.75 227.673 358.678 227.673C399.724 227.673 419.407 395.832 464.729 395.832C526.157 395.832 559.644 242.195 621.927 242.195C671.273 239.652 685.009 274.245 730.795 270.175C777.089 263.562 812.192 124.17 812.192 124.17V425.427H207.318L252.925 344.024Z" fill="#C5E1F9"/>
  <path d="M252.925 343.602C252.925 343.602 327.75 227.251 358.678 227.251C399.725 227.251 420.424 394.814 465.747 394.814C527.174 394.814 561.679 242.195 623.962 242.195C670.484 242.195 683.806 270.684 725.708 270.684C775.563 270.684 809.648 128.24 809.648 128.24" stroke="#0561FC" stroke-miterlimit="10" stroke-linecap="round"/>
  <path d="M322.334 260.373L316.776 260.093C314.638 259.952 312.785 261.637 312.643 263.742L312.073 273.566L307.512 360.444L320.909 361.145L325.47 274.268L326.04 264.444C326.182 262.338 324.472 260.514 322.334 260.373Z" fill="#EAF4FE"/>
  <path d="M349.841 268.514L344.283 268.655C342.145 268.655 340.292 270.479 340.435 272.584L340.577 282.409L341.717 369.427L355.115 369.286L353.974 282.269L353.832 272.444C353.832 270.198 351.979 268.514 349.841 268.514Z" fill="white"/>
  <path d="M291.407 274.689L285.991 275.952C283.853 276.514 282.57 278.619 283.14 280.584L285.563 290.128L306.372 374.759L319.484 371.672L298.675 287.04L296.252 277.496C295.682 275.391 293.545 274.128 291.407 274.689Z" fill="#C5E1F9"/>
  <path d="M319.199 343.322L305.944 345.568L291.692 266.41C291.122 262.76 293.545 259.392 297.108 258.69C300.813 258.129 304.234 260.515 304.946 264.024L319.199 343.322Z" fill="#FF2227"/>
  <path d="M325.185 288.443L338.582 287.601L344.568 374.478L331.171 375.32L325.185 288.443Z" fill="#FCD20A"/>
  <path d="M338.582 287.461L325.185 288.303L324.472 278.479C324.33 276.374 326.04 274.549 328.178 274.409L333.736 273.988C335.874 273.847 337.727 275.532 337.869 277.637L338.582 287.461Z" fill="#0561FC"/>
  <path d="M342.858 348.655L356.967 262.76L370.222 264.865L356.112 350.76L342.858 348.655Z" fill="#EAF4FF"/>
  <path d="M370.079 264.725L356.825 262.619L358.393 252.935C358.678 250.83 360.815 249.426 362.953 249.707L368.512 250.549C370.65 250.83 372.075 252.935 371.79 255.04L370.079 264.725Z" fill="#00056D"/>
  <path d="M359.533 425.146H299.103C292.404 425.146 286.988 419.813 286.988 413.216V324.795H371.79V413.216C371.647 419.672 366.231 425.146 359.533 425.146Z" fill="white"/>
  <path d="M310.932 334.058H296.823V403.672C296.823 410.268 302.239 415.602 308.937 415.602H310.79C310.79 415.461 310.79 415.181 310.79 415.04V334.058H310.932Z" fill="#C5E1F9"/>
  <path d="M321.907 343.741C322.049 348.513 315.778 354.408 315.778 359.18C315.778 375.882 336.729 370.408 336.729 382.198C336.729 393.987 325.755 415.742 310.932 415.742C312.215 414.198 303.094 391.601 302.666 388.233C301.526 378.689 301.383 369.005 302.096 359.32C302.524 353.706 301.241 334.619 307.512 334.057C316.491 333.355 321.764 337.285 321.907 343.741Z" fill="#C5E1F9"/>
  <path d="M666.881 258.686C669.793 258.686 672.154 256.361 672.154 253.493C672.154 250.625 669.793 248.3 666.881 248.3C663.968 248.3 661.607 250.625 661.607 253.493C661.607 256.361 663.968 258.686 666.881 258.686Z" fill="white" stroke="#0561FC" stroke-width="2" stroke-miterlimit="10"/>
  <path d="M811.36 131.503C814.272 131.503 816.633 129.178 816.633 126.31C816.633 123.442 814.272 121.117 811.36 121.117C808.448 121.117 806.087 123.442 806.087 126.31C806.087 129.178 808.448 131.503 811.36 131.503Z" fill="white" stroke="#0561FC" stroke-width="2" stroke-miterlimit="10"/>
  <path d="M345.138 235.673C348.051 235.673 350.411 233.348 350.411 230.48C350.411 227.612 348.051 225.287 345.138 225.287C342.226 225.287 339.865 227.612 339.865 230.48C339.865 233.348 342.226 235.673 345.138 235.673Z" fill="white" stroke="#0561FC" stroke-width="2" stroke-miterlimit="10"/>
  <path d="M537.26 369.847H339.865C339.865 369.847 363.951 353.707 369.795 316.794C374.64 286.198 399.155 120.443 399.155 120.443H589.138C589.138 120.443 563.342 284.373 559.208 319.742C555.218 355.251 537.26 369.847 537.26 369.847Z" fill="#0561FC"/>
  <path d="M620.351 423.742C619.781 412.374 609.804 399.883 603.106 391.041C597.832 384.023 590.991 378.269 585.005 371.812C595.694 391.321 605.814 411.251 607.524 425.988H620.921C620.636 425.427 620.351 424.584 620.351 423.742Z" fill="#C5E1F9"/>
  <path d="M160 426.128H892.571" stroke="#00056D" stroke-miterlimit="10"/>
  <path opacity="0.2" d="M710.143 147.496H646.435C641.59 147.496 638.169 143.566 638.882 138.794L647.576 79.1446C648.288 74.3727 652.849 70.4429 657.695 70.4429H721.973C726.819 70.4429 730.239 74.3727 729.527 79.1446L720.262 138.794C719.692 143.566 714.989 147.496 710.143 147.496Z" fill="#0561FC"/>
  <path d="M339.865 168.304H362.383" stroke="white" stroke-miterlimit="10"/>
  <path d="M497.923 176.023H445.475C444.904 176.023 444.477 175.602 444.619 175.04L444.904 173.356C445.047 172.795 445.475 172.233 446.187 172.233H498.636C499.206 172.233 499.634 172.654 499.491 173.216L499.206 174.9C499.063 175.602 498.636 176.023 497.923 176.023Z" fill="white"/>
  <path d="M468.706 187.671H443.479C442.909 187.671 442.482 187.25 442.624 186.689L442.909 185.005C443.052 184.443 443.479 183.882 444.192 183.882H469.276C469.846 183.882 470.274 184.303 470.131 184.864L469.846 186.549C469.846 187.25 469.276 187.671 468.706 187.671Z" fill="white"/>
  <path d="M505.477 187.671H475.69C475.12 187.671 474.692 187.25 474.835 186.689L475.12 185.005C475.262 184.443 475.69 183.882 476.402 183.882H506.19C506.76 183.882 507.187 184.303 507.045 184.864L506.76 186.549C506.617 187.25 506.047 187.671 505.477 187.671Z" fill="white"/>
  <path d="M527.283 176.023H503.767C503.197 176.023 502.769 175.602 502.912 175.04L503.197 173.356C503.339 172.795 503.767 172.233 504.479 172.233H527.996C528.566 172.233 528.993 172.654 528.851 173.216L528.566 174.9C528.423 175.602 527.853 176.023 527.283 176.023Z" fill="white"/>
  <path d="M435.07 179.11C433.93 186.268 427.232 192.163 419.963 192.163C412.694 192.163 407.706 186.268 408.704 179.11C409.701 171.952 416.4 166.058 423.811 166.058C431.08 166.058 436.211 171.952 435.07 179.11Z" fill="#C5E1F9"/>
  <path d="M420.39 184.444C420.248 184.444 419.963 184.444 419.82 184.303C418.823 184.023 417.968 183.461 417.54 182.479L414.975 175.882C414.832 175.461 415.117 174.9 415.687 174.9H417.825C418.11 174.9 418.395 175.04 418.538 175.321L420.675 180.514L434.928 166.9L437.351 169.426L422.671 183.461C421.958 184.163 421.246 184.444 420.39 184.444Z" fill="#0561FC"/>
  <path d="M478.54 304.585H426.091C425.521 304.585 425.094 304.023 425.236 303.602L425.521 302.058C425.664 301.497 426.091 300.936 426.804 300.936H479.253C479.823 300.936 480.25 301.497 480.108 301.918L479.823 303.462C479.68 304.023 479.253 304.585 478.54 304.585Z" fill="white"/>
  <path d="M449.18 316.093H423.953C423.383 316.093 422.956 315.532 423.098 315.111L423.383 313.567C423.526 313.005 423.953 312.444 424.666 312.444H449.893C450.463 312.444 450.89 313.005 450.748 313.426L450.463 314.97C450.463 315.672 449.893 316.093 449.18 316.093Z" fill="white"/>
  <path d="M486.094 316.093H456.306C455.736 316.093 455.309 315.532 455.451 315.111L455.736 313.567C455.879 313.005 456.306 312.444 457.019 312.444H486.806C487.376 312.444 487.804 313.005 487.662 313.426L487.376 314.97C487.234 315.672 486.664 316.093 486.094 316.093Z" fill="white"/>
  <path d="M507.9 304.585H484.384C483.813 304.585 483.386 304.023 483.528 303.602L483.813 302.058C483.956 301.497 484.384 300.936 485.096 300.936H508.613C509.183 300.936 509.61 301.497 509.468 301.918L509.183 303.462C509.04 304.023 508.47 304.585 507.9 304.585Z" fill="white"/>
  <path d="M415.687 307.531C414.547 314.689 407.848 320.584 400.58 320.584C393.311 320.584 388.323 314.689 389.32 307.531C390.318 300.373 397.017 294.479 404.428 294.479C411.696 294.619 416.827 300.373 415.687 307.531Z" fill="#C5E1F9"/>
  <path d="M480.535 218.83H439.346C438.776 218.83 438.348 218.409 438.491 217.848L438.776 216.163C438.918 215.602 439.346 215.041 440.059 215.041H481.248C481.818 215.041 482.245 215.602 482.103 216.023L481.818 217.567C481.675 218.409 481.248 218.83 480.535 218.83Z" fill="white"/>
  <path d="M444.335 230.479H437.208C436.638 230.479 436.211 229.917 436.353 229.496L436.638 227.952C436.781 227.391 437.208 226.83 437.921 226.83H445.047C445.617 226.83 446.045 227.251 445.902 227.812L445.617 229.496C445.475 230.058 445.047 230.479 444.335 230.479Z" fill="white"/>
  <path d="M476.972 230.479H450.32C449.75 230.479 449.323 229.917 449.465 229.496L449.75 227.952C449.893 227.391 450.32 226.83 451.033 226.83H477.685C478.255 226.83 478.683 227.251 478.54 227.812L478.255 229.496C478.113 230.058 477.542 230.479 476.972 230.479Z" fill="white"/>
  <path d="M521.155 218.83H486.379C485.809 218.83 485.381 218.409 485.524 217.848L485.809 216.163C485.951 215.602 486.379 215.041 487.091 215.041H521.867C522.437 215.041 522.865 215.602 522.722 216.023L522.437 217.567C522.295 218.409 521.725 218.83 521.155 218.83Z" fill="white"/>
  <path d="M428.942 221.917C427.802 229.075 421.103 234.97 413.834 234.97C406.566 234.97 401.577 229.075 402.575 221.917C403.573 214.759 410.271 208.865 417.683 208.865C424.951 208.865 429.94 214.759 428.942 221.917Z" fill="#C5E1F9"/>
  <path d="M414.262 227.251C414.119 227.251 413.834 227.251 413.692 227.11C412.694 226.97 411.839 226.268 411.411 225.286L408.846 218.83C408.703 218.409 408.989 217.847 409.559 217.847H411.696C411.982 217.847 412.267 217.988 412.409 218.268L414.547 223.461L428.799 209.847L431.222 212.373L416.542 226.409C415.83 226.97 414.975 227.251 414.262 227.251Z" fill="#0561FC"/>
  <path d="M461.58 343.882C446.615 343.882 431.65 343.741 416.685 343.741C416.115 343.741 415.83 343.32 416.115 342.899C416.4 342.338 416.685 342.057 416.97 341.636C417.255 341.075 417.968 340.794 418.68 340.794C433.645 340.794 448.61 340.934 463.433 340.934C464.003 340.934 464.288 341.355 464.145 341.776C463.86 342.338 463.718 342.619 463.29 343.04C463.005 343.461 462.15 343.882 461.58 343.882Z" fill="white"/>
  <path d="M416.115 352.584C412.979 352.584 411.411 352.584 408.418 352.584C407.848 352.584 407.706 352.304 408.133 351.883C408.703 351.462 408.846 351.181 409.416 350.619C409.844 350.198 410.699 349.777 411.411 349.777H419.108C419.678 349.777 419.963 350.198 419.535 350.479C418.965 350.9 418.823 351.181 418.253 351.742C417.682 352.304 416.827 352.584 416.115 352.584Z" fill="white"/>
  <path d="M451.603 352.444C440.059 352.444 434.073 352.444 422.528 352.584C421.958 352.584 421.816 352.303 422.243 351.882C422.813 351.461 423.098 351.181 423.526 350.76C423.954 350.339 424.809 349.917 425.521 349.917C437.208 349.917 443.052 349.917 454.739 349.917C455.309 349.917 455.594 350.198 455.166 350.619C454.596 351.04 454.454 351.321 453.883 351.742C453.171 352.163 452.316 352.444 451.603 352.444Z" fill="white"/>
  <path d="M504.337 344.022C490.227 343.882 482.816 343.882 467.708 343.882C467.138 343.882 466.853 343.461 467.138 343.04C467.423 342.478 467.566 342.198 467.993 341.777C468.278 341.215 468.991 340.935 469.561 340.935C484.526 340.935 491.937 341.075 506.047 341.075C506.617 341.075 506.902 341.496 506.76 341.917C506.475 342.478 506.332 342.759 506.047 343.18C505.762 343.601 505.049 344.022 504.337 344.022Z" fill="white"/>
  <path d="M404 346.128C399.582 351.742 387.895 355.953 380.484 355.953C373.073 355.953 372.36 351.742 376.493 345.988C380.626 340.234 388.75 335.041 396.304 335.041C404 335.041 408.418 340.514 404 346.128Z" fill="#C5E1F9"/>
  <path d="M385.9 350.199C385.615 350.199 385.472 350.199 385.33 350.199C384.475 350.058 383.904 349.497 384.047 348.795C384.332 346.83 384.332 345.707 384.332 343.602C384.332 343.181 384.902 342.76 385.33 342.9C386.185 342.9 386.612 342.9 387.61 342.9C387.895 342.9 388.18 343.041 388.18 343.321C388.323 345.006 388.323 345.848 388.18 347.392C396.732 343.181 400.722 341.076 407.991 336.164C408.846 337.006 409.131 337.427 409.986 338.409C402.29 343.321 398.014 345.427 388.893 349.778C387.753 349.918 386.755 350.199 385.9 350.199Z" fill="#0561FC"/>
  <path d="M451.888 261.777H432.647C432.077 261.777 431.65 261.216 431.792 260.795L432.077 259.251C432.22 258.689 432.647 258.128 433.36 258.128H452.601C453.171 258.128 453.598 258.689 453.456 259.11L453.171 260.654C453.028 261.216 452.458 261.777 451.888 261.777Z" fill="white"/>
  <path d="M458.872 273.286H430.51C429.94 273.286 429.512 272.724 429.655 272.303L429.94 270.76C430.082 270.198 430.51 269.637 431.222 269.637H459.585C460.155 269.637 460.582 270.198 460.44 270.619L460.155 272.163C460.012 272.865 459.585 273.286 458.872 273.286Z" fill="white"/>
  <path d="M510.608 261.777H493.362C492.792 261.777 492.365 261.216 492.507 260.795L492.792 259.251C492.935 258.689 493.362 258.128 494.075 258.128H511.32C511.891 258.128 512.318 258.689 512.176 259.11L511.891 260.654C511.748 261.216 511.178 261.777 510.608 261.777Z" fill="white"/>
  <path d="M470.274 273.286H464.715C464.145 273.286 463.718 272.724 463.86 272.303L464.145 270.76C464.288 270.198 464.715 269.637 465.428 269.637H470.986C471.556 269.637 471.984 270.198 471.841 270.619L471.556 272.163C471.414 272.865 470.844 273.286 470.274 273.286Z" fill="white"/>
  <path d="M487.091 261.777H457.732C457.162 261.777 456.734 261.216 456.877 260.795L457.162 259.251C457.304 258.689 457.732 258.128 458.444 258.128H487.804C488.374 258.128 488.802 258.689 488.659 259.11L488.374 260.654C488.232 261.216 487.804 261.777 487.091 261.777Z" fill="white"/>
  <path d="M422.243 264.725C421.103 271.882 414.404 277.777 407.136 277.777C399.867 277.777 394.879 271.882 395.876 264.725C396.874 257.567 403.573 251.672 410.984 251.672C418.253 251.812 423.383 257.567 422.243 264.725Z" fill="#C5E1F9"/>
  <path d="M407.563 270.198C407.421 270.198 407.136 270.198 406.993 270.058C405.995 269.917 405.14 269.216 404.713 268.233L402.147 261.777C402.005 261.356 402.29 260.794 402.86 260.794H404.998C405.283 260.794 405.568 260.935 405.71 261.215L407.848 266.408L422.101 252.794L424.523 255.321L409.844 269.356C409.131 269.777 408.418 270.198 407.563 270.198Z" fill="#0561FC"/>
  <path opacity="0.2" d="M441.287 155.576H297.936C294.452 155.576 292.014 152.66 292.536 149.23L298.807 106.177C299.329 102.746 302.639 99.8301 306.122 99.8301H449.822C453.306 99.8301 455.744 102.746 455.222 106.177L448.428 149.23C448.08 152.66 444.771 155.576 441.287 155.576Z" fill="#0561FC"/>
  <path d="M430.662 148.885H287.311C283.827 148.885 281.389 145.969 281.911 142.539L288.182 99.4856C288.704 96.0551 292.014 93.1392 295.497 93.1392H439.197C442.68 93.1392 445.119 96.0551 444.596 99.4856L437.803 142.539C437.455 145.969 434.145 148.885 430.662 148.885Z" fill="white"/>
  <path d="M332.772 131.562H304.381C302.639 131.562 301.245 130.019 301.594 128.303L304.555 110.636C304.903 108.75 306.471 107.549 308.387 107.549H336.778C338.52 107.549 339.914 109.093 339.565 110.808L336.604 128.475C336.082 130.19 334.514 131.562 332.772 131.562Z" stroke="#0561FC" stroke-miterlimit="10"/>
  <path d="M305.252 108.921L319.012 118.527C319.883 119.213 321.102 119.213 321.973 118.698L339.043 108.921" stroke="#0561FC" stroke-miterlimit="10"/>
  <path d="M348.797 113.895H385.026" stroke="#0561FC" stroke-miterlimit="10" stroke-linecap="round"/>
  <path d="M345.139 125.387H381.369" stroke="#0561FC" stroke-miterlimit="10" stroke-linecap="round"/>
  <path d="M392.865 113.895H412.024" stroke="#0561FC" stroke-miterlimit="10" stroke-linecap="round"/>
  <path d="M346.881 119.555H370.744" stroke="#0561FC" stroke-miterlimit="10" stroke-linecap="round"/>
  <path d="M375.446 119.555H392.865" stroke="#0561FC" stroke-miterlimit="10" stroke-linecap="round"/>
  <path d="M689.045 204.544H656.27C654.386 204.544 652.71 205.992 652.396 207.853L649.045 230.501C648.731 232.362 650.092 233.81 651.873 233.81H661.715L665.171 239.291C665.694 240.118 666.846 240.222 667.579 239.601L673.862 233.81H684.543C686.427 233.81 688.103 232.362 688.417 230.501L691.977 207.853C692.187 205.992 690.93 204.544 689.045 204.544Z" fill="#FF2227"/>
  <path d="M701.942 138.386H634.101C628.97 138.386 625.264 134.176 626.119 128.983L635.383 65.4035C636.096 60.2105 641.084 56 646.215 56H714.769C720.042 56 723.605 60.2105 722.75 65.4035L712.774 128.983C711.919 134.176 707.073 138.386 701.942 138.386Z" fill="#C5E1F9"/>
  <path d="M687.547 118.315H683.414C682.274 118.315 681.418 117.333 681.561 116.351L685.267 90.1049C685.409 89.2628 686.122 88.561 687.119 88.561H691.253C692.393 88.561 693.248 89.5435 693.105 90.6663L689.4 116.912C689.257 117.754 688.545 118.315 687.547 118.315Z" fill="#0561FC"/>
  <path d="M670.872 97.684L668.164 116.351C668.021 117.474 668.876 118.456 670.017 118.456H674.15C675.005 118.456 675.86 117.754 676.003 116.912L678.711 98.2454C678.853 97.1226 677.998 96.1401 676.858 96.1401H672.725C671.727 96.1401 671.014 96.7015 670.872 97.684Z" fill="#0561FC"/>
  <path d="M656.619 105.684L655.052 116.351C654.909 117.474 655.764 118.316 656.904 118.316H661.038C661.893 118.316 662.748 117.614 662.89 116.772L664.458 106.106C664.601 104.983 663.746 104.141 662.605 104.141H658.472C657.475 104.141 656.762 104.842 656.619 105.684Z" fill="#0561FC"/>
  <path d="M655.907 94.0348C655.907 94.0348 680.848 91.7892 691.68 71.5786" stroke="#0561FC" stroke-width="2" stroke-miterlimit="10" stroke-linecap="round"/>
  <path d="M693.676 67.9302L693.533 70.8776V73.8249L690.968 72.2811L688.402 70.7372L691.11 69.3337L693.676 67.9302Z" fill="#0561FC" stroke="#0561FC" stroke-width="2" stroke-miterlimit="10" stroke-linecap="round" stroke-linejoin="round"/>
</svg>
