<svg width="325" height="270" viewBox="0 0 325 270" fill="none" xmlns="http://www.w3.org/2000/svg">
  <ellipse cx="44.0675" cy="265.431" rx="40.5421" ry="2.62331" fill="#B5D7FA" fill-opacity="0.41"/>
  <ellipse cx="185.011" cy="264.239" rx="64.6288" ry="5.24662" fill="#B5D7FA" fill-opacity="0.51"/>
  <path d="M307.738 221.593H252.976L259.26 266.181H302.351L307.738 221.593Z" fill="#C6E2FA"/>
  <path d="M269.734 226.381H261.355L266.442 265.881H274.222L269.734 226.381Z" fill="white"/>
  <path d="M289.954 113.576L294.086 114.465C294.324 115.081 291.123 118.572 288.672 120.079C282.546 123.845 275.659 121.072 272.577 116.939C270.111 113.633 269.676 108.595 269.766 106.49L272.136 108.775L272.716 108.173L269.7 105.265C273.284 96.03 282.941 92.1089 287.322 91.3028L288.553 95.1989L289.564 95.0129L288.139 91.3172C291.268 88.7625 298.376 89.3232 301.54 89.9229C296.073 94.557 294.492 106.859 294.384 112.431L290.275 111.95L289.954 113.576Z" fill="white"/>
  <path d="M247.29 138.402C255.43 146.542 266.242 143.39 270.631 140.796C278.053 134.811 278.511 123.739 277.813 118.951C275.898 104.827 254.871 94.9119 244.597 91.72V97.4057H243.4V91.72C235.979 88.6078 228.338 90.4232 225.445 91.72C228.138 92.6177 231.729 100.697 233.525 106.383C234.961 110.932 238.313 122.243 239.809 127.33L245.794 125.834V127.33L241.006 128.527C242.203 131.4 245.694 136.308 247.29 138.402Z" fill="#C6E2FA"/>
  <path d="M299.048 165.602C291.127 172.45 283.07 167.801 280.031 164.621C275.177 157.669 276.767 146.706 278.169 142.093C282.189 128.464 300.691 121.711 309.44 120.038L308.435 125.634L309.389 125.806L310.393 120.209C316.855 118.207 322.621 121.086 324.696 122.776C322.392 123.275 318.105 130.714 315.67 136.054C313.722 140.325 309.054 150.98 306.964 155.773L302.46 153.445L302.196 154.917L305.799 156.78C304.338 159.437 300.69 163.768 299.048 165.602Z" fill="#C6E2FA"/>
  <path d="M258.362 232.665H306.242" stroke="#FFFEFF" stroke-width="0.822889"/>
  <path d="M264.048 223.089V185.683C264.447 183.788 264.467 177.185 261.355 175.509M271.23 223.089L270.332 138.103M279.908 224.885V154.562M287.09 226.082V162.342M296.666 226.082V162.342M287.09 139.599C283.998 135.51 277.275 127.21 275.12 126.732" stroke="#CEE0EF" stroke-width="0.822889"/>
  <path d="M249.385 176.706L246.991 180.297C247.29 180.896 252.377 181.015 255.37 180.297C262.851 178.502 265.843 171.619 264.946 166.532C264.227 162.462 260.656 158.652 258.961 157.255V160.547H258.063V156.357C248.248 152.527 238.013 156.756 234.123 159.35L236.218 162.941L235.32 163.539L233.525 159.948C229.216 160.427 224.348 165.933 222.453 168.626C230.113 167.908 240.806 175.31 245.195 179.1L247.889 175.808L249.385 176.706Z" fill="white"/>
  <path d="M228.697 190.288C239.386 215.65 210.053 220.028 194.051 219.047L187.937 195.044C197.07 182.891 218.009 164.926 228.697 190.288Z" fill="#D8E2EF"/>
  <path d="M244.496 9.39087H287.322" stroke="#BFD7F0" stroke-miterlimit="10"/>
  <path d="M253.785 0V9.39091" stroke="#BFD7F0" stroke-miterlimit="10"/>
  <path d="M268.289 20.6178V9.39087" stroke="#BFD7F0" stroke-miterlimit="10"/>
  <path d="M279.619 20.618H219.114" stroke="#BFD7F0" stroke-miterlimit="10"/>
  <path d="M257.184 20.618V31.3852" stroke="#BFD7F0" stroke-miterlimit="10"/>
  <path d="M244.496 31.385H287.322" stroke="#BFD7F0" stroke-miterlimit="10"/>
  <path d="M218.89 138.477C218.052 135.18 218.629 129.321 218.89 126.186L210.27 132.455C210.619 133.239 211.106 135.746 210.27 139.508C209.434 143.269 204.872 145.08 202.695 145.516C202.695 146.733 202.861 148.41 207.25 150.708C211.638 153.007 219.413 147.954 224.986 145.516C219.588 142.12 219.838 142.205 218.89 138.477Z" fill="#EDE8DE" stroke="#01066E" stroke-width="0.5"/>
  <path d="M208.442 134.545C205.307 135.172 202.782 130.104 201.912 127.492L201.128 125.925L200.344 114.954L201.912 111.297C205.394 110.426 212.778 108.685 214.45 108.685C216.122 108.685 217.584 110.426 218.107 111.297C218.281 115.825 218.211 125.507 216.54 128.015C214.45 131.149 212.36 133.761 208.442 134.545Z" fill="#EDE8DE" stroke="#01066E" stroke-width="0.5"/>
  <path fill-rule="evenodd" clip-rule="evenodd" d="M203.967 117.647C203.725 117.881 203.517 118.17 203.404 118.357C203.256 118.605 202.935 118.685 202.688 118.536C202.44 118.388 202.36 118.067 202.509 117.82C202.657 117.572 202.919 117.207 203.239 116.897C203.536 116.61 203.992 116.26 204.524 116.26C204.812 116.26 205.046 116.494 205.046 116.782C205.046 117.071 204.812 117.305 204.524 117.305C204.428 117.305 204.232 117.39 203.967 117.647ZM210.27 117.566C210.27 117.278 210.504 117.044 210.793 117.044H212.621C212.91 117.044 213.144 117.278 213.144 117.566C213.144 117.855 212.91 118.088 212.621 118.088H210.793C210.504 118.088 210.27 117.855 210.27 117.566Z" fill="#0556E2"/>
  <circle cx="211.054" cy="122.007" r="0.783636" fill="#01066E"/>
  <circle cx="204.262" cy="122.007" r="0.783636" fill="#01066E"/>
  <path d="M215.233 110.513C213.353 111.349 212.186 113.473 211.838 114.431H201.389C201.215 118.175 201.128 126.029 202.173 127.492H195.381C195.207 125.837 195.329 122.163 197.21 120.7C199.091 119.238 200.083 115.911 200.344 114.431H198.516C198.516 112.777 198.882 108.685 200.344 105.55C202.173 101.632 208.964 99.0197 215.233 100.848C221.503 102.677 223.331 106.856 223.331 110.513C223.331 114.17 225.421 116.26 227.51 118.872C229.182 120.962 229.252 126.012 229.078 128.275H215.233C215.756 127.666 216.487 126.343 215.233 125.925C213.666 125.402 214.45 123.574 215.233 122.529C216.017 121.484 215.233 119.133 214.45 117.305C213.823 115.842 214.711 112.167 215.233 110.513Z" fill="black"/>
  <path d="M206.722 130.053C206.825 129.742 207.663 129.944 208.068 130.084C208.802 129.429 209.649 129.7 209.864 130.124C210.078 130.548 209.647 131.567 208.45 131.658C207.026 131.765 206.593 130.441 206.722 130.053Z" fill="#F22126"/>
  <path d="M206.847 124.447V120.7C207.887 120.7 206.847 123.406 207.887 124.447C207.921 124.481 207.954 124.514 207.986 124.547C208.671 125.241 208.686 126.228 207.825 126.685C207.534 126.839 207.202 126.945 206.847 126.945C205.848 126.945 206.43 125.28 206.847 124.447Z" fill="#0556E2"/>
  <path d="M239.108 147.956H252.54C255.693 147.956 258.039 150.872 257.362 153.953L244.609 212.025C242.835 220.102 235.587 225.791 227.319 225.594L177.339 224.404" stroke="#01066E" stroke-linecap="round"/>
  <path d="M207.918 215.536V206.946C207.918 202.402 211.602 198.718 216.147 198.718H221.067" stroke="#01066E"/>
  <path d="M167.859 265.991L176.28 238.47M180.396 225.015L176.28 238.47M200.579 225.015L196.501 238.47M188.347 265.38L196.501 238.47M176.28 238.47H196.501M207.612 225.015L211.768 239.082M219.538 265.38L211.768 239.082M230.546 225.933L234.42 239.082M242.166 265.38L234.42 239.082M211.768 239.082H234.42" stroke="#00045F"/>
  <path d="M211.699 191.99H221.678L202.108 184.04C203.331 185.018 204.044 187.097 204.248 188.015H159.603L177.033 202.999L187.43 221.346C194.016 221.346 199.356 216.007 199.356 209.42V204.333C199.356 197.516 204.882 191.99 211.699 191.99Z" fill="#00045F"/>
  <path d="M146.76 195.048L158.629 203.61L165.719 193.519L159.603 188.32C157.564 188.219 153.12 188.076 151.652 188.32C150.185 188.565 149.206 187.607 148.9 187.097C148.187 186.893 146.576 187.097 145.842 189.544C145.108 191.99 146.148 194.232 146.76 195.048Z" fill="#EDE8DE" stroke="#222222" stroke-width="0.5"/>
  <path d="M184.554 183.734H150.146C147.957 183.734 146.029 182.292 145.41 180.192L139.719 160.883C138.798 157.76 141.099 154.618 144.353 154.551L178.733 153.844C180.975 153.798 182.966 155.268 183.582 157.424L189.301 177.44C190.202 180.594 187.834 183.734 184.554 183.734Z" fill="#D8E2EF" stroke="#01066E"/>
  <path d="M202.108 184.039H147.983C147.004 184.039 147.575 185.466 147.983 186.18L150.123 188.32H204.554C204.656 187.913 204.799 186.914 204.554 186.18C204.309 185.446 202.821 184.447 202.108 184.039Z" fill="#D8E2EF"/>
  <path d="M179.785 159.27L185.595 179.147M147.983 184.039H202.108C202.821 184.447 204.309 185.446 204.554 186.18C204.799 186.914 204.656 187.913 204.554 188.32H150.123L147.983 186.18C147.575 185.466 147.004 184.039 147.983 184.039Z" stroke="#01066E" stroke-width="0.822889" stroke-linecap="round"/>
  <path d="M174.836 217.065L167.803 229.603L157.768 226.545L161.381 211.561L174.836 217.065Z" fill="#EDE8DE" stroke="#333333" stroke-width="0.5"/>
  <path d="M166.33 192.296L152.57 209.726L181.62 220.123L196.909 229.297L190.488 215.536H193.546L166.33 192.296Z" fill="#0556E2"/>
  <path d="M161.132 251.925L171.834 230.214L163.884 227.921L155.933 225.627C153.997 233.782 150.001 250.58 149.512 252.537C149.022 254.494 148.492 259.06 148.288 261.099L142.478 265.686L152.875 265.38L158.38 259.57V265.074H160.52L161.132 258.958V251.925Z" fill="#0556E2"/>
  <path d="M202.663 145.204L205.721 149.791L224.986 145.204" stroke="#01066E" stroke-width="0.822889"/>
  <path d="M160.158 168.75C156 164.102 158.426 157.436 160.158 154.684H144.257C138.875 154.684 138.753 157.334 139.365 158.659C140.893 164.163 144.196 176.089 145.175 179.758C146.153 183.428 148.232 183.734 149.15 183.428H161.993C166.274 183.428 165.357 174.56 160.158 168.75Z" fill="#0556E2" fill-opacity="0.15"/>
  <path d="M193.545 178.229C193.443 176.598 192.995 172.48 192.016 171.502C190.793 170.279 189.57 166.303 192.016 163.857C194.463 161.411 195.074 157.741 193.545 155.907C192.322 154.439 192.016 153.256 192.016 152.849C193.036 150.81 195.747 146.61 198.438 146.121C201.129 145.632 200.161 145.204 202.663 145.204C205.483 147.749 209.407 148.68 213.069 147.673L216.729 146.667L224.36 144.759L227.63 144.973C229.861 145.119 231.919 146.256 233.125 148.139C235.609 152.015 238.613 157.351 238.802 160.188C239.047 163.857 238.293 163.755 237.885 163.246C234.929 163.857 227.461 165.848 227.461 167.415C227.461 167.654 227.349 167.927 227.264 168.063C228.295 172.271 230.24 179.55 230.24 182.205V184.345C225.755 183.632 215.624 182.082 210.975 181.593C206.327 181.104 200.681 180.778 198.438 180.37L195.074 178.229H193.545Z" fill="#FCD20A"/>
  <path d="M201.465 184.31L190.793 183.733C190.42 182.051 191.044 180.304 192.399 179.239L192.627 179.06C193.713 178.207 195.234 178.178 196.351 178.991L197.827 180.064C198.846 180.37 201.557 180.981 204.248 180.981C206.939 180.981 222.901 183.224 230.546 184.345C230.546 180.186 228.304 170.992 227.182 166.915C228.161 165.202 234.929 163.755 238.191 163.245C240.026 167.221 239.414 187.097 238.191 193.213C237.212 198.106 229.323 194.742 225.348 193.213L202.709 184.575C202.311 184.422 201.891 184.333 201.465 184.31Z" fill="#EDE8DE" stroke="#01066E" stroke-width="0.5"/>
  <path d="M68.4232 228.425H125.746" stroke="#BFD7F0" stroke-miterlimit="10"/>
  <path d="M57.2759 218.992H98.4351" stroke="#BFD7F0" stroke-miterlimit="10"/>
  <path d="M64.1357 209.989H84.7153" stroke="#BFD7F0" stroke-miterlimit="10"/>
  <path d="M75.7118 209.989L75.7118 218.993" stroke="#BFD7F0" stroke-miterlimit="10"/>
  <path d="M89.4315 219.421L89.4315 228.425" stroke="#BFD7F0" stroke-miterlimit="10"/>
  <path d="M59.9932 38.3408H89.2051M80.8265 42.1904H89.2051M89.2051 46.0401H74.2595M76.071 42.1904H71.0892" stroke="#01066E" stroke-width="0.5" stroke-linecap="round"/>
  <rect x="67.9425" y="33.1561" width="54.7535" height="22.1449" rx="4.68734" stroke="#01066E" stroke-width="0.5"/>
  <path d="M120.292 36.7662C120.292 43.6734 114.693 49.2728 107.786 49.2728C100.878 49.2728 95.279 43.6734 95.279 36.7662C95.279 29.859 100.878 24.2596 107.786 24.2596C114.693 24.2596 120.292 29.859 120.292 36.7662Z" fill="#01066E" stroke="#F2F5F9" stroke-width="0.822889"/>
  <path d="M105.544 44.5556C102.532 45.2726 100.465 46.4079 99.8073 46.886C105.83 51.6184 111.997 49.4554 114.327 47.7823C112.893 45.2726 109.308 43.6593 105.544 44.5556Z" fill="#01066E" stroke="#F2F5F9" stroke-width="0.822889"/>
  <path d="M110.401 46.4465V41.4272L110.939 40.5309C111.118 39.7541 111.513 37.842 111.656 36.4079C111.835 34.6153 111.477 32.6435 109.684 31.7472C107.892 30.8509 104.844 31.9265 104.486 32.285C104.127 32.6435 102.872 36.408 103.052 38.3798C103.231 40.3517 103.948 41.0687 104.844 42.1443C105.74 43.2198 105.203 43.9369 104.844 44.6539C104.486 45.3709 103.948 45.7295 105.74 46.805C107.175 47.6655 109.445 46.9245 110.401 46.4465Z" fill="#F0EDF6"/>
  <path d="M102.46 30.0862C101.886 31.0901 103.177 32.0581 103.894 32.4166C104.709 32.9543 107.479 32.4166 108.734 32.4166C109.989 32.4166 110.168 33.3129 109.63 34.3885C109.093 35.464 109.272 36.0018 110.168 36.5396C111.064 37.0774 110.706 37.0774 110.168 38.87C109.738 40.3041 109.989 41.4991 110.168 41.9174C110.586 41.0809 111.782 38.8341 113.216 36.5396C115.008 33.6714 113.036 30.0862 110.168 29.0106C107.3 27.9351 103.177 28.8314 102.46 30.0862Z" fill="#0461FC"/>
  <path d="M105.866 39.587C106.463 39.5273 107.694 39.3002 107.838 38.87C108.017 38.3322 108.734 41.2004 105.866 39.587Z" fill="#0461FC"/>
  <path d="M105.328 36.1811V38.3322C105.149 38.5115 104.719 38.7624 104.432 38.3322C104.145 37.902 104.91 36.7189 105.328 36.1811Z" fill="#0461FC"/>
  <circle cx="104.468" cy="34.9846" r="0.358538" fill="#0461FC"/>
  <circle cx="108.054" cy="34.9845" r="0.358538" fill="#0461FC"/>
  <rect x="65.6544" y="60.759" width="36.0053" height="25.822" rx="4.93734" fill="#000870"/>
  <rect x="83.7253" y="67.9192" width="14.775" height="8.59225" rx="0.75" stroke="#F2F5F9" stroke-width="0.5"/>
  <path d="M84.0209 68.3963L90.5331 72.9048C90.8807 73.1455 91.3421 73.1415 91.6856 72.8949L98.2048 68.2145" stroke="#F2F5F9" stroke-width="0.5"/>
  <path d="M85.6575 74.2153L88.5671 71.6694" stroke="#F2F5F9" stroke-width="0.5"/>
  <path d="M96.5682 74.2153L93.6587 71.6694" stroke="#F2F5F9" stroke-width="0.5"/>
  <path d="M79.2928 81.1257H84.5663" stroke="#F2F5F9" stroke-width="0.5"/>
  <path d="M88.5669 81.1257H98.2047" stroke="#F2F5F9" stroke-width="0.5"/>
  <path d="M82.0205 83.6714H98.3865" stroke="#F2F5F9" stroke-width="0.5"/>
  <rect x="53.6526" y="48.7573" width="20.7303" height="19.6393" rx="4.93734" fill="#0660FC"/>
  <path d="M59.2573 56.831C59.0889 56.6122 58.775 56.5712 58.5561 56.7396C58.3372 56.9079 58.2963 57.2219 58.4646 57.4407L59.2573 56.831ZM71.4848 53.3655C71.6537 53.147 71.6134 52.833 71.3949 52.6642C71.1764 52.4953 70.8624 52.5356 70.6935 52.7541L71.4848 53.3655ZM58.4646 57.4407L62.3428 62.4824L63.1355 61.8727L59.2573 56.831L58.4646 57.4407ZM64.4382 62.4847L71.4848 53.3655L70.6935 52.7541L63.6469 61.8733L64.4382 62.4847ZM62.3428 62.4824C62.8717 63.1699 63.9079 63.171 64.4382 62.4847L63.6469 61.8733C63.5175 62.0408 63.2645 62.0405 63.1355 61.8727L62.3428 62.4824Z" fill="#FFFEFF"/>
  <path d="M138.345 40.2548H162.285M155.418 43.4097H162.285M162.285 46.5647H150.036M151.521 43.4097H147.438" stroke="#01066E" stroke-width="0.5" stroke-linecap="round"/>
  <rect x="145.066" y="36.2121" width="44.46" height="17.7357" rx="4.52589" stroke="#01066E" stroke-width="0.822889"/>
  <path d="M187.688 38.9642C187.688 44.584 183.133 49.1397 177.513 49.1397C171.893 49.1397 167.337 44.584 167.337 38.9642C167.337 33.3444 171.893 28.7886 177.513 28.7886C183.133 28.7886 187.688 33.3444 187.688 38.9642Z" fill="#01066E" stroke="#F2F5F9" stroke-width="0.822889"/>
  <path d="M175.675 45.3483C173.207 45.936 171.513 46.8664 170.974 47.2582C175.91 51.1367 180.964 49.3639 182.874 47.9928C181.699 45.936 178.76 44.6138 175.675 45.3483Z" fill="#01066E" stroke="#F2F5F9" stroke-width="0.822889"/>
  <path d="M179.656 46.8979V42.7844L180.097 42.0498C180.244 41.4132 180.567 39.8461 180.685 38.6708C180.832 37.2017 180.538 35.5857 179.069 34.8511C177.6 34.1166 175.102 34.998 174.808 35.2919C174.514 35.5857 173.486 38.6708 173.633 40.2869C173.78 41.9029 174.368 42.4906 175.102 43.372C175.837 44.2535 175.396 44.8412 175.102 45.4288C174.808 46.0165 174.368 46.3103 175.837 47.1918C177.012 47.8969 178.873 47.2897 179.656 46.8979Z" fill="#F0EDF6"/>
  <path d="M173.148 33.4898C172.678 34.3126 173.736 35.1059 174.323 35.3997C174.991 35.8404 177.262 35.3997 178.29 35.3997C179.318 35.3997 179.465 36.1343 179.025 37.0158C178.584 37.8973 178.731 38.338 179.465 38.7787C180.2 39.2195 179.906 39.2195 179.465 40.6886C179.113 41.8639 179.318 42.8433 179.465 43.1861C179.808 42.5005 180.788 40.6592 181.963 38.7787C183.432 36.4281 181.816 33.4898 179.465 32.6084C177.115 31.7269 173.736 32.4615 173.148 33.4898Z" fill="#0461FC"/>
  <path d="M175.939 41.2762C176.429 41.2273 177.438 41.0412 177.556 40.6886C177.702 40.2479 178.29 42.5984 175.939 41.2762Z" fill="#0461FC"/>
  <path d="M175.499 38.4849V40.2479C175.352 40.3948 174.999 40.6004 174.764 40.2479C174.529 39.8953 175.156 38.9256 175.499 38.4849Z" fill="#0461FC"/>
  <circle cx="174.794" cy="37.5045" r="0.29384" fill="#0461FC"/>
  <circle cx="177.732" cy="37.5043" r="0.29384" fill="#0461FC"/>
  <rect x="143.17" y="58.8132" width="26.7243" height="18.9297" rx="4.93734" fill="#000870"/>
  <rect x="-0.25" y="0.25" width="12.0186" height="6.95155" rx="0.75" transform="matrix(-1 0 0 1 158.158 61.7827)" stroke="#F2F5F9" stroke-width="0.5"/>
  <path d="M158.211 62.3786L152.978 66.0012C152.63 66.2418 152.169 66.2379 151.826 65.9913L146.586 62.2296" stroke="#F2F5F9" stroke-width="0.5"/>
  <path d="M156.869 67.1476L154.485 65.0612" stroke="#F2F5F9" stroke-width="0.5"/>
  <path d="M147.927 67.1476L150.312 65.0612" stroke="#F2F5F9" stroke-width="0.5"/>
  <path d="M162.085 72.8109H157.763" stroke="#F2F5F9" stroke-width="0.5"/>
  <path d="M154.485 72.8109H146.586" stroke="#F2F5F9" stroke-width="0.5"/>
  <path d="M159.85 74.8973H146.437" stroke="#F2F5F9" stroke-width="0.5"/>
  <rect x="165.069" y="48.7915" width="16.9895" height="16.0953" rx="4.93734" fill="#0660FC"/>
  <path d="M169.99 55.1566C169.712 54.7963 169.196 54.729 168.836 55.0061C168.475 55.2831 168.408 55.7998 168.685 56.16L169.99 55.1566ZM180.01 52.8209C180.288 52.4613 180.222 51.9445 179.862 51.6666C179.502 51.3887 178.986 51.455 178.708 51.8146L180.01 52.8209ZM172.398 59.6375L171.746 60.1393L172.398 59.6375ZM168.685 56.16L171.746 60.1393L173.05 59.1358L169.99 55.1566L168.685 56.16ZM174.353 60.1421L180.01 52.8209L178.708 51.8146L173.05 59.1358L174.353 60.1421ZM171.746 60.1393C172.404 60.9945 173.693 60.9959 174.353 60.1421L173.05 59.1358L173.05 59.1358L171.746 60.1393Z" fill="#FFFEFF"/>
  <path d="M62.8437 139.826H90.3023M82.4266 143.444H90.3023M90.3023 147.063H76.2537M77.9566 143.444H73.2737" stroke="#01066E" stroke-width="0.5" stroke-linecap="round"/>
  <rect x="66.7298" y="134.967" width="51.4371" height="20.7857" rx="4.68734" stroke="#01066E" stroke-width="0.5"/>
  <path d="M115.898 138.346C115.898 144.825 110.646 150.077 104.167 150.077C97.6877 150.077 92.4354 144.825 92.4354 138.346C92.4354 131.867 97.6877 126.615 104.167 126.615C110.646 126.615 115.898 131.867 115.898 138.346Z" fill="#01066E" stroke="#F2F5F9" stroke-width="0.822889"/>
  <path d="M102.059 145.668C99.2285 146.342 97.2851 147.409 96.6673 147.859C102.329 152.307 108.125 150.274 110.316 148.701C108.968 146.342 105.598 144.826 102.059 145.668Z" fill="#01066E" stroke="#F2F5F9" stroke-width="0.822889"/>
  <path d="M106.625 147.445V142.727L107.131 141.885C107.299 141.154 107.67 139.357 107.805 138.009C107.973 136.324 107.636 134.471 105.951 133.628C104.266 132.786 101.402 133.797 101.065 134.134C100.728 134.471 99.5483 138.009 99.7168 139.863C99.8853 141.716 100.559 142.39 101.402 143.401C102.244 144.412 101.739 145.086 101.402 145.76C101.065 146.434 100.559 146.771 102.244 147.782C103.592 148.591 105.727 147.894 106.625 147.445Z" fill="#F0EDF6"/>
  <path d="M99.1607 132.067C98.6215 133.01 99.8347 133.92 100.509 134.257C101.275 134.763 103.879 134.257 105.058 134.257C106.238 134.257 106.406 135.1 105.901 136.111C105.395 137.122 105.564 137.627 106.406 138.133C107.249 138.638 106.912 138.638 106.406 140.323C106.002 141.671 106.238 142.795 106.406 143.188C106.799 142.402 107.923 140.29 109.271 138.133C110.956 135.437 109.102 132.067 106.406 131.056C103.71 130.045 99.8347 130.887 99.1607 132.067Z" fill="#0461FC"/>
  <path d="M102.362 140.997C102.924 140.941 104.081 140.728 104.216 140.323C104.384 139.818 105.058 142.514 102.362 140.997Z" fill="#0461FC"/>
  <path d="M101.857 137.796V139.818C101.688 139.986 101.284 140.222 101.014 139.818C100.745 139.413 101.464 138.301 101.857 137.796Z" fill="#0461FC"/>
  <circle cx="101.048" cy="136.671" r="0.337018" fill="#0461FC"/>
  <circle cx="104.419" cy="136.671" r="0.337018" fill="#0461FC"/>
  <rect width="30.6514" height="21.7114" rx="4.93734" transform="matrix(-1 0 0 1 103.884 159.967)" fill="#000870"/>
  <rect x="86.3703" y="163.623" width="13.8582" height="8.04653" rx="0.75" stroke="#F2F5F9" stroke-width="0.5"/>
  <path d="M86.6056 164.184L92.5179 168.289C92.866 168.531 93.3286 168.527 93.6725 168.279L99.5918 164.017" stroke="#F2F5F9" stroke-width="0.5"/>
  <path d="M88.1715 169.526L90.9064 167.133" stroke="#F2F5F9" stroke-width="0.5"/>
  <path d="M98.4273 169.526L95.6924 167.133" stroke="#F2F5F9" stroke-width="0.5"/>
  <path d="M82.1888 176.021H87.1458" stroke="#F2F5F9" stroke-width="0.5"/>
  <path d="M90.9063 176.021H99.9657" stroke="#F2F5F9" stroke-width="0.5"/>
  <path d="M84.7528 178.415H100.137" stroke="#F2F5F9" stroke-width="0.5"/>
  <rect x="61.8048" y="149.617" width="19.4861" height="18.4605" rx="4.93734" fill="#0660FC"/>
  <path d="M67.3926 158.62C67.2221 158.403 66.9077 158.365 66.6906 158.535C66.4734 158.706 66.4355 159.02 66.6061 159.237L67.3926 158.62ZM77.0045 155.079C77.1735 154.861 77.1336 154.547 76.9152 154.378C76.6969 154.209 76.3829 154.248 76.2138 154.467L77.0045 155.079ZM66.6061 159.237L69.1726 162.506L69.9591 161.889L67.3926 158.62L66.6061 159.237ZM71.259 162.499L77.0045 155.079L76.2138 154.467L70.4684 161.887L71.259 162.499ZM69.1726 162.506C69.7045 163.184 70.7317 163.18 71.259 162.499L70.4684 161.887C70.3396 162.053 70.0889 162.054 69.9591 161.889L69.1726 162.506Z" fill="#FFFEFF"/>
  <path d="M127.475 100.49H151.415M144.549 103.645H151.415M151.415 106.8H139.167M140.652 103.645H136.569" stroke="#01066E" stroke-width="0.5" stroke-linecap="round"/>
  <rect x="130.895" y="96.2858" width="44.7829" height="18.0586" rx="1.75" stroke="#01066E" stroke-width="0.5"/>
  <path d="M173.679 99.1995C173.679 104.819 169.123 109.375 163.504 109.375C157.884 109.375 153.328 104.819 153.328 99.1995C153.328 93.5797 157.884 89.024 163.504 89.024C169.123 89.024 173.679 93.5797 173.679 99.1995Z" fill="#01066E" stroke="#F2F5F9" stroke-width="0.822889"/>
  <path d="M161.666 105.584C159.198 106.171 157.504 107.102 156.965 107.494C161.901 111.372 166.955 109.599 168.865 108.228C167.69 106.171 164.751 104.849 161.666 105.584Z" fill="#01066E" stroke="#F2F5F9" stroke-width="0.822889"/>
  <path d="M165.647 107.133V103.02L166.088 102.285C166.235 101.649 166.558 100.082 166.676 98.9063C166.822 97.4372 166.529 95.8212 165.06 95.0866C163.59 94.352 161.093 95.2335 160.799 95.5273C160.505 95.8212 159.477 98.9063 159.624 100.522C159.771 102.138 160.358 102.726 161.093 103.608C161.827 104.489 161.387 105.077 161.093 105.664C160.799 106.252 160.358 106.546 161.827 107.427C163.003 108.132 164.864 107.525 165.647 107.133Z" fill="#F0EDF6"/>
  <path d="M159.139 93.7252C158.669 94.5479 159.727 95.3412 160.314 95.6351C160.982 96.0758 163.253 95.6351 164.281 95.6351C165.309 95.6351 165.456 96.3697 165.015 97.2511C164.575 98.1326 164.722 98.5733 165.456 99.0141C166.191 99.4548 165.897 99.4548 165.456 100.924C165.104 102.099 165.309 103.079 165.456 103.421C165.799 102.736 166.778 100.895 167.954 99.0141C169.423 96.6635 167.807 93.7252 165.456 92.8437C163.106 91.9623 159.727 92.6968 159.139 93.7252Z" fill="#0461FC"/>
  <path d="M161.93 101.512C162.42 101.463 163.429 101.277 163.546 100.924C163.693 100.483 164.281 102.834 161.93 101.512Z" fill="#0461FC"/>
  <path d="M161.49 98.7203V100.483C161.343 100.63 160.99 100.836 160.755 100.483C160.52 100.131 161.147 99.161 161.49 98.7203Z" fill="#0461FC"/>
  <circle cx="160.785" cy="97.7396" r="0.29384" fill="#0461FC"/>
  <circle cx="163.723" cy="97.7394" r="0.29384" fill="#0461FC"/>
  <rect width="26.7243" height="18.9297" rx="4.93734" transform="matrix(-1 0 0 1 163.257 118.051)" fill="#000870"/>
  <rect x="148.019" y="121.271" width="12.0186" height="6.95155" rx="0.75" stroke="#F2F5F9" stroke-width="0.5"/>
  <path d="M148.192 121.728L153.273 125.255C153.621 125.497 154.084 125.493 154.427 125.245L159.515 121.583" stroke="#F2F5F9" stroke-width="0.5"/>
  <path d="M149.558 126.386L151.942 124.299" stroke="#F2F5F9" stroke-width="0.5"/>
  <path d="M158.499 126.386L156.115 124.299" stroke="#F2F5F9" stroke-width="0.5"/>
  <path d="M144.341 132.049H148.663" stroke="#F2F5F9" stroke-width="0.5"/>
  <path d="M151.942 132.049H159.841" stroke="#F2F5F9" stroke-width="0.5"/>
  <path d="M146.577 134.135H159.99" stroke="#F2F5F9" stroke-width="0.5"/>
  <rect x="126.569" y="109.027" width="16.9895" height="16.0953" rx="4.93734" fill="#0660FC"/>
  <path d="M131.491 116.836C131.321 116.619 131.007 116.581 130.789 116.752C130.572 116.922 130.534 117.237 130.705 117.454L131.491 116.836ZM139.872 113.828C140.041 113.61 140.001 113.296 139.783 113.127C139.564 112.958 139.25 112.998 139.081 113.216L139.872 113.828ZM133.252 119.889L133.646 119.58L133.252 119.889ZM134.55 119.884L134.155 119.578L134.55 119.884ZM130.705 117.454L132.859 120.198L133.646 119.58L131.491 116.836L130.705 117.454ZM134.945 120.191L139.872 113.828L139.081 113.216L134.155 119.578L134.945 120.191ZM132.859 120.198C133.391 120.875 134.418 120.872 134.945 120.191L134.155 119.578C134.026 119.745 133.775 119.745 133.646 119.58L132.859 120.198Z" fill="#FFFEFF"/>
  <path d="M15.1564 257.091V250.297H26.064V257.091H15.1564Z" fill="#D8E2EF"/>
  <path d="M44.2848 250.297V257.091H50.4824V251.081L44.2848 250.297Z" fill="#D8E2EF"/>
  <path d="M15.6092 265.243V256.637H25.8516C27.7273 257.459 32.2273 262.717 34.2429 265.243H15.6092Z" fill="#F22126"/>
  <path d="M43.7448 265.243V260.752C43.7448 258.48 45.5868 256.637 47.8592 256.637H50.2851C52.7532 256.637 57.4836 262.374 59.5403 265.243H43.7448Z" fill="#F22126"/>
  <path d="M15.6092 262.978H31.9791L34.178 265.243H15.6092V262.978Z" fill="#01066E"/>
  <path d="M43.6889 262.978H57.3285L59.5403 265.243H43.6889V262.978Z" fill="#01066E"/>
  <path d="M26.9317 100.544L40.0292 108.089M47.8878 112.616L40.0292 108.089M40.0292 108.089L56.37 99.9348" stroke="black" stroke-width="0.822889"/>
  <path d="M20.3556 157.714C17.6817 152.732 15.8579 144.429 15.2802 140.9L38.8006 136.167L52.294 142.27C51.675 151.86 49.9419 173.606 47.9612 183.868C45.4854 196.697 41.0289 210.148 36.5724 219.862C33.0072 227.634 27.7419 243.692 25.5549 250.75H15.1564C15.4865 239.79 16.32 215.678 17.0133 206.91C17.8798 195.949 24.0694 180.132 25.5549 174.652C27.0404 169.172 23.698 163.941 20.3556 157.714Z" fill="#0556E2"/>
  <path d="M34.7943 147.058L42.8679 145.464M48.6707 144.319L42.8679 145.464M42.8679 145.464C42.7838 154.253 42.3885 172.925 41.4802 177.306C40.3449 182.784 35.1727 198.095 33.4067 202.327C31.6406 206.559 23.6931 232.327 22.4317 237.804C21.4225 242.186 21.0861 248.26 21.044 250.75" stroke="black" stroke-width="0.5"/>
  <path d="M44.2196 251.203H50.8409C51.9403 241.625 51.1324 186.524 50.591 160.17L37.3483 211.173L44.2196 251.203Z" fill="#01066E"/>
  <path d="M50.5043 66.7353L40.5186 81.9369L48.5318 94.5001L51.3672 93.2438C54.6958 82.0625 56.1751 67.866 56.1751 66.2328C56.1751 63.7067 56.5039 63.762 56.7915 63.7202C57.5723 63.762 59.6023 63.896 59.9968 63.092C60.3913 62.2879 59.3393 62.0032 58.764 61.9613C58.312 61.9194 57.5065 61.9864 57.901 61.0819C58.3942 59.9512 62.3391 59.5743 63.6952 58.9461C64.78 58.4436 64.6814 57.8154 64.065 57.8154C62.709 57.8154 58.6407 58.6949 54.9423 60.4537C51.9836 61.8608 52.2302 64.8508 50.5043 66.7353Z" fill="#EDE8DE" stroke="#333333" stroke-width="0.5"/>
  <path d="M17.5619 65.5944C17.4367 68.6679 14.8057 76.5359 14.1792 76.6588C14.1792 77.1506 14.1041 78.1341 13.8034 78.1341C13.4275 78.1341 31.7192 81.3305 29.5893 78.1341C27.8854 75.577 27.543 69.1186 27.5848 66.2091L31.7192 66.9467C32.0533 64.9388 32.1953 59.2508 30.0905 52.563C27.4595 44.2032 22.9492 38.7939 22.5734 38.7939C22.2727 38.7939 18.606 42.4001 16.8102 44.2032C17.1026 50.3091 17.6622 63.1357 17.5619 65.5944Z" fill="#EDE8DE" stroke="#333333" stroke-width="0.5"/>
  <path d="M10.3257 56.9245C13.2925 59.834 13.7046 66.5811 13.5398 69.5909C14.0343 69.5909 19.9679 65.0762 20.8332 61.8155C21.6986 58.5549 19.7207 53.7893 18.2372 51.7828C16.7538 49.7762 18.2372 45.3869 20.8332 47.7697C23.4293 50.1524 22.8112 58.0532 22.8112 60.5614C22.8112 63.0696 22.8112 66.3303 25.5308 68.4622C28.2504 70.5942 33.6897 67.5843 32.7007 67.4589C31.7117 67.3335 30.3519 64.9507 29.4866 63.5712C28.6213 62.1917 27.5087 60.6868 25.5308 60.5614C23.9485 60.4611 24.0473 58.095 24.2946 56.9245C24.583 56.9245 24.9869 55.7708 24.2946 51.1557C23.6023 46.5407 21.9458 44.3836 21.2041 43.882C22.3167 42.7533 26.3961 32.7205 22.8112 30.9648C19.9432 29.5602 18.5669 31.55 18.2372 32.7205C17.7428 30.6722 15.4682 26.7761 10.3257 27.5788C5.18316 28.3814 7.11154 36.3574 8.71855 40.2451C6.24616 39.1164 3.27936 39.8689 2.16679 43.882C1.05421 47.8951 6.61709 53.2877 10.3257 56.9245Z" fill="black"/>
  <path d="M32.5323 52.2339C33.5077 53.7648 31.7647 55.0831 30.7713 55.5509C30.5545 54.0199 28.4232 48.8744 27.3846 46.4929C28.3329 48.6617 31.3131 50.3202 32.5323 52.2339Z" fill="#0556E2"/>
  <path d="M61.7634 114.195C62.2594 109.756 58.1678 103.139 56.06 100.385L42.4214 99.0291L40.0657 108.77L42.4214 112.839L55.1921 122.58C57.1759 121.634 61.2675 118.634 61.7634 114.195Z" fill="#EDE8DE" stroke="black" stroke-width="0.5"/>
  <path d="M35.3159 78.2219C31.0303 76.2351 17.6669 76.8146 11.5209 77.3527C8.28186 79.2153 4.29521 82.1955 2.05279 86.0449C-0.189637 89.8942 3.54773 102.187 4.29521 108.396C5.0427 114.605 4.5444 126.401 2.05279 131.617C0.0594959 135.789 0.640873 141.219 1.18072 143.413C2.09432 142.751 4.6939 141.153 7.7835 140.061C11.6455 138.695 12.7667 139.44 16.7533 141.426C20.7399 143.413 27.3427 141.426 30.208 139.44C33.0734 137.453 36.5617 139.688 37.9321 141.426C39.3024 143.165 44.6594 142.42 49.2689 142.296C52.9565 142.196 55.5395 141.675 56.37 141.426V127.395C56.37 121.434 52.5495 116.385 50.6393 114.605L40.1745 108.396L56.37 99.9523C53.5047 94.4887 40.6728 80.7054 35.3159 78.2219Z" fill="#F22126"/>
  <path d="M167.556 151.792V150.223C167.556 146.587 170.504 143.64 174.139 143.64H175.466C179.102 143.64 182.049 140.692 182.049 137.056V66.8734" stroke="#0556E2" stroke-width="0.5" stroke-linecap="round" stroke-dasharray="3.29 3.29"/>
  <path d="M150.799 151.792V151.792C150.799 148.165 147.859 145.225 144.232 145.225H132.473C128.837 145.225 125.89 148.172 125.89 151.808V157.663C125.89 161.299 122.942 164.246 119.307 164.246H107.774M155.328 151.792V147.505C155.328 143.87 152.381 140.922 148.745 140.922H129.303C125.667 140.922 122.719 137.975 122.719 134.339V81.3823C122.719 77.7466 119.772 74.7992 116.136 74.7992H107.774" stroke="#0556E2" stroke-width="0.5" stroke-dasharray="3.29 3.29"/>
  <path d="M161.895 153.377V139.564L175.029 139.337V119.41H165.065" stroke="#0556E2" stroke-width="0.5" stroke-dasharray="3.29 3.29"/>
</svg>
