<svg width="746" height="626" viewBox="0 0 746 626" fill="none" xmlns="http://www.w3.org/2000/svg">
  <path d="M96.1085 453.288C128.492 477.911 146.76 521.493 160.254 564.091C166.066 582.312 171.256 600.779 177.068 619H540.142C558.618 598.317 577.301 577.88 596.607 558.674C625.877 529.619 662.205 512.875 690.852 481.85C717.631 452.549 739.428 414.384 744.826 371.54C750.223 328.696 736.937 280.928 706.629 256.797C677.982 233.898 640.823 235.129 606.571 230.943C524.573 220.848 446.104 173.079 390.886 99.9493C366.805 67.9396 345.839 30.2665 313.455 11.7994C277.542 -8.63764 233.74 -0.758302 198.865 21.8948C163.99 44.5478 136.381 80.251 111.47 116.939C81.3697 161.014 53.5527 207.551 28.4344 256.059C17.8473 276.496 7.67544 297.671 2.69329 321.063C-2.08127 344.455 -1.04332 370.555 10.1665 390.746C28.8496 424.479 67.4612 431.374 96.1085 453.288Z" fill="#EDF6FF"/>
  <ellipse cx="148" cy="617.5" rx="85" ry="5.5" fill="#B5D7FA" fill-opacity="0.41"/>
  <ellipse cx="443.5" cy="615" rx="135.5" ry="11" fill="#B5D7FA" fill-opacity="0.51"/>
  <path d="M700.808 525.59H585.995L599.17 619.072H689.515L700.808 525.59Z" fill="#C6E2FA"/>
  <path d="M621.129 535.628H603.562L614.227 618.444H630.54L621.129 535.628Z" fill="white"/>
  <path d="M663.524 299.123L672.186 300.986C672.684 302.277 665.973 309.598 660.836 312.756C647.992 320.652 633.551 314.839 627.09 306.174C621.921 299.242 621.007 288.68 621.197 284.266L626.165 289.056L627.381 287.795L621.058 281.698C628.573 262.336 648.82 254.115 658.004 252.425L660.585 260.594L662.705 260.203L659.718 252.455C666.277 247.099 681.181 248.275 687.813 249.532C676.352 259.248 673.037 285.04 672.812 296.722L664.196 295.714L663.524 299.123Z" fill="white"/>
  <path d="M574.074 351.173C591.139 368.238 613.809 361.63 623.011 356.192C638.57 343.644 639.532 320.431 638.069 310.392C634.053 280.779 589.968 259.992 568.427 253.299V265.22H565.918V253.299C550.358 246.774 534.339 250.581 528.274 253.299C533.921 255.181 541.449 272.121 545.214 284.042C548.225 293.578 555.252 317.294 558.389 327.96L570.937 324.823V327.96L560.899 330.469C563.408 336.492 570.728 346.781 574.074 351.173Z" fill="#C6E2FA"/>
  <path d="M682.59 408.199C665.981 422.556 649.089 412.811 642.719 406.143C632.541 391.568 635.875 368.582 638.814 358.911C647.243 330.337 686.035 316.179 704.376 312.671L702.271 324.404L704.27 324.763L706.376 313.03C719.923 308.832 732.012 314.868 736.364 318.411C731.533 319.457 722.543 335.054 717.439 346.249C713.355 355.205 703.568 377.543 699.186 387.592L689.744 382.711L689.19 385.799L696.743 389.704C693.68 395.273 686.032 404.354 682.59 408.199Z" fill="#C6E2FA"/>
  <path d="M597.288 548.803H697.671" stroke="#FFFEFF"/>
  <path d="M609.208 528.726V450.302C610.045 446.328 610.087 432.484 603.562 428.97M624.266 528.726L622.384 350.545M642.46 532.491V385.052M657.518 535V401.365M677.595 535V401.365M657.518 353.682C651.035 345.108 636.939 327.708 632.422 326.704" stroke="#CEE0EF"/>
  <path d="M578.466 431.48L573.447 439.009C574.074 440.263 584.74 440.514 591.014 439.009C606.699 435.244 612.973 420.814 611.09 410.148C609.585 401.616 602.098 393.627 598.542 390.699V397.6H596.66V388.817C576.082 380.786 554.625 389.653 546.468 395.091L550.86 402.62L548.978 403.874L545.214 396.346C536.179 397.349 525.974 408.893 522 414.54C538.061 413.034 560.48 428.552 569.682 436.499L575.329 429.598L578.466 431.48Z" fill="white"/>
  <path d="M535.093 459.956C557.502 513.13 496.004 522.309 462.453 520.252L449.635 469.926C468.784 444.447 512.684 406.782 535.093 459.956Z" fill="#D8E2EF"/>
  <path d="M568.216 80.689H658.005" stroke="#BFD7F0" stroke-width="2" stroke-miterlimit="10"/>
  <path d="M587.691 61V80.6889" stroke="#BFD7F0" stroke-width="2" stroke-miterlimit="10"/>
  <path d="M618.1 104.227V80.689" stroke="#BFD7F0" stroke-width="2" stroke-miterlimit="10"/>
  <path d="M641.854 104.227H515" stroke="#BFD7F0" stroke-width="2" stroke-miterlimit="10"/>
  <path d="M594.817 104.227V126.802" stroke="#BFD7F0" stroke-width="2" stroke-miterlimit="10"/>
  <path d="M568.216 126.801H658.005" stroke="#BFD7F0" stroke-width="2" stroke-miterlimit="10"/>
  <path d="M514.532 351.328C512.775 344.416 513.984 332.131 514.532 325.56L496.459 338.703C497.189 340.346 498.212 345.604 496.459 353.49C494.707 361.376 485.141 365.173 480.577 366.086C480.577 368.639 480.926 372.154 490.126 376.973C499.327 381.792 515.628 371.197 527.311 366.086C515.994 358.966 516.519 359.144 514.532 351.328Z" fill="#EDE8DE" stroke="#01066E"/>
  <path d="M492.626 343.084C486.054 344.399 480.76 333.774 478.934 328.298L477.291 325.012L475.648 302.01L478.934 294.343C486.236 292.518 501.717 288.867 505.222 288.867C508.727 288.867 511.794 292.518 512.889 294.343C513.254 303.836 513.108 324.136 509.603 329.393C505.222 335.965 500.84 341.441 492.626 343.084Z" fill="#EDE8DE" stroke="#01066E"/>
  <path fill-rule="evenodd" clip-rule="evenodd" d="M483.243 307.658C482.736 308.148 482.3 308.753 482.064 309.146C481.753 309.665 481.08 309.833 480.561 309.522C480.043 309.21 479.874 308.538 480.186 308.019C480.498 307.499 481.047 306.734 481.718 306.084C482.339 305.482 483.296 304.749 484.411 304.749C485.016 304.749 485.506 305.239 485.506 305.844C485.506 306.449 485.016 306.939 484.411 306.939C484.211 306.939 483.799 307.118 483.243 307.658ZM496.459 307.487C496.459 306.882 496.95 306.392 497.554 306.392H501.388C501.993 306.392 502.483 306.882 502.483 307.487C502.483 308.092 501.993 308.582 501.388 308.582H497.554C496.95 308.582 496.459 308.092 496.459 307.487Z" fill="#0556E2"/>
  <circle cx="498.102" cy="316.797" r="1.64296" fill="#01066E"/>
  <circle cx="483.863" cy="316.797" r="1.64296" fill="#01066E"/>
  <path d="M506.865 292.7C502.921 294.453 500.475 298.907 499.745 300.915H477.839C477.474 308.765 477.291 325.231 479.482 328.298H465.243C464.878 324.829 465.133 317.126 469.076 314.059C473.02 310.992 475.101 304.018 475.648 300.915H471.815C471.815 297.447 472.581 288.867 475.648 282.295C479.482 274.08 493.721 268.603 506.865 272.437C520.008 276.271 523.842 285.033 523.842 292.7C523.842 300.367 528.223 304.749 532.604 310.225C536.109 314.606 536.255 325.194 535.89 329.941H506.865C507.96 328.663 509.493 325.888 506.865 325.012C503.579 323.917 505.222 320.083 506.865 317.892C508.508 315.702 506.865 310.773 505.222 306.939C503.907 303.872 505.769 296.169 506.865 292.7Z" fill="black"/>
  <path d="M489.019 333.667C489.236 333.016 490.992 333.438 491.842 333.731C493.381 332.359 495.157 332.927 495.607 333.816C496.056 334.706 495.151 336.842 492.643 337.031C489.656 337.257 488.749 334.481 489.019 333.667Z" fill="#F22126"/>
  <path d="M489.281 321.914V314.059C491.463 314.059 489.281 319.732 491.463 321.914C491.918 322.369 492.284 322.754 492.576 323.079C493.37 323.958 493.328 325.105 492.42 325.866C491.611 326.543 490.517 327.151 489.281 327.151C487.186 327.151 488.408 323.659 489.281 321.914Z" fill="#0556E2"/>
  <path d="M556.92 371.203H590.491C594.324 371.203 597.174 374.747 596.352 378.49L565.761 517.787C563.605 527.603 554.797 534.515 544.75 534.276L427.415 531.482" stroke="#01066E" stroke-width="2" stroke-linecap="round"/>
  <path d="M491.526 512.89V487.629C491.526 482.106 496.004 477.629 501.526 477.629H519.094" stroke="#01066E" stroke-width="2"/>
  <path d="M407.54 618.674L425.195 560.973M433.826 532.764L425.195 560.973M476.14 532.764L467.591 560.973M450.495 617.392L467.591 560.973M425.195 560.973H467.591M490.885 532.764L499.599 562.256M515.889 617.392L499.599 562.256M538.969 534.688L547.09 562.256M563.332 617.392L547.09 562.256M499.599 562.256H547.09" stroke="#00045F" stroke-width="2"/>
  <path d="M488.575 463.524H520.377L479.345 446.855C481.91 448.906 483.406 453.266 483.833 455.189H390.23L426.774 486.604L448.572 525.071H458.575C466.859 525.071 473.575 518.355 473.575 510.071V478.524C473.575 470.24 480.291 463.524 488.575 463.524Z" fill="#00045F"/>
  <path d="M363.303 469.935L388.189 487.886L403.053 466.73L390.23 455.831C385.956 455.617 376.638 455.318 373.561 455.831C370.484 456.343 368.432 454.335 367.791 453.266C366.295 452.839 362.918 453.266 361.38 458.395C359.841 463.524 362.021 468.226 363.303 469.935Z" fill="#EDE8DE" stroke="#222222"/>
  <path d="M448.31 446.214H367.148C364.488 446.214 362.145 444.462 361.393 441.91L346.931 392.841C345.813 389.047 348.608 385.227 352.563 385.146L433.691 383.479C436.415 383.423 438.835 385.21 439.584 387.829L454.08 438.565C455.175 442.398 452.297 446.214 448.31 446.214Z" fill="#D8E2EF" stroke="#01066E"/>
  <path d="M479.345 446.855H365.868C363.816 446.855 365.013 449.846 365.868 451.342L370.355 455.83H484.474C484.688 454.975 484.987 452.881 484.474 451.342C483.961 449.804 480.841 447.709 479.345 446.855Z" fill="#D8E2EF"/>
  <path d="M432.544 394.924L444.725 436.597M365.868 446.855H479.345C480.841 447.709 483.961 449.804 484.474 451.342C484.987 452.881 484.688 454.975 484.474 455.83H370.355L365.868 451.342C365.013 449.846 363.816 446.855 365.868 446.855Z" stroke="#01066E" stroke-linecap="round"/>
  <path d="M422.168 516.096L407.422 542.381L386.383 535.97L393.959 504.555L422.168 516.096Z" fill="#EDE8DE" stroke="#333333"/>
  <path d="M404.334 464.165L375.484 500.709L436.39 522.507L468.446 541.74L454.983 512.89H461.394L404.334 464.165Z" fill="#0556E2"/>
  <path d="M393.435 589.183L415.875 543.663L399.205 538.855L382.536 534.047C378.476 551.143 370.099 586.362 369.073 590.465C368.047 594.568 366.936 604.142 366.509 608.416L354.327 618.033L376.125 617.392L387.665 605.211V616.751H392.153L393.435 603.928V589.183Z" fill="#0556E2"/>
  <path d="M480.51 365.433L486.921 375.05L527.311 365.433" stroke="#01066E"/>
  <path d="M391.395 414.799C382.676 405.054 387.762 391.077 391.395 385.307H358.056C346.773 385.307 346.516 390.864 347.799 393.642C351.004 405.182 357.928 430.186 359.98 437.879C362.031 445.572 366.391 446.214 368.314 445.572H395.241C404.217 445.572 402.294 426.98 391.395 414.799Z" fill="#0556E2" fill-opacity="0.15"/>
  <path d="M461.394 434.674C461.18 431.254 460.24 422.621 458.188 420.569C455.624 418.005 453.059 409.67 458.188 404.541C463.317 399.412 464.599 391.719 461.394 387.872C458.829 384.795 458.188 382.316 458.188 381.461C460.325 377.187 466.01 368.382 471.652 367.356C477.293 366.331 475.263 365.433 480.51 365.433C486.422 370.77 494.648 372.722 502.327 370.61L510 368.5L526 364.5L535.964 365.152C538.676 365.33 541.169 366.712 542.673 368.975C548.094 377.134 555.838 390.231 556.279 396.848C556.792 404.541 555.21 404.328 554.356 403.259C548.158 404.541 532.5 408.716 532.5 412C532.5 412.502 532.266 413.075 532.088 413.359C534.25 422.182 538.328 437.443 538.328 443.008V447.496C528.925 446 507.682 442.752 497.937 441.726C488.192 440.7 476.353 440.016 471.652 439.162L464.599 434.674H461.394Z" fill="#FCD20A"/>
  <path d="M455.624 446.213L455.434 445.359C454.766 442.354 455.881 439.234 458.301 437.333L460.345 435.727C462.103 434.345 464.566 434.299 466.375 435.615L470.369 438.52C472.507 439.161 478.191 440.443 483.833 440.443C489.475 440.443 522.941 445.145 538.969 447.496C538.969 438.776 534.268 419.5 531.917 410.952C533.968 407.362 548.158 404.327 554.997 403.259C558.844 411.593 557.561 453.266 554.997 466.088C552.945 476.346 536.405 469.294 528.07 466.088L480.076 447.775C479.592 447.59 479.081 447.481 478.564 447.453L455.624 446.213Z" fill="#EDE8DE" stroke="#01066E"/>
  <path d="M199.064 539.913H319.246" stroke="#BFD7F0" stroke-width="2" stroke-miterlimit="10"/>
  <path d="M175.693 520.137H261.986" stroke="#BFD7F0" stroke-width="2" stroke-miterlimit="10"/>
  <path d="M190.075 501.261H233.222" stroke="#BFD7F0" stroke-width="2" stroke-miterlimit="10"/>
  <path d="M214.345 501.261L214.345 520.138" stroke="#BFD7F0" stroke-width="2" stroke-miterlimit="10"/>
  <path d="M243.11 521.036L243.11 539.913" stroke="#BFD7F0" stroke-width="2" stroke-miterlimit="10"/>
  <path d="M181.39 141.385H242.635M225.069 149.456H242.635M242.635 157.527H211.3M215.098 149.456H204.653" stroke="#01066E" stroke-width="1.5" stroke-linecap="round"/>
  <rect x="198.032" y="130.491" width="114.844" height="46.477" rx="5.5" stroke="#01066E"/>
  <path d="M308.175 138.084C308.175 152.766 296.273 164.668 281.591 164.668C266.909 164.668 255.007 152.766 255.007 138.084C255.007 123.402 266.909 111.5 281.591 111.5C296.273 111.5 308.175 123.402 308.175 138.084Z" fill="#01066E" stroke="#F2F5F9"/>
  <path d="M276.89 154.416C270.576 155.919 266.242 158.299 264.864 159.302C277.492 169.224 290.42 164.689 295.306 161.181C292.299 155.919 284.783 152.537 276.89 154.416Z" fill="#01066E" stroke="#F2F5F9"/>
  <path d="M287.075 158.38V147.857L288.202 145.977C288.578 144.349 289.405 140.34 289.706 137.333C290.081 133.575 289.33 129.441 285.571 127.561C281.813 125.682 275.424 127.937 274.672 128.689C273.921 129.441 271.29 137.333 271.665 141.467C272.041 145.602 273.545 147.105 275.424 149.36C277.303 151.615 276.176 153.118 275.424 154.622C274.672 156.125 273.545 156.877 277.303 159.132C280.31 160.936 285.07 159.382 287.075 158.38Z" fill="#F0EDF6"/>
  <path d="M270.425 124.079C269.222 126.184 271.928 128.213 273.432 128.965C275.14 130.092 280.949 128.965 283.579 128.965C286.21 128.965 286.586 130.844 285.459 133.099C284.331 135.354 284.707 136.482 286.586 137.609C288.465 138.737 287.714 138.737 286.586 142.495C285.684 145.502 286.21 148.007 286.586 148.884C287.463 147.13 289.969 142.42 292.975 137.609C296.734 131.596 292.599 124.079 286.586 121.824C280.573 119.569 271.928 121.448 270.425 124.079Z" fill="#0461FC"/>
  <path d="M277.566 143.998C278.819 143.873 281.4 143.397 281.7 142.495C282.076 141.368 283.579 147.381 277.566 143.998Z" fill="#0461FC"/>
  <path d="M276.439 136.858V141.368C276.063 141.743 275.161 142.27 274.559 141.368C273.958 140.466 275.562 137.985 276.439 136.858Z" fill="#0461FC"/>
  <circle cx="274.636" cy="134.349" r="0.751707" fill="#0461FC"/>
  <circle cx="282.153" cy="134.349" r="0.751707" fill="#0461FC"/>
  <rect x="193.259" y="188.387" width="75.4883" height="54.1381" rx="6" fill="#000870"/>
  <rect x="231.122" y="203.375" width="31.0254" height="18.0627" rx="3.5" stroke="#F2F5F9"/>
  <path d="M231.766 204.4L243.157 212.286C245.242 213.73 248.01 213.706 250.071 212.227L261.504 204.019" stroke="#F2F5F9"/>
  <path d="M235.197 216.6L241.297 211.262" stroke="#F2F5F9"/>
  <path d="M258.072 216.6L251.972 211.262" stroke="#F2F5F9"/>
  <path d="M221.853 231.088H232.909" stroke="#F2F5F9"/>
  <path d="M241.297 231.088H261.504" stroke="#F2F5F9"/>
  <path d="M227.572 236.425H261.885" stroke="#F2F5F9"/>
  <rect x="168.096" y="163.225" width="43.463" height="41.1755" rx="6" fill="#0660FC"/>
  <path d="M179.808 180.181C179.472 179.744 178.844 179.662 178.406 179.998C177.968 180.335 177.887 180.963 178.223 181.401L179.808 180.181ZM205.445 172.857C205.782 172.42 205.702 171.792 205.265 171.454C204.828 171.116 204.2 171.197 203.862 171.634L205.445 172.857ZM187.72 192.107L186.928 192.717L187.72 192.107ZM178.223 181.401L186.928 192.717L188.513 191.497L179.808 180.181L178.223 181.401ZM190.096 192.72L205.445 172.857L203.862 171.634L188.513 191.497L190.096 192.72ZM186.928 192.717C187.727 193.756 189.294 193.758 190.096 192.72L188.513 191.497H188.513L186.928 192.717Z" fill="#FFFEFF"/>
  <path d="M345.66 145.398H395.854M381.457 152.012H395.854M395.854 158.627H370.173M373.286 152.012H364.726" stroke="#01066E" stroke-width="1.5" stroke-linecap="round"/>
  <rect x="359.389" y="136.559" width="93.9397" height="37.9097" rx="5.5" stroke="#01066E"/>
  <path d="M449.476 142.692C449.476 154.675 439.763 164.388 427.78 164.388C415.797 164.388 406.083 154.675 406.083 142.692C406.083 130.709 415.797 120.995 427.78 120.995C439.763 120.995 449.476 130.709 449.476 142.692Z" fill="#01066E" stroke="#F2F5F9"/>
  <path d="M423.927 156.077C418.753 157.309 415.2 159.26 414.071 160.081C424.42 168.212 435.016 164.496 439.02 161.621C436.556 157.309 430.396 154.537 423.927 156.077Z" fill="#01066E" stroke="#F2F5F9"/>
  <path d="M432.274 159.326V150.701L433.198 149.161C433.506 147.826 434.184 144.541 434.43 142.077C434.738 138.996 434.122 135.608 431.042 134.068C427.962 132.528 422.726 134.376 422.11 134.992C421.494 135.608 419.337 142.077 419.645 145.465C419.953 148.853 421.186 150.085 422.726 151.933C424.266 153.781 423.342 155.013 422.726 156.245C422.11 157.477 421.186 158.093 424.266 159.942C426.73 161.42 430.631 160.147 432.274 159.326Z" fill="#F0EDF6"/>
  <path d="M418.629 131.214C417.643 132.939 419.861 134.602 421.093 135.218C422.493 136.142 427.253 135.218 429.409 135.218C431.566 135.218 431.874 136.759 430.95 138.607C430.026 140.455 430.334 141.379 431.874 142.303C433.414 143.227 432.798 143.227 431.874 146.307C431.134 148.771 431.566 150.825 431.874 151.543C432.592 150.106 434.646 146.245 437.11 142.303C440.19 137.375 436.802 131.214 431.874 129.366C426.945 127.518 419.861 129.058 418.629 131.214Z" fill="#0461FC"/>
  <path d="M424.481 147.539C425.508 147.436 427.623 147.046 427.869 146.307C428.177 145.383 429.409 150.311 424.481 147.539Z" fill="#0461FC"/>
  <path d="M423.557 141.687V145.383C423.249 145.691 422.51 146.122 422.017 145.383C421.524 144.644 422.839 142.611 423.557 141.687Z" fill="#0461FC"/>
  <circle cx="422.08" cy="139.631" r="0.616061" fill="#0461FC"/>
  <circle cx="428.24" cy="139.631" r="0.616061" fill="#0461FC"/>
  <rect x="355.777" y="184.307" width="56.03" height="39.6879" rx="6" fill="#000870"/>
  <rect x="-0.5" y="0.5" width="25.2463" height="14.6228" rx="3.5" transform="matrix(-1 0 0 1 387.248 190.533)" stroke="#F2F5F9"/>
  <path d="M387.311 191.782L378.603 197.811C376.518 199.255 373.749 199.231 371.689 197.752L362.939 191.47" stroke="#F2F5F9"/>
  <path d="M384.499 201.781L379.5 197.407" stroke="#F2F5F9"/>
  <path d="M365.752 201.781L370.751 197.407" stroke="#F2F5F9"/>
  <path d="M395.435 213.655H386.374" stroke="#F2F5F9"/>
  <path d="M379.5 213.655H362.939" stroke="#F2F5F9"/>
  <path d="M390.748 218.029H362.627" stroke="#F2F5F9"/>
  <rect x="401.69" y="163.296" width="35.62" height="33.7453" rx="6" fill="#0660FC"/>
  <path d="M411.432 177.083C411.095 176.645 410.467 176.563 410.03 176.9C409.592 177.237 409.51 177.865 409.847 178.302L411.432 177.083ZM432.442 171.3C432.779 170.863 432.699 170.235 432.262 169.898C431.825 169.56 431.197 169.641 430.859 170.078L432.442 171.3ZM417.63 186.781L416.838 187.391L417.63 186.781ZM409.847 178.302L416.838 187.391L418.423 186.171L411.432 177.083L409.847 178.302ZM420.006 187.394L432.442 171.3L430.859 170.078L418.423 186.171L420.006 187.394ZM416.838 187.391C417.637 188.43 419.204 188.432 420.006 187.394L418.423 186.171H418.423L416.838 187.391Z" fill="#FFFEFF"/>
  <path d="M187.366 354.157H244.935M228.423 361.744H244.935M244.935 369.331H215.481M219.051 361.744H209.233" stroke="#01066E" stroke-width="1.5" stroke-linecap="round"/>
  <rect x="195.489" y="343.947" width="107.891" height="43.6274" rx="5.5" stroke="#01066E"/>
  <path d="M298.962 351.054C298.962 364.838 287.787 376.013 274.003 376.013C260.219 376.013 249.045 364.838 249.045 351.054C249.045 337.27 260.219 326.096 274.003 326.096C287.787 326.096 298.962 337.27 298.962 351.054Z" fill="#01066E" stroke="#F2F5F9"/>
  <path d="M269.585 366.406C263.65 367.819 259.575 370.056 258.28 370.998C270.15 380.325 282.303 376.062 286.895 372.765C284.069 367.819 277.004 364.639 269.585 366.406Z" fill="#01066E" stroke="#F2F5F9"/>
  <path d="M279.158 370.132V360.24L280.218 358.474C280.571 356.943 281.348 353.175 281.631 350.349C281.984 346.816 281.278 342.93 277.745 341.163C274.212 339.397 268.206 341.517 267.5 342.223C266.793 342.93 264.32 350.349 264.674 354.235C265.027 358.121 266.44 359.534 268.206 361.653C269.973 363.773 268.913 365.186 268.206 366.599C267.5 368.012 266.44 368.719 269.973 370.839C272.799 372.534 277.274 371.074 279.158 370.132Z" fill="#F0EDF6"/>
  <path d="M263.508 337.89C262.377 339.868 264.921 341.776 266.334 342.482C267.94 343.542 273.399 342.482 275.872 342.482C278.345 342.482 278.699 344.249 277.639 346.369C276.579 348.488 276.932 349.548 278.699 350.608C280.465 351.668 279.758 351.668 278.699 355.2C277.851 358.027 278.345 360.382 278.699 361.206C279.523 359.558 281.878 355.13 284.704 350.608C288.237 344.955 284.351 337.89 278.699 335.77C273.046 333.651 264.921 335.417 263.508 337.89Z" fill="#0461FC"/>
  <path d="M270.22 356.614C271.398 356.496 273.823 356.048 274.106 355.2C274.459 354.141 275.872 359.793 270.22 356.614Z" fill="#0461FC"/>
  <path d="M269.16 349.901V354.141C268.807 354.494 267.959 354.989 267.394 354.141C266.829 353.293 268.336 350.961 269.16 349.901Z" fill="#0461FC"/>
  <circle cx="267.466" cy="347.543" r="0.706589" fill="#0461FC"/>
  <circle cx="274.532" cy="347.543" r="0.706589" fill="#0461FC"/>
  <rect width="64.2634" height="45.5199" rx="6" transform="matrix(-1 0 0 1 273.411 396.386)" fill="#000870"/>
  <rect x="236.667" y="404.026" width="29.1032" height="16.9186" rx="3.5" stroke="#F2F5F9"/>
  <path d="M237.185 405.228L247.313 412.26C249.402 413.71 252.178 413.686 254.241 412.2L264.412 404.877" stroke="#F2F5F9"/>
  <path d="M240.468 416.428L246.202 411.411" stroke="#F2F5F9"/>
  <path d="M261.97 416.428L256.236 411.411" stroke="#F2F5F9"/>
  <path d="M227.925 430.046H238.317" stroke="#F2F5F9"/>
  <path d="M246.202 430.046H265.195" stroke="#F2F5F9"/>
  <path d="M233.3 435.063H265.554" stroke="#F2F5F9"/>
  <rect x="185.188" y="374.686" width="40.8543" height="38.7041" rx="6" fill="#0660FC"/>
  <path d="M196.865 393.59C196.524 393.156 195.895 393.08 195.461 393.421C195.027 393.762 194.951 394.391 195.292 394.825L196.865 393.59ZM217.017 386.107C217.355 385.67 217.275 385.042 216.839 384.704C216.402 384.366 215.774 384.446 215.436 384.883L217.017 386.107ZM202.034 401.793L202.82 401.175L202.034 401.793ZM203.611 401.787L202.82 401.175L203.611 401.787ZM195.292 394.825L201.247 402.41L202.82 401.175L196.865 393.59L195.292 394.825ZM204.402 402.399L217.017 386.107L215.436 384.883L202.82 401.175L204.402 402.399ZM201.247 402.41C202.052 403.434 203.605 403.429 204.402 402.399L202.82 401.175L202.82 401.175L201.247 402.41Z" fill="#FFFEFF"/>
  <path d="M322.871 271.686H373.065M358.668 278.301H373.065M373.065 284.916H347.384M350.497 278.301H341.937" stroke="#01066E" stroke-width="1.5" stroke-linecap="round"/>
  <rect x="330.018" y="262.848" width="93.9397" height="37.9097" rx="5.5" stroke="#01066E"/>
  <path d="M420.105 268.981C420.105 280.963 410.391 290.677 398.408 290.677C386.426 290.677 376.712 280.963 376.712 268.981C376.712 256.998 386.426 247.284 398.408 247.284C410.391 247.284 420.105 256.998 420.105 268.981Z" fill="#01066E" stroke="#F2F5F9"/>
  <path d="M394.556 282.366C389.381 283.598 385.829 285.548 384.7 286.37C395.049 294.501 405.645 290.785 409.649 287.91C407.185 283.598 401.024 280.826 394.556 282.366Z" fill="#01066E" stroke="#F2F5F9"/>
  <path d="M402.903 285.614V276.99L403.827 275.45C404.135 274.115 404.812 270.83 405.059 268.366C405.367 265.285 404.751 261.897 401.671 260.357C398.59 258.817 393.354 260.665 392.738 261.281C392.122 261.897 389.966 268.366 390.274 271.754C390.582 275.142 391.814 276.374 393.354 278.222C394.894 280.07 393.97 281.302 393.354 282.534C392.738 283.766 391.814 284.382 394.894 286.23C397.358 287.709 401.26 286.436 402.903 285.614Z" fill="#F0EDF6"/>
  <path d="M389.258 257.503C388.272 259.228 390.49 260.891 391.722 261.507C393.122 262.431 397.882 261.507 400.038 261.507C402.194 261.507 402.502 263.048 401.578 264.896C400.654 266.744 400.962 267.668 402.502 268.592C404.042 269.516 403.426 269.516 402.502 272.596C401.763 275.06 402.194 277.114 402.502 277.832C403.221 276.395 405.274 272.534 407.738 268.592C410.819 263.664 407.43 257.503 402.502 255.655C397.574 253.807 390.49 255.347 389.258 257.503Z" fill="#0461FC"/>
  <path d="M395.11 273.828C396.137 273.725 398.252 273.335 398.498 272.596C398.806 271.672 400.038 276.6 395.11 273.828Z" fill="#0461FC"/>
  <path d="M394.186 267.976V271.672C393.878 271.98 393.139 272.411 392.646 271.672C392.153 270.933 393.467 268.9 394.186 267.976Z" fill="#0461FC"/>
  <circle cx="392.708" cy="265.92" r="0.616061" fill="#0461FC"/>
  <circle cx="398.869" cy="265.92" r="0.616061" fill="#0461FC"/>
  <rect width="56.03" height="39.6879" rx="6" transform="matrix(-1 0 0 1 397.892 308.504)" fill="#000870"/>
  <rect x="365.92" y="315.23" width="25.2463" height="14.6228" rx="3.5" stroke="#F2F5F9"/>
  <path d="M366.307 316.213L374.692 322.034C376.78 323.484 379.556 323.461 381.619 321.975L390.046 315.908" stroke="#F2F5F9"/>
  <path d="M369.17 325.978L374.169 321.604" stroke="#F2F5F9"/>
  <path d="M387.917 325.978L382.918 321.604" stroke="#F2F5F9"/>
  <path d="M358.233 337.852H367.295" stroke="#F2F5F9"/>
  <path d="M374.169 337.852H390.729" stroke="#F2F5F9"/>
  <path d="M362.92 342.226H391.041" stroke="#F2F5F9"/>
  <rect x="320.972" y="289.585" width="35.62" height="33.7453" rx="6" fill="#0660FC"/>
  <path d="M331.254 305.988C330.913 305.553 330.284 305.478 329.85 305.819C329.415 306.16 329.34 306.788 329.681 307.223L331.254 305.988ZM348.825 299.621C349.163 299.185 349.083 298.556 348.646 298.218C348.209 297.88 347.581 297.96 347.243 298.397L348.825 299.621ZM335.558 313.089L334.772 313.707L335.558 313.089ZM337.135 313.084L336.345 312.472L337.135 313.084ZM329.681 307.223L334.772 313.707L336.345 312.472L331.254 305.988L329.681 307.223ZM337.926 313.696L348.825 299.621L347.243 298.397L336.345 312.472L337.926 313.696ZM334.772 313.707C335.576 314.731 337.129 314.726 337.926 313.696L336.345 312.472L336.345 312.472L334.772 313.707Z" fill="#FFFEFF"/>
  <path d="M87.3853 600.013V585.77H110.254V600.013H87.3853Z" fill="#D8E2EF"/>
  <path d="M148.456 585.77V600.013H161.449V587.413L148.456 585.77Z" fill="#D8E2EF"/>
  <path d="M88.3348 617.104V599.063H109.809C113.741 600.787 123.176 611.809 127.402 617.104H88.3348Z" fill="#F22126"/>
  <path d="M147.324 617.104V604.063C147.324 601.302 149.561 599.063 152.323 599.063H161.036C166.21 599.063 176.128 611.091 180.44 617.104H147.324Z" fill="#F22126"/>
  <path d="M88.3348 612.357H122.656L127.266 617.105H88.3348V612.357Z" fill="#01066E"/>
  <path d="M147.206 612.357H175.803L180.44 617.105H147.206V612.357Z" fill="#01066E"/>
  <path d="M112.073 271.801L139.533 287.619M156.01 297.11L139.533 287.619M139.533 287.619L173.793 270.523" stroke="black"/>
  <path d="M98.286 391.66C92.6799 381.215 88.856 363.807 87.6448 356.409L136.958 346.486L165.247 359.281C163.95 379.387 160.316 424.98 156.164 446.496C150.973 473.392 141.629 501.593 132.286 521.961C124.811 538.255 113.772 571.922 109.187 586.719H87.3853C88.0774 563.74 89.8249 513.187 91.2784 494.804C93.0952 471.825 106.072 438.662 109.187 427.173C112.301 415.684 105.294 404.716 98.286 391.66Z" fill="#0556E2"/>
  <path d="M128.558 369.319L145.485 365.978M157.651 363.577L145.485 365.978M145.485 365.978C145.309 384.404 144.48 423.552 142.576 432.738C140.195 444.222 129.351 476.323 125.649 485.196C121.946 494.07 105.283 548.093 102.639 559.577C100.523 568.763 99.8174 581.499 99.7292 586.719" stroke="black"/>
  <path d="M148.319 587.669H162.201C164.506 567.589 162.812 452.064 161.677 396.811L133.913 503.744L148.319 587.669Z" fill="#01066E"/>
  <path d="M161.495 200.917L140.559 232.788L157.36 259.128L163.305 256.494C170.283 233.052 173.385 203.287 173.385 199.863C173.385 194.567 174.074 194.683 174.677 194.595C176.314 194.683 180.57 194.964 181.397 193.278C182.224 191.592 180.019 190.995 178.813 190.908C177.865 190.82 176.176 190.96 177.003 189.064C178.037 186.693 186.308 185.903 189.151 184.586C191.426 183.532 191.219 182.215 189.927 182.215C187.083 182.215 178.554 184.059 170.8 187.747C164.597 190.697 165.114 196.966 161.495 200.917Z" fill="#EDE8DE" stroke="#333333"/>
  <path d="M92.4288 198.524C92.1661 204.968 86.65 221.464 85.3366 221.722C85.3366 222.753 85.179 224.815 84.5486 224.815C83.7606 224.815 122.111 231.516 117.645 224.815C114.073 219.454 113.355 205.913 113.442 199.813L122.111 201.36C122.811 197.15 123.109 185.224 118.696 171.203C113.18 153.676 103.724 142.335 102.936 142.335C102.305 142.335 94.6177 149.896 90.8527 153.676C91.4656 166.477 92.6389 193.369 92.4288 198.524Z" fill="#EDE8DE" stroke="#333333"/>
  <path d="M77.2572 180.347C83.4775 186.447 84.3415 200.593 83.9959 206.903C85.0327 206.903 97.4731 197.438 99.2873 190.602C101.102 183.765 96.9547 173.774 93.8445 169.567C90.7344 165.36 93.8445 156.158 99.2873 161.153C104.73 166.149 103.434 182.714 103.434 187.972C103.434 193.231 103.434 200.067 109.136 204.537C114.838 209.007 126.242 202.697 124.168 202.434C122.095 202.171 119.244 197.175 117.43 194.283C115.616 191.391 113.283 188.235 109.136 187.972C105.819 187.762 106.026 182.801 106.544 180.347C107.149 180.347 107.996 177.928 106.544 168.253C105.093 158.577 101.62 154.054 100.065 153.002C102.397 150.636 110.95 129.602 103.434 125.92C97.4212 122.976 94.5357 127.147 93.8445 129.602C92.8078 125.307 88.039 117.139 77.2572 118.821C66.4755 120.504 70.5185 137.227 73.8878 145.377C68.7042 143.011 62.484 144.589 60.1514 153.002C57.8466 161.316 69.2057 172.453 76.9775 180.073L77.2572 180.347Z" fill="black"/>
  <path d="M123.816 170.513C125.86 173.723 122.206 176.487 120.123 177.468C119.669 174.258 115.2 163.47 113.023 158.477C115.011 163.024 121.259 166.501 123.816 170.513Z" fill="#0556E2"/>
  <path d="M185.101 300.421C186.141 291.114 177.563 277.241 173.143 271.467L144.549 268.624L139.61 289.046L144.549 297.577L171.324 318C175.483 316.018 184.061 309.727 185.101 300.421Z" fill="#EDE8DE" stroke="black"/>
  <path d="M129.651 224.999C120.666 220.834 92.6488 222.049 79.7632 223.177C72.9722 227.082 64.6139 233.33 59.9124 241.401C55.211 249.471 63.0467 275.245 64.6139 288.262C66.181 301.279 65.1363 326.012 59.9124 336.946C55.7333 345.694 56.9522 357.079 58.0841 361.678C59.9995 360.29 65.4497 356.94 71.9274 354.649C80.0244 351.786 82.3752 353.348 90.7334 357.513C99.0916 361.678 112.935 357.513 118.942 353.348C124.95 349.182 132.263 353.868 135.136 357.513C138.01 361.158 149.241 359.596 158.905 359.335C166.637 359.127 172.052 358.034 173.793 357.513V328.094C173.793 315.598 165.783 305.011 161.778 301.279L139.838 288.262L173.793 270.559C167.786 259.104 140.883 230.206 129.651 224.999Z" fill="#F22126"/>
  <path d="M406.905 379.245V370.153C406.905 365.735 410.487 362.153 414.905 362.153H429.291C433.709 362.153 437.291 358.572 437.291 354.153V201.206" stroke="#0556E2" stroke-linecap="round" stroke-dasharray="4 4"/>
  <path d="M371.772 379.245V373.477C371.772 369.058 368.191 365.477 363.772 365.477H327.548C323.129 365.477 319.548 369.058 319.548 373.477V397.357C319.548 401.776 315.966 405.357 311.548 405.357H281.566M381.268 379.245V364.456C381.268 360.038 377.686 356.456 373.268 356.456H320.901C316.483 356.456 312.901 352.874 312.901 348.456V225.823C312.901 221.405 309.319 217.823 304.901 217.823H281.566" stroke="#0556E2" stroke-dasharray="4 4"/>
  <path d="M395.036 382.568V353.607L422.573 353.133V311.353H401.683" stroke="#0556E2" stroke-dasharray="4 4"/>
</svg>
