<svg width="166" height="78" viewBox="0 0 166 78" fill="none" xmlns="http://www.w3.org/2000/svg">
  <path d="M0 2.17554V16.1958H19.0275V74.1128H36.3859V2.17554H0Z" fill="#0660FC"/>
  <path d="M126.516 76.7833C147.441 76.7833 164.404 59.8203 164.404 38.8953C164.404 17.9703 147.441 1.0072 126.516 1.0072C105.591 1.0072 88.6281 17.9703 88.6281 38.8953C88.6281 59.8203 105.591 76.7833 126.516 76.7833Z" stroke="#333333" stroke-width="1.6" stroke-miterlimit="10"/>
  <path d="M95.4712 38.8954C95.4712 55.753 109.158 69.4395 126.015 69.4395V8.3512C109.158 8.3512 95.4712 22.0377 95.4712 38.8954Z" fill="#0660FC"/>
  <path d="M59.586 2.17554H42.0607V16.1958H59.586V2.17554Z" fill="#0660FC"/>
  <path d="M81.9518 2.17554H63.9258V73.1114H81.9518V2.17554Z" fill="#333333"/>
</svg>
