<svg width="680" height="795" viewBox="0 0 680 795" fill="none" xmlns="http://www.w3.org/2000/svg">
  <path d="M384.803 386.355L400.427 397.422L395.391 406.159L390.354 414.897L372.948 406.913C369.556 410.648 365.65 413.937 361.367 416.644L366.198 435.181L356.707 438.641L347.216 442.102L339.027 424.799C336.56 425.141 334.025 425.313 331.489 425.313C328.919 425.313 326.418 425.141 323.917 424.799L315.728 442.102L306.237 438.641L296.746 435.181L301.577 416.644C297.294 413.937 293.388 410.648 289.996 406.913L272.59 414.897L267.553 406.159L262.517 397.422L278.141 386.355C276.633 381.627 275.742 376.658 275.537 371.485L257.069 366.414L258.816 356.477L260.564 346.541L279.648 348.083C281.567 343.354 284.137 338.969 287.221 334.994L276.325 319.233L284.068 312.757L291.812 306.281L305.415 319.747C309.835 317.417 314.597 315.669 319.634 314.573L321.416 295.522H331.489H341.563L343.344 314.573C348.347 315.669 353.144 317.417 357.564 319.747L371.166 306.281L378.91 312.757L386.653 319.233L375.758 334.994C378.841 338.969 381.377 343.354 383.33 348.083L402.415 346.541L404.162 356.477L405.91 366.414L387.441 371.485C387.202 376.624 386.311 381.627 384.803 386.355ZM331.455 388.479C342.076 388.479 350.677 379.879 350.677 369.258C350.677 358.636 342.076 350.036 331.455 350.036C320.833 350.036 312.233 358.636 312.233 369.258C312.233 379.879 320.833 388.479 331.455 388.479Z" fill="#B3D8F8"/>
  <path d="M202.2 487.49L212.231 494.614L208.985 500.241L205.738 505.869L194.538 500.729C192.363 503.137 189.863 505.251 187.104 506.975L190.221 518.914L184.117 521.126L178.014 523.338L172.755 512.18C171.164 512.408 169.541 512.505 167.885 512.505C166.229 512.505 164.606 512.408 163.015 512.18L157.756 523.338L151.653 521.126L145.549 518.914L148.666 506.975C145.907 505.219 143.407 503.137 141.232 500.729L130.032 505.869L126.785 500.241L123.539 494.614L133.57 487.49C132.596 484.464 132.012 481.244 131.882 477.893L120 474.64L121.136 468.232L122.272 461.823L134.544 462.832C135.778 459.806 137.433 456.976 139.414 454.406L132.401 444.257L137.368 440.093L142.336 435.929L151.101 444.582C153.958 443.086 157.009 441.947 160.223 441.264L161.36 429H167.853H174.345L175.482 441.264C178.696 441.947 181.78 443.086 184.604 444.582L193.369 435.929L198.337 440.093L203.304 444.257L196.291 454.406C198.272 456.976 199.927 459.806 201.161 462.832L213.433 461.823L214.569 468.232L215.705 474.64L203.823 477.893C203.758 481.211 203.174 484.432 202.2 487.49ZM167.917 488.856C174.735 488.856 180.286 483.326 180.286 476.462C180.286 469.63 174.767 464.068 167.917 464.068C161.067 464.068 155.548 469.598 155.548 476.462C155.548 483.326 161.1 488.856 167.917 488.856Z" fill="#B3D8F8"/>
  <path d="M186.718 426.26C136.661 437.616 30.9841 480.359 24.103 556.454C19.0601 612.221 61.4147 641.972 65.5028 641.363" stroke="#0461FC" stroke-linecap="square" stroke-dasharray="10 10"/>
  <path d="M74.9469 662.536L71.733 673.21L148.372 665.23L77.0092 640.129L79.2755 657.083L74.9469 662.536Z" fill="#BCD8EF"/>
  <path d="M148.372 665.23L88.4582 630.354L77.0093 640.129L132.69 659.422L66.5588 648.647L45.4254 664.358L148.372 665.23Z" fill="#0461FC"/>
  <path d="M359.164 142.892C390.302 134.895 455.629 106.676 458.281 60.5445C460.224 26.7374 433.018 9.72267 430.468 10.1835" stroke="#0461FC" stroke-linecap="square" stroke-dasharray="10 10"/>
  <path d="M216.643 179C231.034 167.276 255.229 133.638 236.88 92.8762C213.944 41.9234 159.528 91.5235 201.352 124.891C234.811 151.585 271.059 155.853 285 154.651" stroke="#0461FC" stroke-dasharray="10 10"/>
  <path d="M469.011 257.643C471.287 274.483 470.818 283.473 473.906 289.648L514.859 335.446C516.249 335.446 522.362 331.186 535.699 314.143C549.037 297.1 543.109 284.195 538.478 279.872L502.818 237.266C490.005 221.983 464.102 190.954 462.99 189.102C461.601 186.786 461.601 178.45 461.601 177.061C461.601 175.949 461.292 175.363 461.138 175.208L450.486 166.409C450.332 161.315 450.023 150.663 450.023 148.811C450.023 146.495 450.023 144.179 448.171 143.716C446.689 143.346 446.009 144.488 445.855 145.106L444.003 165.02L437.982 152.979C437.21 150.354 435.203 145.106 433.351 145.106C431.499 145.106 431.962 147.884 432.425 149.274C433.351 152.207 435.389 158.536 436.13 160.388C436.871 162.241 436.747 165.936 436.593 167.551C434.924 167.457 434.062 168.23 433.814 168.725C433.814 170.423 433.721 174.56 433.351 177.524C432.888 181.229 434.74 183.081 437.519 184.47C440.298 185.86 447.708 192.807 452.339 202.995C456.97 213.184 466.695 240.507 469.011 257.643Z" fill="#E5E5E5"/>
  <path d="M437.982 174.282C438.6 174.282 440.668 174.189 444.003 173.819C447.337 173.448 448.171 170.268 448.171 168.725C445.855 168.725 440.576 168.539 437.982 167.798C437.468 167.651 437.006 167.575 436.593 167.551M436.593 167.551C434.924 167.457 434.062 168.23 433.814 168.725C433.814 170.423 433.721 174.56 433.351 177.524C432.888 181.229 434.74 183.081 437.519 184.47C440.298 185.86 447.708 192.807 452.339 202.995C456.97 213.184 466.695 240.507 469.011 257.643C471.287 274.483 470.818 283.473 473.906 289.648L514.859 335.446C516.249 335.446 522.362 331.186 535.699 314.143C549.037 297.1 543.109 284.195 538.478 279.872L502.818 237.266C490.005 221.983 464.102 190.954 462.99 189.102C461.601 186.786 461.601 178.45 461.601 177.061C461.601 175.949 461.292 175.363 461.138 175.208L450.486 166.409C450.332 161.315 450.023 150.663 450.023 148.811C450.023 146.495 450.023 144.179 448.171 143.716C446.689 143.346 446.009 144.488 445.855 145.106L444.003 165.02L437.982 152.979C437.21 150.354 435.203 145.106 433.351 145.106C431.499 145.106 431.962 147.884 432.425 149.274C433.351 152.207 435.389 158.536 436.13 160.388C436.871 162.241 436.747 165.936 436.593 167.551Z" stroke="#333333"/>
  <path d="M89.8339 705.288H182.354" stroke="#BFD7F0" stroke-width="2" stroke-miterlimit="10"/>
  <path d="M109.902 685V705.288" stroke="#BFD7F0" stroke-width="2" stroke-miterlimit="10"/>
  <path d="M141.235 729.542V705.288" stroke="#BFD7F0" stroke-width="2" stroke-miterlimit="10"/>
  <path d="M165.711 729.542H35" stroke="#BFD7F0" stroke-width="2" stroke-miterlimit="10"/>
  <path d="M117.244 729.542V752.803" stroke="#BFD7F0" stroke-width="2" stroke-miterlimit="10"/>
  <path d="M89.8339 752.802H182.354" stroke="#BFD7F0" stroke-width="2" stroke-miterlimit="10"/>
  <path d="M555.225 273.217H679.062" stroke="#BFD7F0" stroke-width="2" stroke-miterlimit="10"/>
  <path d="M531.143 252.84H620.061" stroke="#BFD7F0" stroke-width="2" stroke-miterlimit="10"/>
  <path d="M545.963 233.389H590.422" stroke="#BFD7F0" stroke-width="2" stroke-miterlimit="10"/>
  <path d="M570.971 233.389L570.971 252.84" stroke="#BFD7F0" stroke-width="2" stroke-miterlimit="10"/>
  <path d="M600.61 253.766L600.61 273.217" stroke="#BFD7F0" stroke-width="2" stroke-miterlimit="10"/>
  <path d="M157.334 414.638C176.6 379.442 204.263 350.574 215.687 340.54V344.708L222.17 349.339C231.711 355.36 241.158 355.36 243.937 353.507C246.715 351.655 245.326 347.95 243.937 345.171C242.825 342.948 243.474 341.157 243.937 340.54C249.124 342.763 285.308 374.193 302.752 389.63L279.597 548.942L163.818 546.626L167.059 477.622C171.505 475.77 175.087 467.588 176.322 463.729L174.469 436.405L157.334 414.638Z" fill="#FCD20A" stroke="#01066E"/>
  <path d="M186.974 396.114C183.269 408 175.859 432.607 175.859 435.942" stroke="#01066E"/>
  <path d="M130.474 358.139C128.621 357.028 125.997 358.602 124.916 359.529C124.515 359.93 123.072 360.748 120.285 361.2C119.822 352.22 115.654 342.856 113.338 342.393C111.486 342.023 110.405 344.4 110.096 345.635C108.09 346.716 103.798 349.525 102.687 352.119C101.297 355.361 105.928 367.402 108.244 371.57C110.56 375.738 111.949 390.557 115.654 410.008C119.359 429.459 126.769 459.098 130.937 466.971C135.105 474.844 155.019 481.328 161.039 480.865C167.06 480.402 175.859 469.287 176.322 464.193C176.693 460.117 174.933 443.661 174.006 435.943C157.643 415.72 124.546 375.089 123.064 374.348C121.582 373.607 122.446 372.187 123.064 371.57C124.299 369.563 127.324 364.993 129.547 362.77C131.77 360.547 131.091 358.757 130.474 358.139Z" fill="#E5E5E5"/>
  <path d="M216.613 344.709V311.365H218.002C218.002 306.116 218.188 294.137 218.929 288.209C219.855 280.799 227.265 272.463 230.043 269.221C232.822 265.979 237.916 268.758 242.084 270.61C245.419 272.092 253.045 272.463 256.441 272.463C258.293 275.705 261.906 286.078 261.535 301.639C261.165 317.2 249.649 325.721 243.937 328.037C243.783 330.507 243.381 336.095 243.011 338.688C242.548 341.93 243.474 342.393 245.326 347.951C247.179 353.508 240.695 354.897 232.359 353.508C225.69 352.397 219.083 347.179 216.613 344.709Z" fill="#E5E5E5"/>
  <path d="M113.338 365.549C113.647 364.314 115.191 361.752 118.896 361.381C119.392 361.331 119.854 361.27 120.285 361.2M120.285 361.2C123.072 360.748 124.515 359.93 124.916 359.529C125.997 358.602 128.621 357.028 130.474 358.139C131.091 358.757 131.77 360.547 129.547 362.77C127.324 364.993 124.299 369.563 123.064 371.57C122.446 372.187 121.582 373.607 123.064 374.348C124.546 375.089 157.643 415.72 174.006 435.943C174.933 443.661 176.693 460.117 176.322 464.193C175.859 469.287 167.06 480.402 161.039 480.865C155.019 481.328 135.105 474.844 130.937 466.971C126.769 459.098 119.359 429.459 115.654 410.008C111.949 390.557 110.56 375.738 108.244 371.57C105.928 367.402 101.297 355.361 102.687 352.119C103.798 349.525 108.09 346.716 110.096 345.635C110.405 344.4 111.486 342.023 113.338 342.393C115.654 342.856 119.822 352.22 120.285 361.2ZM216.613 311.365V344.709C219.083 347.179 225.69 352.397 232.359 353.508C240.695 354.897 247.179 353.508 245.326 347.951C243.474 342.393 242.548 341.93 243.011 338.688C243.381 336.095 243.783 330.507 243.937 328.037C249.649 325.721 261.165 317.2 261.535 301.639C261.906 286.078 258.293 275.705 256.441 272.463C253.045 272.463 245.419 272.092 242.084 270.61C237.916 268.758 232.822 265.979 230.043 269.221C227.265 272.463 219.855 280.799 218.929 288.209C218.188 294.137 218.002 306.116 218.002 311.365H216.613Z" stroke="#333333" stroke-linecap="round"/>
  <path d="M199.015 677.689C198.274 669.909 192.531 587.382 189.752 547.091H324.982C333.627 588.617 351.75 676.485 355.085 695.751C358.419 715.017 361.414 754.104 362.494 771.239H347.675L339.339 746.231C334.553 735.27 321.74 705.476 308.773 673.985C295.806 642.493 269.099 592.322 257.367 571.173C255.669 578.583 251.624 595.255 249.031 602.665C246.438 610.075 234.366 718.135 228.654 771.239H211.519C207.814 760.587 199.941 687.415 199.015 677.689Z" fill="#00045F"/>
  <path d="M230.506 786.986C230.136 784.392 227.265 775.717 225.875 771.703H215.224C211.827 773.401 203.368 778.094 196.699 783.281C190.03 788.468 187.128 792.852 186.51 794.396H231.433C231.278 793.006 230.877 789.579 230.506 786.986Z" fill="#0461FC"/>
  <path d="M204.499 779.576H201.793C194.013 783.281 188.363 790.999 186.51 794.396H230.97V789.764C230.97 788.653 230.352 786.831 230.043 786.06C223.405 786.06 209.852 785.874 208.74 785.133C208.223 784.789 207.953 783.896 207.828 782.885C207.61 781.124 206.274 779.576 204.499 779.576Z" fill="#00045F"/>
  <path d="M349.527 786.059C349.898 784.207 352.46 775.717 353.695 771.703H362.494C364.038 772.32 368.978 774.759 376.388 779.576C383.798 784.392 389.046 791.462 390.744 794.396H348.601C348.755 792.389 349.157 787.912 349.527 786.059Z" fill="#0461FC"/>
  <path d="M368.052 786.059H349.064L348.601 794.395H391.207C386.762 786.615 379.475 781.583 376.388 780.039H371.755C371.072 780.039 370.596 780.714 370.654 781.394C370.87 783.936 369.11 785.53 368.052 786.059Z" fill="#00045F"/>
  <path d="M228.191 323.868C230.043 326.183 235.786 330.259 243.937 328.036" stroke="#333333" stroke-linecap="round"/>
  <path fill-rule="evenodd" clip-rule="evenodd" d="M240.196 278.634C240.369 279.382 239.903 280.128 239.155 280.3C238.145 280.533 236.583 280.883 235.177 281.175C234.475 281.321 233.803 281.454 233.255 281.552C232.761 281.639 232.229 281.725 231.896 281.725C231.129 281.725 230.506 281.103 230.506 280.336C230.506 279.568 231.129 278.946 231.896 278.946C231.893 278.946 231.895 278.946 231.9 278.946C231.919 278.944 231.99 278.939 232.134 278.919C232.299 278.896 232.513 278.861 232.768 278.816C233.279 278.725 233.921 278.598 234.612 278.454C235.992 278.168 237.533 277.823 238.53 277.593C239.278 277.42 240.024 277.886 240.196 278.634ZM248.604 278.634C248.776 277.886 249.522 277.42 250.27 277.593L256.29 278.982C257.038 279.154 257.504 279.9 257.332 280.648C257.159 281.396 256.413 281.862 255.665 281.689L249.645 280.3C248.897 280.128 248.431 279.382 248.604 278.634Z" fill="#0457E2"/>
  <path d="M246.252 287.283C245.141 284.689 243.295 286.356 243.474 288.672C243.782 292.685 243.937 300.065 243.937 303.028C243.937 306.733 241.621 308.123 240.695 308.586C239.769 309.049 241.158 311.365 243.937 312.291C246.715 313.217 248.105 310.901 248.105 309.975C248.105 309.234 247.487 307.505 247.179 306.733C247.333 301.33 247.364 289.876 246.252 287.283Z" fill="#0452E0"/>
  <circle cx="255.052" cy="290.061" r="1.85246" fill="#010563"/>
  <circle cx="235.601" cy="290.061" r="1.85246" fill="#010563"/>
  <path d="M241.621 317.848C240.88 317.848 237.299 315.378 235.601 314.143C235.292 314.606 235.045 315.995 236.527 317.848C238.379 320.163 242.547 317.848 241.621 317.848Z" fill="#010563"/>
  <path d="M207.777 287.202C207.406 298.688 214.143 309.667 216.613 311.828H218.002V301.176C218.002 296.545 218.928 287.746 220.781 282.651C222.633 277.557 230.969 268.295 231.896 267.832C232.822 267.369 237.453 267.369 242.547 270.61C246.623 273.204 253.816 272.617 256.904 272C265.425 273.111 268.173 263.818 268.482 259.033C265.888 262.367 257.521 261.039 253.662 259.959C254.28 259.959 256.256 258.94 259.219 254.864C262.183 250.789 262.924 242.978 262.924 239.582C260.609 242.823 250.338 242.195 237.453 246.528C233.042 248.012 221.964 248.707 213.158 259.959C208.165 266.339 208.24 272.846 207.777 287.202Z" fill="#010563"/>
  <path d="M443.077 312.754C439.372 313.865 427.331 313.217 421.773 312.754C416.216 318.002 404.638 329.055 402.786 331.278C400.47 334.057 399.544 334.057 396.765 333.594C393.986 333.131 383.798 325.258 379.167 321.553C375.462 318.589 372.374 317.539 371.294 317.385C353.85 329.426 317.757 354.712 312.941 359.528C308.125 364.345 289.631 403.524 280.986 422.512L332.855 464.656C335.078 477.252 331.929 520.847 330.076 541.07C341.191 546.627 351.843 548.479 402.786 548.479C443.54 548.479 492.939 537.365 512.544 531.807L496.335 383.147L531.532 330.815L472.716 287.745C464.38 295.618 446.781 311.642 443.077 312.754Z" fill="#00045F"/>
  <path d="M319.425 754.566H300.437C300.437 750.862 324.828 610.074 337.023 540.144L500.503 534.123C498.342 573.797 493.927 655.089 493.556 662.87C493.186 670.65 477.347 727.243 469.474 754.566H450.949C449.869 732.183 446.967 682.506 444.003 662.87C441.039 643.233 423.317 600.04 414.826 580.898C407.787 602.387 348.292 705.631 319.425 754.566Z" fill="#0461FC"/>
  <path d="M415.29 581.825L436.593 570.247M356.937 570.247L341.654 574.221M333.781 576.268L341.654 574.221M341.654 574.221L306.457 754.567" stroke="#CEE0EF" stroke-width="2"/>
  <path d="M297.195 767.998L300.9 755.031H318.962L308.31 780.502L297.195 767.998Z" fill="#DCDBDB"/>
  <path d="M455.117 780.039L452.802 755.031C456.507 753.641 463.917 751.696 463.917 755.031C463.917 758.365 466.387 763.83 467.622 766.145V775.408L455.117 780.039Z" fill="#DCDBDB"/>
  <path d="M312.015 776.797H307.384C307.384 772.629 303.216 766.609 300.9 765.219C298.584 763.83 294.416 765.682 292.101 767.535C289.785 769.387 279.597 774.482 272.65 777.26C267.093 779.483 265.703 783.744 265.703 785.596V793.932L312.941 794.396V780.039C312.941 777.816 312.324 776.951 312.015 776.797Z" fill="#E51F23"/>
  <path d="M451.413 778.186V788.838V794.395L498.187 794.859C498.496 792.852 498.928 787.912 498.187 784.207C497.446 780.502 493.247 777.415 491.241 776.334C487.844 774.79 480.682 771.61 479.2 771.24C477.347 770.777 471.79 766.145 468.548 765.219C465.954 764.478 463.145 769.85 462.064 772.629C460.984 774.945 458.174 779.205 455.581 777.723C452.987 776.241 451.721 777.415 451.413 778.186Z" fill="#E51F23"/>
  <path d="M293.49 432.237L278.207 516.061L333.781 508.651V465.118L293.49 432.237Z" fill="#E5E5E5" stroke="#333333"/>
  <path d="M230.043 529.491L240.232 599.885C241.036 605.442 246.742 606.831 249.494 606.831L327.297 595.717L336.56 543.848C333.596 543.848 330.385 541.686 329.15 540.606L332.855 509.114C304.142 512.819 244.863 520.414 237.453 521.155C230.043 521.896 229.426 527.021 230.043 529.491Z" fill="#DEEBF5" stroke="#01066E"/>
  <path d="M273.113 535.512C269.779 525.508 261.535 520.538 257.83 519.303L332.392 509.114C331.003 518.994 328.409 539.124 329.15 540.606C329.891 542.088 334.399 543.693 336.56 544.311L327.298 595.717L323.13 596.18C322.512 594.636 320.073 590.53 315.257 586.454C309.236 581.36 295.806 580.897 286.544 578.581C277.281 576.266 274.503 571.172 273.113 564.688C271.724 558.204 277.281 548.016 273.113 535.512Z" fill="#CEE0EF"/>
  <path d="M237.453 529.029L246.252 593.865" stroke="#01066E" stroke-width="2"/>
  <path d="M262.461 598.497C263.573 598.127 259.837 593.094 257.83 590.625C261.998 590.625 265.703 592.477 269.871 597.108C273.206 600.813 278.362 602.357 280.523 602.666C277.899 604.518 271.539 608.316 267.093 608.686C262.647 609.057 259.065 607.914 257.83 607.297L249.031 597.108C251.347 597.108 253.662 599.424 255.052 598.497C256.163 597.756 252.736 594.175 250.884 592.477C251.038 592.168 251.81 591.736 253.662 592.477C255.978 593.403 261.072 598.961 262.461 598.497Z" fill="#E5E5E5" stroke="#01066E"/>
  <path d="M381.189 297.934C381.56 307.937 374.86 315.378 371.464 317.848C375.169 317.848 386.747 327.573 390.915 330.352C395.083 333.131 400.64 335.909 402.03 332.668C403.141 330.074 415.46 318.311 421.48 312.754C406.29 306.085 406.198 286.51 408.05 277.557C406.815 280.181 402.678 286.078 396.009 288.672C389.34 291.265 383.351 286.047 381.189 283.114C381.035 283.886 380.819 287.931 381.189 297.934Z" fill="#E5E5E5" stroke="#333333"/>
  <path d="M369.504 193.478C371.293 202.971 366.225 203.626 363.468 202.767C361.543 201.329 356.702 198.494 352.742 198.656C348.782 198.818 350.206 203.66 351.412 206.06C354.566 212.814 362.081 228.722 366.907 238.323C371.734 247.925 363.468 270.369 363.468 274.972C363.468 289.159 356.976 290.857 359.431 291.116C391.121 300.084 414.634 285.657 419.91 280.6C425.186 275.543 418.029 254.604 415.087 249.708C412.145 244.812 416.718 225.435 416.354 212.267C415.989 199.099 378.783 172.217 370.755 171.32C362.727 170.424 367.268 181.613 369.504 193.478Z" fill="#00045F"/>
  <path d="M392.208 224.936C400.138 229.418 407.591 226.425 410.326 224.369C411.383 224.563 412.857 226.689 410.297 233.644C408.682 242.635 412.153 247.626 412.166 253.633C412.178 259.641 409.344 260.223 405.832 258.501C402.32 256.778 394.714 250.498 387.838 249.263C380.963 248.028 375.266 258.469 371.564 257.804C367.862 257.139 370.155 250.454 370.915 246.223C371.675 241.992 371.08 233.151 367.46 225.949C363.84 218.748 369.686 210.518 375.165 210.41C380.643 210.302 382.296 219.334 392.208 224.936Z" fill="#E5E5E5"/>
  <path d="M388.812 269.637L401.682 264.852C402.202 268.039 402.231 274.559 398.196 275.144C394.16 275.729 390.259 271.717 388.812 269.637Z" fill="#C4C4C4"/>
  <path fill-rule="evenodd" clip-rule="evenodd" d="M379.694 221.845C379.379 221.013 378.448 220.594 377.615 220.91L371.757 223.133C370.925 223.449 370.506 224.38 370.822 225.212C371.138 226.044 372.068 226.463 372.901 226.147L378.759 223.924C379.592 223.608 380.01 222.678 379.694 221.845ZM406.948 232.497C407.106 231.621 406.523 230.783 405.647 230.625L396.127 228.915C395.251 228.758 394.413 229.341 394.256 230.217C394.098 231.093 394.681 231.931 395.557 232.088L405.077 233.798C405.953 233.956 406.791 233.373 406.948 232.497Z" fill="#0461FC"/>
  <circle r="2.14928" transform="matrix(-0.984246 -0.176807 -0.176807 0.984246 399.123 236.55)" fill="#01066E"/>
  <circle r="2.14928" transform="matrix(-0.984246 -0.176807 -0.176807 0.984246 376.341 235.733)" fill="#01066E"/>
  <path d="M386.279 253.35C384.349 252.404 385.516 248.482 386.456 246.285C388.084 243.302 387.108 236.576 387.298 235.518C387.488 234.46 389.604 234.84 390.092 238.204C390.579 241.567 391.257 243.872 392.178 247.859C393.1 251.846 389.791 255.073 386.279 253.35Z" fill="#0461FC"/>
  <path d="M279.442 544.908C280.211 547.433 283.688 551.693 291.437 548.531C290.534 546.176 286.871 542.154 279.442 544.908Z" fill="#00045F" fill-opacity="0.24"/>
  <ellipse cx="295.723" cy="560.951" rx="11.0113" ry="9.63487" transform="rotate(-6.94063 295.723 560.951)" fill="#00045F" fill-opacity="0.24"/>
  <path d="M265.703 790.155H312.941V794.786H265.703V790.155Z" fill="#00045F"/>
  <path d="M451.413 790.155H498.65V794.786H451.413V790.155Z" fill="#00045F"/>
  <path d="M624.14 704.663H538L550.967 794.971H613.025L624.14 704.663Z" fill="#B2CBE0"/>
  <path d="M628.307 665.761C627.566 686.509 607.622 688.917 597.742 687.528C588.049 687.528 576.902 671.782 575.975 660.667C575.049 649.552 586.164 638.438 593.574 633.343C600.984 628.249 606.541 600.462 606.541 576.38C606.541 552.298 621.361 543.499 639.422 553.224C657.484 562.95 638.033 596.294 631.086 612.04C624.139 627.786 629.234 639.827 628.307 665.761Z" fill="#0457E2"/>
  <path d="M551.43 674.098C551.801 690.029 570.418 692.159 579.68 691.233C592.162 685.686 593.569 679.215 595.877 668.597L595.889 668.54C598.205 657.889 584.312 637.048 581.533 628.249C578.754 619.45 583.848 597.684 579.68 578.233C575.512 558.782 560.229 560.634 551.43 569.434C542.631 578.233 551.43 601.388 556.061 622.692C560.693 643.995 550.967 654.184 551.43 674.098Z" fill="#B2CBE0"/>
  <path d="M637.57 576.38L651.463 566.192M618.582 666.688C620.064 666.317 630.623 660.358 635.717 657.425M586.627 666.688L597.742 654.647M550.967 626.86L562.082 635.196M572.271 654.647L576.439 704.2M607.004 647.7L592.185 704.2" stroke="#01066E" stroke-width="2"/>
  <path d="M480.126 230.71C484.678 228.773 495.311 225.48 501.429 227.805" stroke="black" stroke-width="1.5" stroke-linecap="round"/>
  <path d="M486.609 239.046C491.161 237.109 501.795 233.816 507.913 236.141" stroke="black" stroke-width="1.5" stroke-linecap="round"/>
  <path d="M497.724 245.53C502.276 243.593 512.91 240.3 519.027 242.624" stroke="black" stroke-width="1.5" stroke-linecap="round"/>
  <path d="M280.523 462.73C286.821 466.064 293.953 468.442 296.732 469.214" stroke="black"/>
  <path d="M280.523 469.677C286.821 473.011 293.953 475.389 296.732 476.16" stroke="black"/>
  <rect x="39" y="793.043" width="605.639" height="1.95683" fill="#00045F"/>
  <path d="M111 191.224C111 188.339 112.674 186 114.739 186H193.261C195.326 186 197 188.339 197 191.224V250.776C197 253.661 195.326 256 193.261 256H114.739C112.674 256 111 253.661 111 250.776V191.224Z" fill="#B3D8F8"/>
  <path d="M294.258 180.442H326.297C329.637 180.442 332.334 177.714 332.296 174.374L331.879 137.68C331.862 136.157 331.266 134.697 330.212 133.597L321.828 124.849C320.696 123.668 319.131 123 317.496 123H294.258C290.944 123 288.258 125.686 288.258 129V174.442C288.258 177.756 290.944 180.442 294.258 180.442Z" fill="#E0ECFF"/>
  <path d="M305.541 186.597H332.45C335.791 186.597 338.488 183.869 338.45 180.528L338.066 147.105V142.335C338.066 139.021 335.38 136.335 332.066 136.335H305.541C302.227 136.335 299.541 139.021 299.541 142.335V180.597C299.541 183.911 302.227 186.597 305.541 186.597Z" fill="#E0ECFF" fill-opacity="0.5"/>
  <path d="M326.297 179.692H294.258C291.358 179.692 289.008 177.342 289.008 174.442V129C289.008 126.101 291.358 123.75 294.258 123.75H317.496C318.927 123.75 320.296 124.334 321.286 125.367L329.67 134.116C330.592 135.078 331.114 136.356 331.129 137.689L331.546 174.383C331.579 177.305 329.219 179.692 326.297 179.692Z" stroke="#0556E2" stroke-width="1.5"/>
  <rect x="278" y="145.567" width="42.0561" height="18.4636" rx="4" fill="#0556E2"/>
  <path d="M318.005 137.361V123L331.852 137.361H318.005Z" fill="#0556E2"/>
  <path d="M287.685 155.031C287.685 154.141 287.884 153.346 288.282 152.646C288.688 151.938 289.236 151.389 289.927 151C290.627 150.603 291.409 150.404 292.273 150.404C293.284 150.404 294.17 150.663 294.93 151.182C295.69 151.7 296.222 152.417 296.524 153.333H294.438C294.23 152.901 293.936 152.577 293.556 152.361C293.185 152.145 292.753 152.037 292.26 152.037C291.733 152.037 291.262 152.162 290.848 152.413C290.442 152.655 290.122 153 289.889 153.45C289.664 153.899 289.552 154.426 289.552 155.031C289.552 155.627 289.664 156.154 289.889 156.612C290.122 157.061 290.442 157.411 290.848 157.662C291.262 157.903 291.733 158.024 292.26 158.024C292.753 158.024 293.185 157.916 293.556 157.7C293.936 157.476 294.23 157.147 294.438 156.715H296.524C296.222 157.64 295.69 158.361 294.93 158.88C294.178 159.39 293.293 159.644 292.273 159.644C291.409 159.644 290.627 159.45 289.927 159.061C289.236 158.664 288.688 158.115 288.282 157.415C287.884 156.715 287.685 155.921 287.685 155.031ZM306.2 150.521L302.882 159.567H300.679L297.361 150.521H299.305L301.793 157.713L304.269 150.521H306.2Z" fill="#FCFCFC"/>
  <path d="M170.5 377C152.024 361.974 130.5 333.5 138.5 310.5C151.518 273.073 200.749 303.514 190 324.5C179.5 345 110 312 179.5 205.5" stroke="#0556E2" stroke-linecap="square" stroke-dasharray="8 8"/>
  <circle cx="190" cy="197" r="3" fill="#FCD20A"/>
  <path d="M437.221 91.4478L430.447 96.2457L432.631 100.033L434.814 103.821L442.36 100.36C443.831 101.979 445.524 103.405 447.381 104.579L445.287 112.615L449.401 114.115L453.516 115.615L457.066 108.114C458.135 108.263 459.235 108.337 460.334 108.337C461.448 108.337 462.532 108.263 463.617 108.114L467.167 115.615L471.281 114.115L475.396 112.615L473.301 104.579C475.158 103.405 476.852 101.979 478.322 100.36L485.868 103.821L488.052 100.033L490.235 96.2457L483.462 91.4478C484.115 89.3979 484.501 87.2441 484.59 85.0011L492.597 82.8027L491.839 78.495L491.082 74.1873L482.808 74.8557C481.976 72.8059 480.862 70.9045 479.525 69.1815L484.249 62.3486L480.892 59.5411L477.535 56.7337L471.638 62.5714C469.722 61.5613 467.657 60.8037 465.473 60.3284L464.701 52.0695H460.334H455.967L455.194 60.3284C453.025 60.8037 450.946 61.5613 449.03 62.5714L443.133 56.7337L439.776 59.5411L436.419 62.3486L441.142 69.1815C439.805 70.9045 438.706 72.8059 437.859 74.8557L429.586 74.1873L428.828 78.495L428.071 82.8027L436.077 85.0011C436.181 87.2292 436.567 89.3979 437.221 91.4478ZM460.349 92.3687C455.744 92.3687 452.015 88.6404 452.015 84.0356C452.015 79.4308 455.744 75.7024 460.349 75.7024C464.953 75.7024 468.682 79.4308 468.682 84.0356C468.682 88.6404 464.953 92.3687 460.349 92.3687Z" fill="#C1DEF4"/>
  <path d="M507.867 49.7077L503.277 52.9608L504.762 55.5305L506.248 58.1003L511.372 55.7533C512.368 56.8525 513.511 57.8181 514.774 58.6053L513.348 64.0568L516.141 65.0669L518.933 66.0769L521.34 60.982C522.067 61.086 522.81 61.1305 523.568 61.1305C524.325 61.1305 525.068 61.086 525.796 60.982L528.202 66.0769L530.995 65.0669L533.787 64.0568L532.361 58.6053C533.624 57.8032 534.768 56.8525 535.763 55.7533L540.888 58.1003L542.373 55.5305L543.858 52.9608L539.268 49.7077C539.714 48.3263 539.981 46.8557 540.041 45.3257L545.477 43.8403L544.958 40.9141L544.438 37.9878L538.823 38.4483C538.258 37.0668 537.501 35.7745 536.595 34.6011L539.803 29.9666L537.531 28.0653L535.258 26.1639L531.247 30.1151C529.94 29.4318 528.544 28.9119 527.073 28.6L526.553 23H523.582H520.612L520.092 28.6C518.621 28.9119 517.21 29.4318 515.918 30.1151L511.907 26.1639L509.634 28.0653L507.362 29.9666L510.57 34.6011C509.664 35.7745 508.907 37.0668 508.342 38.4483L502.727 37.9878L502.207 40.9141L501.688 43.8403L507.124 45.3257C507.154 46.8409 507.421 48.3114 507.867 49.7077ZM523.553 50.3316C520.433 50.3316 517.893 47.8064 517.893 44.6722C517.893 41.5528 520.419 39.0127 523.553 39.0127C526.687 39.0127 529.212 41.5379 529.212 44.6722C529.212 47.8064 526.672 50.3316 523.553 50.3316Z" fill="#C1DEF4"/>
  <path d="M579.553 121.333H527.198C525.495 121.333 523.756 122.71 523.321 124.413L515.314 155.247L514.172 159.613L512.651 165.464C512.035 167.801 514.172 169.287 516.528 168.145L533.285 160.011C533.81 159.758 534.354 159.631 534.879 159.631H569.608C571.311 159.631 573.05 158.254 573.484 156.551L581.836 124.413C582.271 122.71 581.256 121.333 579.553 121.333Z" fill="#B3D8F8"/>
  <path d="M569.01 113H516.654C514.952 113 513.212 114.377 512.778 116.08L504.77 146.913L503.629 151.279L502.107 157.131C501.491 159.468 503.629 160.953 505.984 159.812L522.741 151.678C523.267 151.424 523.81 151.297 524.336 151.297H559.064C560.767 151.297 562.506 149.921 562.941 148.218L571.292 116.098C571.727 114.377 570.713 113 569.01 113Z" fill="#0556E2"/>
  <path d="M542.597 126.569H517.162L517.723 124.377H543.176L542.597 126.569Z" fill="white"/>
  <path d="M559.68 133.399H515.386L515.966 131.188H560.26L559.68 133.399Z" fill="white"/>
  <path d="M551.6 140.21H513.611L514.191 138.018H552.18L551.6 140.21Z" fill="white"/>
  <path d="M458.21 79.8913H426.808C423.599 79.8913 421 82.4908 421 85.6993V117.101C421 120.309 423.599 122.909 426.808 122.909H458.21C461.418 122.909 464.017 120.309 464.017 117.101V85.6993C464.017 82.4908 461.418 79.8913 458.21 79.8913Z" fill="#0556E2"/>
  <path d="M432.23 104.787L429.214 106.926L430.195 108.604L431.175 110.283L434.532 108.738C435.186 109.451 435.943 110.09 436.76 110.61L435.824 114.189L437.651 114.858L439.478 115.526L441.053 112.184C441.528 112.244 442.018 112.288 442.509 112.288C442.999 112.288 443.489 112.258 443.964 112.184L445.539 115.526L447.366 114.858L449.193 114.189L448.257 110.61C449.089 110.09 449.832 109.451 450.485 108.738L453.842 110.283L454.823 108.604L455.803 106.926L452.788 104.787C453.085 103.881 453.248 102.915 453.293 101.92L456.858 100.94L456.516 99.0234L456.174 97.1072L452.491 97.4043C452.119 96.4982 451.629 95.6515 451.035 94.8791L453.129 91.834L451.644 90.5863L450.159 89.3385L447.529 91.938C446.683 91.4924 445.762 91.1507 444.796 90.9428L444.455 87.2738H442.509H440.563L440.221 90.9428C439.256 91.1507 438.335 91.4924 437.488 91.938L434.859 89.3385L433.373 90.5863L431.888 91.834L433.982 94.8791C433.388 95.6515 432.898 96.4982 432.527 97.4043L428.843 97.1072L428.501 99.0234L428.16 100.94L431.725 101.92C431.754 102.915 431.932 103.881 432.23 104.787ZM442.509 105.203C440.459 105.203 438.795 103.539 438.795 101.489C438.795 99.4393 440.459 97.7757 442.509 97.7757C444.559 97.7757 446.222 99.4393 446.222 101.489C446.222 103.539 444.559 105.203 442.509 105.203Z" fill="white"/>
  <path d="M184.291 175H111.668C107.982 175 105 177.844 105 181.357V242.381C105 245.894 107.982 248.738 111.668 248.738H184.291C187.976 248.738 190.958 245.894 190.958 242.381V181.357C190.958 177.844 187.976 175 184.291 175Z" fill="white"/>
  <path d="M184.291 175H111.668C107.982 175 105 177.844 105 181.357V184.74H190.958V181.357C190.958 177.844 187.976 175 184.291 175Z" fill="#01066E"/>
  <path d="M112.884 181.978C114.106 181.978 115.096 181.034 115.096 179.87C115.096 178.706 114.106 177.762 112.884 177.762C111.663 177.762 110.673 178.706 110.673 179.87C110.673 181.034 111.663 181.978 112.884 181.978Z" fill="#FF3E0D"/>
  <path d="M120.477 181.978C121.699 181.978 122.689 181.034 122.689 179.87C122.689 178.706 121.699 177.762 120.477 177.762C119.256 177.762 118.266 178.706 118.266 179.87C118.266 181.034 119.256 181.978 120.477 181.978Z" fill="#FDD45B"/>
  <path d="M128.088 181.978C129.309 181.978 130.299 181.034 130.299 179.87C130.299 178.706 129.309 177.762 128.088 177.762C126.867 177.762 125.877 178.706 125.877 179.87C125.877 181.034 126.867 181.978 128.088 181.978Z" fill="#4E99FF"/>
  <path d="M120.495 195.853H111.376V197.814H120.495V195.853Z" fill="#4E99FF"/>
  <path d="M144.217 195.853H122.688V197.814H144.217V195.853Z" fill="#FDD45B"/>
  <path d="M156.095 195.853H146.428V197.814H156.095V195.853Z" fill="#4E99FF"/>
  <path d="M183.468 195.853H158.306V197.814H183.468V195.853Z" fill="#FF3E0D"/>
  <path d="M132.356 201.851H111.376V203.812H132.356V201.851Z" fill="#FF3E0D"/>
  <path d="M144.234 201.851H134.567V203.812H144.234V201.851Z" fill="#4E99FF"/>
  <path d="M183.468 201.851H146.428V203.812H183.468V201.851Z" fill="#FDD45B"/>
  <path d="M132.356 207.865H111.376V209.826H132.356V207.865Z" fill="#FF3E0D"/>
  <path d="M156.095 207.865H134.567V209.826H156.095V207.865Z" fill="#FDD45B"/>
  <path d="M183.468 207.865H158.306V209.826H183.468V207.865Z" fill="#FF3E0D"/>
  <path d="M156.095 213.879H111.376V215.84H156.095V213.879Z" fill="#4E99FF"/>
  <path d="M167.973 213.879H158.306V215.84H167.973V213.879Z" fill="#FDD45B"/>
  <path d="M183.468 213.879H170.167V215.84H183.468V213.879Z" fill="#FF3E0D"/>
  <path d="M132.356 219.893H111.376V221.854H132.356V219.893Z" fill="#FF3E0D"/>
  <path d="M156.095 219.893H134.567V221.854H156.095V219.893Z" fill="#4E99FF"/>
  <path d="M183.468 219.893H158.306V221.854H183.468V219.893Z" fill="#4E99FF"/>
  <path d="M120.495 225.907H111.376V227.868H120.495V225.907Z" fill="#FDD45B"/>
  <path d="M132.356 225.907H122.688V227.868H132.356V225.907Z" fill="#4E99FF"/>
  <path d="M167.973 225.907H134.567V227.868H167.973V225.907Z" fill="#4E99FF"/>
  <path d="M183.468 225.907H170.167V227.868H183.468V225.907Z" fill="#FF3E0D"/>
  <path d="M120.495 231.921H111.376V233.882H120.495V231.921Z" fill="#FF3E0D"/>
  <path d="M144.217 231.921H122.688V233.882H144.217V231.921Z" fill="#4E99FF"/>
  <path d="M156.095 231.921H146.428V233.882H156.095V231.921Z" fill="#FDD45B"/>
  <path d="M183.468 231.921H158.306V233.882H183.468V231.921Z" fill="#FF3E0D"/>
  <path opacity="0.2" d="M95.555 518H52.445C51.0938 518 50 516.891 50 515.521V471.479C50 470.109 51.0938 469 52.445 469H95.555C96.9062 469 98 470.109 98 471.479V515.521C98 516.891 96.9062 518 95.555 518Z" fill="#0561FC"/>
  <path d="M87.555 510H44.445C43.0938 510 42 508.891 42 507.521V463.479C42 462.109 43.0938 461 44.445 461H87.555C88.9062 461 90 462.109 90 463.479V507.521C90 508.891 88.9062 510 87.555 510Z" fill="#FC2731"/>
  <path d="M58.5 491C64.8513 491 70 485.851 70 479.5C70 473.149 64.8513 468 58.5 468C52.1487 468 47 473.149 47 479.5C47 485.851 52.1487 491 58.5 491Z" fill="#00056D"/>
  <path d="M66.3881 470L58 480H70.9983C71.0624 476 69.2695 472.452 66.3881 470Z" fill="white"/>
  <path d="M82.8391 475H78.1609C76.454 475 75 473.46 75 471.5C75 469.61 76.3908 468 78.1609 468H82.8391C84.546 468 86 469.54 86 471.5C85.9368 473.46 84.546 475 82.8391 475Z" fill="white"/>
  <path d="M74 486H87" stroke="#00056D" stroke-miterlimit="10"/>
  <path d="M47 498H73" stroke="#00056D" stroke-miterlimit="10"/>
  <path d="M47 502H64" stroke="#00056D" stroke-miterlimit="10"/>
</svg>
