<svg width="304" height="356" viewBox="0 0 304 356" fill="none" xmlns="http://www.w3.org/2000/svg">
  <path d="M172.231 172.62L179.213 177.566L176.962 181.47L174.711 185.375L166.933 181.807C165.417 183.476 163.672 184.946 161.758 186.155L163.917 194.439L159.675 195.985L155.434 197.532L151.775 189.8C150.672 189.953 149.539 190.029 148.406 190.029C147.258 190.029 146.14 189.953 145.022 189.8L141.363 197.532L137.121 195.985L132.88 194.439L135.039 186.155C133.125 184.946 131.38 183.476 129.864 181.807L122.086 185.375L119.835 181.47L117.584 177.566L124.566 172.62C123.892 170.507 123.494 168.287 123.402 165.975L115.149 163.709L115.93 159.268L116.711 154.828L125.24 155.517C126.097 153.404 127.245 151.444 128.624 149.668L123.754 142.625L127.215 139.731L130.675 136.837L136.754 142.854C138.729 141.813 140.858 141.032 143.108 140.542L143.905 132.029H148.406H152.908L153.704 140.542C155.939 141.032 158.083 141.813 160.058 142.854L166.137 136.837L169.597 139.731L173.058 142.625L168.189 149.668C169.567 151.444 170.7 153.404 171.573 155.517L180.101 154.828L180.882 159.268L181.663 163.709L173.41 165.975C173.303 168.271 172.905 170.507 172.231 172.62ZM148.391 173.569C153.137 173.569 156.981 169.726 156.981 164.979C156.981 160.233 153.137 156.39 148.391 156.39C143.644 156.39 139.801 160.233 139.801 164.979C139.801 169.726 143.644 173.569 148.391 173.569Z" fill="#B3D8F8"/>
  <path d="M90.6297 217.815L95.1126 220.998L93.6618 223.513L92.211 226.028L87.2059 223.731C86.2339 224.807 85.1168 225.752 83.8837 226.522L85.2764 231.857L82.549 232.846L79.8216 233.834L77.4713 228.848C76.7604 228.95 76.0351 228.994 75.2952 228.994C74.5553 228.994 73.8299 228.95 73.119 228.848L70.7688 233.834L68.0414 232.846L65.314 231.857L66.7067 226.522C65.4736 225.737 64.3565 224.807 63.3845 223.731L58.3794 226.028L56.9286 223.513L55.4778 220.998L59.9607 217.815C59.5255 216.463 59.2643 215.024 59.2063 213.526L53.8965 212.072L54.4042 209.209L54.912 206.345L60.3959 206.796C60.9472 205.444 61.6871 204.179 62.572 203.03L59.4384 198.495L61.658 196.634L63.8777 194.773L67.7948 198.64C69.0715 197.972 70.4352 197.463 71.8714 197.157L72.3792 191.677H75.2807H78.1822L78.69 197.157C80.1263 197.463 81.5044 197.972 82.7666 198.64L86.6836 194.773L88.9033 196.634L91.123 198.495L87.9893 203.03C88.8743 204.179 89.6142 205.444 90.1655 206.796L95.6494 206.345L96.1571 209.209L96.6649 212.072L91.3551 213.526C91.3261 215.009 91.065 216.448 90.6297 217.815ZM75.3097 218.425C78.3563 218.425 80.8371 215.954 80.8371 212.887C80.8371 209.834 78.3708 207.348 75.3097 207.348C72.2486 207.348 69.7823 209.819 69.7823 212.887C69.7823 215.954 72.2631 218.425 75.3097 218.425Z" fill="#B3D8F8"/>
  <path d="M83.7112 190.453C61.342 195.527 14.1173 214.628 11.0423 248.633C8.78878 273.554 27.7161 286.849 29.5429 286.577" stroke="#0461FC" stroke-linecap="square" stroke-dasharray="4 4"/>
  <path d="M33.7633 296.039L32.3271 300.809L66.5753 297.243L34.6849 286.026L35.6976 293.602L33.7633 296.039Z" fill="#BCD8EF"/>
  <path d="M66.5753 297.243L39.8012 281.657L34.685 286.026L59.5674 294.647L30.0149 289.832L20.5708 296.853L66.5753 297.243Z" fill="#0461FC"/>
  <path d="M160.774 63.8217C174.688 60.2484 203.881 47.6376 205.066 27.0227C205.935 11.915 193.777 4.31154 192.637 4.51745" stroke="#0461FC" stroke-linecap="square" stroke-dasharray="4 4"/>
  <path d="M97.0839 79.9577C103.515 74.7186 114.327 59.6866 106.127 41.4709C95.878 18.7013 71.5607 40.8664 90.2509 55.7775C105.203 67.7064 121.401 69.6139 127.631 69.0766" stroke="#0461FC" stroke-dasharray="4 4"/>
  <path d="M209.862 115.101C210.878 122.627 210.669 126.645 212.049 129.404L230.35 149.87C230.971 149.87 233.703 147.966 239.663 140.35C245.623 132.734 242.974 126.967 240.905 125.035L224.969 105.995C219.244 99.1658 207.668 85.2998 207.171 84.472C206.55 83.4372 206.55 79.712 206.55 79.0911C206.55 78.5944 206.412 78.3323 206.343 78.2633L201.583 74.3311C201.514 72.0546 201.376 67.2946 201.376 66.4668C201.376 65.432 201.376 64.3972 200.549 64.1903C199.886 64.0247 199.583 64.5352 199.514 64.8112L198.686 73.7103L195.995 68.3294C195.651 67.1567 194.754 64.8112 193.926 64.8112C193.098 64.8112 193.305 66.0529 193.512 66.6738C193.926 67.9845 194.837 70.8129 195.168 71.6407C195.499 72.4685 195.444 74.1196 195.375 74.8417C194.629 74.7994 194.243 75.1447 194.133 75.3659C194.133 76.1247 194.092 77.9736 193.926 79.2981C193.719 80.9537 194.547 81.7815 195.789 82.4024C197.03 83.0233 200.342 86.1276 202.411 90.6806C204.481 95.2337 208.827 107.444 209.862 115.101Z" fill="#E5E5E5"/>
  <path d="M195.995 77.8494C196.271 77.8494 197.196 77.808 198.686 77.6424C200.176 77.4769 200.549 76.0558 200.549 75.3659C199.514 75.3659 197.154 75.2831 195.995 74.952C195.766 74.8863 195.559 74.8521 195.375 74.8417M195.375 74.8417C194.629 74.7994 194.243 75.1447 194.133 75.3659C194.133 76.1247 194.092 77.9736 193.926 79.2981C193.719 80.9537 194.547 81.7815 195.789 82.4024C197.03 83.0233 200.342 86.1276 202.411 90.6806C204.481 95.2337 208.827 107.444 209.862 115.101C210.878 122.627 210.669 126.645 212.049 129.404L230.35 149.87C230.971 149.87 233.703 147.966 239.663 140.35C245.623 132.734 242.974 126.967 240.905 125.035L224.969 105.995C219.244 99.1658 207.668 85.2998 207.171 84.472C206.55 83.4372 206.55 79.712 206.55 79.0911C206.55 78.5944 206.412 78.3323 206.343 78.2633L201.583 74.3311C201.514 72.0546 201.376 67.2946 201.376 66.4668C201.376 65.432 201.376 64.3972 200.549 64.1903C199.886 64.0247 199.583 64.5352 199.514 64.8112L198.686 73.7103L195.995 68.3294C195.651 67.1567 194.754 64.8112 193.926 64.8112C193.098 64.8112 193.305 66.0529 193.512 66.6738C193.926 67.9845 194.837 70.8129 195.168 71.6407C195.499 72.4685 195.444 74.1196 195.375 74.8417Z" stroke="#333333" stroke-width="0.5"/>
  <path d="M40.416 315.144H81.7611" stroke="#BFD7F0" stroke-miterlimit="10"/>
  <path d="M49.3839 306.078V315.144" stroke="#BFD7F0" stroke-miterlimit="10"/>
  <path d="M63.3861 325.982V315.144" stroke="#BFD7F0" stroke-miterlimit="10"/>
  <path d="M74.3239 325.982H15.912" stroke="#BFD7F0" stroke-miterlimit="10"/>
  <path d="M52.6649 325.982V336.377" stroke="#BFD7F0" stroke-miterlimit="10"/>
  <path d="M40.416 336.377H81.7611" stroke="#BFD7F0" stroke-miterlimit="10"/>
  <path d="M248.389 122.061H303.729" stroke="#BFD7F0" stroke-miterlimit="10"/>
  <path d="M237.627 112.955H277.363" stroke="#BFD7F0" stroke-miterlimit="10"/>
  <path d="M244.25 104.263H264.117" stroke="#BFD7F0" stroke-miterlimit="10"/>
  <path d="M255.425 104.263L255.425 112.955" stroke="#BFD7F0" stroke-miterlimit="10"/>
  <path d="M268.67 113.369L268.67 122.061" stroke="#BFD7F0" stroke-miterlimit="10"/>
  <path d="M70.5803 185.259C79.1896 169.531 91.5518 156.63 96.6567 152.146V154.009L99.5541 156.079C103.818 158.769 108.039 158.769 109.281 157.941C110.523 157.113 109.902 155.458 109.281 154.216C108.784 153.223 109.074 152.422 109.281 152.146C111.599 153.14 127.769 167.185 135.564 174.084L125.217 245.276L73.4776 244.242L74.9263 213.405C76.9131 212.577 78.5136 208.921 79.0655 207.197L78.2376 194.986L70.5803 185.259Z" fill="#FCD20A" stroke="#01066E" stroke-width="0.5"/>
  <path d="M83.8255 176.981C82.1698 182.293 78.8585 193.289 78.8585 194.779" stroke="#01066E" stroke-width="0.5"/>
  <path d="M58.5769 160.011C57.7491 159.514 56.5763 160.218 56.0934 160.632C55.9142 160.811 55.2691 161.177 54.0239 161.379C53.8169 157.366 51.9543 153.181 50.9195 152.975C50.0917 152.809 49.6088 153.871 49.4708 154.423C48.574 154.906 46.6562 156.162 46.1595 157.321C45.5387 158.769 47.6082 164.15 48.643 166.013C49.6778 167.875 50.2987 174.498 51.9543 183.19C53.61 191.882 56.9213 205.127 58.7839 208.646C60.6465 212.164 69.5456 215.061 72.236 214.854C74.9264 214.647 78.8586 209.68 79.0655 207.404C79.2311 205.583 78.4447 198.229 78.0307 194.78C70.7183 185.743 55.9279 167.586 55.2656 167.254C54.6033 166.923 54.9897 166.289 55.2656 166.013C55.8175 165.116 57.1696 163.074 58.163 162.081C59.1564 161.087 58.8528 160.287 58.5769 160.011Z" fill="#E5E5E5"/>
  <path d="M97.0707 154.009V139.108H97.6915C97.6915 136.763 97.7743 131.41 98.1055 128.761C98.5194 125.449 101.831 121.724 103.072 120.276C104.314 118.827 106.591 120.069 108.453 120.896C109.943 121.559 113.351 121.724 114.869 121.724C115.697 123.173 117.311 127.809 117.145 134.762C116.98 141.716 111.834 145.524 109.281 146.559C109.212 147.663 109.033 150.16 108.867 151.319C108.66 152.768 109.074 152.975 109.902 155.458C110.73 157.941 107.832 158.562 104.107 157.941C101.127 157.445 98.1744 155.113 97.0707 154.009Z" fill="#E5E5E5"/>
  <path d="M50.9195 163.322C51.0575 162.77 51.7474 161.625 53.403 161.46C53.6246 161.438 53.8314 161.41 54.0239 161.379M54.0239 161.379C55.2691 161.177 55.9142 160.811 56.0934 160.632C56.5763 160.218 57.7491 159.514 58.5769 160.011C58.8528 160.287 59.1564 161.087 58.163 162.081C57.1696 163.074 55.8175 165.116 55.2656 166.013C54.9897 166.289 54.6033 166.923 55.2656 167.254C55.9279 167.586 70.7183 185.743 78.0307 194.78C78.4447 198.229 79.2311 205.583 79.0655 207.404C78.8586 209.68 74.9264 214.647 72.236 214.854C69.5456 215.061 60.6465 212.164 58.7839 208.646C56.9213 205.127 53.61 191.882 51.9543 183.19C50.2987 174.498 49.6778 167.875 48.643 166.013C47.6082 164.15 45.5387 158.769 46.1595 157.321C46.6562 156.162 48.574 154.906 49.4708 154.423C49.6088 153.871 50.0917 152.809 50.9195 152.975C51.9543 153.181 53.8169 157.366 54.0239 161.379ZM97.0707 139.108V154.009C98.1744 155.113 101.127 157.445 104.107 157.941C107.832 158.562 110.73 157.941 109.902 155.458C109.074 152.975 108.66 152.768 108.867 151.319C109.033 150.16 109.212 147.663 109.281 146.559C111.834 145.524 116.98 141.716 117.145 134.762C117.311 127.809 115.697 123.173 114.869 121.724C113.351 121.724 109.943 121.559 108.453 120.896C106.591 120.069 104.314 118.827 103.072 120.276C101.831 121.724 98.5194 125.449 98.1055 128.761C97.7743 131.41 97.6915 136.763 97.6915 139.108H97.0707Z" stroke="#333333" stroke-width="0.5" stroke-linecap="round"/>
  <path d="M89.2063 302.811C88.8752 299.334 86.3089 262.454 85.0672 244.449H145.498C149.361 263.006 157.46 302.273 158.95 310.882C160.44 319.491 161.779 336.958 162.262 344.616H155.639L151.914 333.44C149.775 328.542 144.05 315.228 138.255 301.155C132.46 287.082 120.526 264.662 115.283 255.211C114.524 258.522 112.716 265.973 111.558 269.284C110.399 272.595 105.004 320.885 102.451 344.616H94.7941C93.1385 339.856 89.6202 307.157 89.2063 302.811Z" fill="#00045F"/>
  <path d="M103.279 351.653C103.114 350.494 101.831 346.617 101.21 344.823H96.4498C94.9321 345.582 91.1517 347.679 88.1716 349.997C85.1914 352.315 83.8945 354.274 83.6185 354.964H103.693C103.624 354.343 103.445 352.812 103.279 351.653Z" fill="#0461FC"/>
  <path d="M90.5443 348.342H90.4481C86.9712 349.997 84.4464 353.446 83.6185 354.964H103.486V352.895C103.486 352.398 103.21 351.584 103.072 351.239C100.106 351.239 94.0491 351.156 93.5524 350.825C92.3967 350.055 91.9333 348.342 90.5443 348.342Z" fill="#00045F"/>
  <path d="M156.467 351.239C156.633 350.411 157.778 346.617 158.33 344.823H162.262C162.952 345.099 165.159 346.189 168.47 348.341C171.782 350.494 174.127 353.653 174.886 354.964H156.053C156.122 354.067 156.301 352.067 156.467 351.239Z" fill="#0461FC"/>
  <path d="M164.745 351.239H156.26L156.053 354.964H175.093C173.106 351.487 169.85 349.238 168.47 348.548H167.167C166.485 348.548 166.025 349.258 165.837 349.914C165.637 350.611 165.102 351.061 164.745 351.239Z" fill="#00045F"/>
  <path d="M102.245 144.696C103.072 145.731 105.639 147.552 109.281 146.559" stroke="#333333" stroke-linecap="round"/>
  <path fill-rule="evenodd" clip-rule="evenodd" d="M107.61 124.482C107.687 124.816 107.478 125.149 107.144 125.226C106.693 125.331 105.995 125.487 105.367 125.617C105.053 125.683 104.753 125.742 104.507 125.786C104.287 125.825 104.049 125.863 103.9 125.863C103.557 125.863 103.279 125.585 103.279 125.242C103.279 124.899 103.557 124.621 103.9 124.621C103.899 124.621 103.9 124.621 103.902 124.621C103.91 124.621 103.942 124.618 104.007 124.609C104.081 124.599 104.176 124.583 104.29 124.563C104.518 124.523 104.805 124.466 105.114 124.402C105.731 124.273 106.419 124.119 106.865 124.017C107.199 123.939 107.532 124.148 107.61 124.482ZM111.367 124.482C111.444 124.148 111.777 123.939 112.111 124.017L114.802 124.637C115.136 124.714 115.344 125.048 115.267 125.382C115.19 125.716 114.856 125.924 114.522 125.847L111.832 125.226C111.498 125.149 111.289 124.816 111.367 124.482Z" fill="#0457E2"/>
  <path d="M110.316 128.347C109.819 127.188 108.994 127.933 109.074 128.968C109.212 130.761 109.281 134.059 109.281 135.383C109.281 137.039 108.246 137.66 107.832 137.867C107.418 138.074 108.039 139.109 109.281 139.522C110.523 139.936 111.144 138.902 111.144 138.488C111.144 138.157 110.868 137.384 110.73 137.039C110.799 134.625 110.812 129.506 110.316 128.347Z" fill="#0452E0"/>
  <circle cx="114.248" cy="129.588" r="0.827823" fill="#010563"/>
  <circle cx="105.556" cy="129.588" r="0.827823" fill="#010563"/>
  <path d="M108.246 142.006C107.915 142.006 106.315 140.902 105.556 140.35C105.418 140.557 105.307 141.178 105.97 142.006C106.798 143.041 108.66 142.006 108.246 142.006Z" fill="#010563"/>
  <path d="M93.1219 128.311C92.9563 133.443 95.9668 138.35 97.0706 139.316H97.6915V134.556C97.6915 132.486 98.1054 128.554 98.9332 126.277C99.761 124.001 103.486 119.862 103.9 119.655C104.314 119.448 106.384 119.448 108.66 120.896C110.481 122.055 113.696 121.793 115.076 121.517C118.884 122.014 120.112 117.861 120.25 115.723C119.091 117.213 115.352 116.619 113.627 116.136C113.903 116.136 114.786 115.681 116.111 113.86C117.435 112.039 117.766 108.548 117.766 107.03C116.731 108.479 112.141 108.198 106.384 110.135C104.412 110.798 99.4617 111.108 95.5266 116.136C93.2954 118.987 93.3288 121.895 93.1219 128.311Z" fill="#010563"/>
  <path d="M198.272 139.729C196.616 140.226 191.236 139.936 188.752 139.729C186.269 142.075 181.095 147.014 180.267 148.007C179.232 149.249 178.818 149.249 177.577 149.042C176.335 148.835 171.782 145.317 169.712 143.661C168.057 142.337 166.677 141.868 166.194 141.799C158.399 147.18 142.27 158.479 140.117 160.632C137.965 162.784 129.701 180.293 125.838 188.778L149.017 207.611C150.01 213.24 148.603 232.721 147.775 241.758C152.742 244.242 157.502 245.07 180.267 245.07C198.479 245.07 220.554 240.103 229.315 237.619L222.072 171.186L237.801 147.8L211.517 128.554C207.792 132.072 199.928 139.233 198.272 139.729Z" fill="#00045F"/>
  <path d="M143.015 337.165H134.53C134.53 335.51 145.429 272.595 150.879 241.345L223.935 238.654C222.969 256.384 220.996 292.711 220.83 296.188C220.665 299.665 213.587 324.955 210.069 337.165H201.79C201.307 327.162 200.01 304.963 198.686 296.188C197.361 287.413 189.442 268.111 185.648 259.557C182.502 269.16 155.915 315.297 143.015 337.165Z" fill="#0461FC"/>
  <path d="M185.855 259.971L195.375 254.797M159.778 254.797L152.949 256.573M149.43 257.488L152.949 256.573M152.949 256.573L137.22 337.166" stroke="#CEE0EF"/>
  <path d="M133.081 343.168L134.737 337.373H142.808L138.048 348.755L133.081 343.168Z" fill="#DCDBDB"/>
  <path d="M203.653 348.548L202.618 337.373C204.274 336.752 207.585 335.883 207.585 337.373C207.585 338.863 208.689 341.305 209.241 342.34V346.479L203.653 348.548Z" fill="#DCDBDB"/>
  <path d="M139.704 347.1H137.634C137.634 345.237 135.771 342.547 134.737 341.926C133.702 341.305 131.839 342.133 130.804 342.961C129.77 343.788 125.217 346.065 122.112 347.307C119.629 348.3 119.008 350.204 119.008 351.032V354.757L140.117 354.964V348.548C140.117 347.555 139.842 347.169 139.704 347.1Z" fill="#E51F23"/>
  <path d="M201.997 347.721V352.48V354.964L222.9 355.171C223.038 354.274 223.231 352.067 222.9 350.411C222.569 348.755 220.692 347.376 219.795 346.893C218.278 346.203 215.077 344.782 214.415 344.616C213.587 344.409 211.103 342.34 209.655 341.926C208.496 341.595 207.24 343.995 206.757 345.237C206.274 346.272 205.019 348.176 203.86 347.514C202.701 346.851 202.135 347.376 201.997 347.721Z" fill="#E51F23"/>
  <path d="M131.425 193.124L124.596 230.583L149.43 227.271V207.817L131.425 193.124Z" fill="#E5E5E5" stroke="#333333" stroke-width="0.5"/>
  <path d="M103.072 236.584L107.625 268.042C107.985 270.525 110.535 271.146 111.764 271.146L146.533 266.179L150.672 243C149.348 243 147.913 242.034 147.361 241.551L149.017 227.478C136.185 229.134 109.695 232.528 106.384 232.859C103.072 233.19 102.796 235.48 103.072 236.584Z" fill="#DEEBF5" stroke="#01066E"/>
  <path d="M122.319 239.275C120.829 234.804 117.145 232.583 115.49 232.031L148.81 227.478C148.189 231.893 147.03 240.889 147.361 241.551C147.692 242.213 149.706 242.931 150.672 243.207L146.533 266.179L144.671 266.386C144.395 265.696 143.305 263.861 141.152 262.04C138.462 259.763 132.46 259.556 128.321 258.522C124.182 257.487 122.94 255.21 122.319 252.313C121.698 249.415 124.182 244.862 122.319 239.275Z" fill="#CEE0EF"/>
  <path d="M106.384 236.378L110.316 265.352" stroke="#01066E" stroke-width="2"/>
  <path d="M117.559 267.422C118.056 267.256 116.387 265.007 115.49 263.903C117.352 263.903 119.008 264.731 120.871 266.801C122.361 268.456 124.665 269.146 125.631 269.284C124.458 270.112 121.616 271.809 119.629 271.975C117.642 272.14 116.042 271.63 115.49 271.354L111.558 266.801C112.592 266.801 113.627 267.835 114.248 267.422C114.745 267.09 113.213 265.49 112.385 264.731C112.454 264.593 112.799 264.4 113.627 264.731C114.662 265.145 116.938 267.629 117.559 267.422Z" fill="#E5E5E5" stroke="#01066E"/>
  <path d="M170.616 133.106C170.782 137.577 167.788 140.902 166.27 142.006C167.926 142.006 173.1 146.352 174.962 147.593C176.825 148.835 179.308 150.077 179.929 148.628C180.426 147.469 185.931 142.212 188.621 139.729C181.833 136.749 181.792 128.002 182.62 124C182.068 125.173 180.219 127.808 177.239 128.967C174.259 130.126 171.582 127.795 170.616 126.484C170.547 126.829 170.451 128.636 170.616 133.106Z" fill="#E5E5E5" stroke="#333333" stroke-width="0.5"/>
  <path d="M165.394 86.4276C166.194 90.6697 163.929 90.9623 162.697 90.5783C161.837 89.9359 159.673 88.669 157.904 88.7415C156.134 88.814 156.77 90.9775 157.309 92.0502C158.719 95.0682 162.077 102.177 164.234 106.468C166.391 110.759 162.697 120.788 162.697 122.845C162.697 129.185 159.796 129.944 160.893 130.06C175.054 134.067 185.562 127.62 187.92 125.36C190.277 123.1 187.079 113.743 185.764 111.555C184.45 109.367 186.493 100.708 186.33 94.8237C186.167 88.9394 169.541 76.9262 165.953 76.5257C162.366 76.1252 164.395 81.125 165.394 86.4276Z" fill="#00045F"/>
  <path d="M175.54 100.485C179.084 102.488 182.414 101.151 183.636 100.232C184.109 100.318 184.768 101.268 183.624 104.377C182.902 108.395 184.453 110.625 184.459 113.309C184.464 115.994 183.198 116.254 181.628 115.485C180.059 114.715 176.66 111.908 173.587 111.357C170.515 110.805 167.969 115.47 166.315 115.173C164.661 114.876 165.685 111.889 166.025 109.998C166.364 108.107 166.098 104.156 164.481 100.938C162.863 97.72 165.476 94.0421 167.924 93.9939C170.372 93.9458 171.111 97.9819 175.54 100.485Z" fill="#E5E5E5"/>
  <path d="M174.023 120.461L179.774 118.323C180.006 119.747 180.019 122.66 178.216 122.922C176.412 123.184 174.669 121.39 174.023 120.461Z" fill="#C4C4C4"/>
  <path fill-rule="evenodd" clip-rule="evenodd" d="M169.948 99.1041C169.807 98.7321 169.391 98.545 169.019 98.6861L166.401 99.6796C166.029 99.8207 165.842 100.237 165.983 100.609C166.124 100.981 166.54 101.168 166.912 101.027L169.53 100.033C169.902 99.892 170.089 99.476 169.948 99.1041ZM182.127 103.864C182.197 103.472 181.937 103.098 181.546 103.028L177.292 102.264C176.9 102.193 176.526 102.454 176.455 102.845C176.385 103.237 176.645 103.611 177.037 103.682L181.291 104.446C181.682 104.516 182.057 104.256 182.127 103.864Z" fill="#0461FC"/>
  <circle r="0.960463" transform="matrix(-0.984246 -0.176807 -0.176807 0.984246 178.63 105.676)" fill="#01066E"/>
  <circle r="0.960463" transform="matrix(-0.984246 -0.176807 -0.176807 0.984246 168.45 105.31)" fill="#01066E"/>
  <path d="M172.89 113.183C172.028 112.76 172.549 111.007 172.97 110.026C173.697 108.693 173.261 105.687 173.346 105.214C173.431 104.742 174.376 104.911 174.594 106.414C174.812 107.917 175.115 108.947 175.527 110.729C175.939 112.511 174.46 113.953 172.89 113.183Z" fill="#0461FC"/>
  <path d="M125.147 243.474C125.491 244.602 127.045 246.506 130.508 245.093C130.104 244.041 128.467 242.243 125.147 243.474Z" fill="#00045F" fill-opacity="0.24"/>
  <ellipse cx="132.423" cy="250.643" rx="4.92069" ry="4.30561" transform="rotate(-6.94063 132.423 250.643)" fill="#00045F" fill-opacity="0.24"/>
  <path d="M119.008 353.069H140.117V355.139H119.008V353.069Z" fill="#00045F"/>
  <path d="M201.997 353.069H223.107V355.139H201.997V353.069Z" fill="#00045F"/>
  <path d="M279.185 314.865H240.691L246.486 355.221H274.218L279.185 314.865Z" fill="#B2CBE0"/>
  <path d="M281.048 297.48C280.716 306.752 271.804 307.828 267.388 307.207C263.057 307.207 258.075 300.171 257.662 295.204C257.248 290.237 262.215 285.27 265.526 282.993C268.837 280.717 271.321 268.3 271.321 257.538C271.321 246.776 277.943 242.844 286.014 247.19C294.086 251.536 285.394 266.437 282.289 273.473C279.185 280.51 281.461 285.891 281.048 297.48Z" fill="#0457E2"/>
  <path d="M246.693 301.206C246.858 308.325 255.178 309.277 259.317 308.863C264.895 306.384 265.524 303.492 266.555 298.748L266.561 298.722C267.595 293.962 261.387 284.649 260.145 280.717C258.903 276.785 261.18 267.058 259.317 258.366C257.455 249.674 250.625 250.501 246.693 254.434C242.761 258.366 246.693 268.714 248.762 278.233C250.832 287.753 246.486 292.306 246.693 301.206Z" fill="#B2CBE0"/>
  <path d="M285.187 257.538L291.395 252.985M276.701 297.894C277.364 297.729 282.082 295.066 284.359 293.755M262.422 297.894L267.388 292.514M246.486 280.096L251.453 283.821M256.006 292.514L257.869 314.658M271.528 289.409L264.905 314.658" stroke="#01066E"/>
  <path d="M214.829 103.066C216.863 102.2 221.615 100.729 224.348 101.768" stroke="black" stroke-width="0.5" stroke-linecap="round"/>
  <path d="M217.726 106.791C219.76 105.925 224.512 104.454 227.246 105.493" stroke="black" stroke-width="0.5" stroke-linecap="round"/>
  <path d="M222.693 109.688C224.727 108.823 229.479 107.351 232.213 108.39" stroke="black" stroke-width="0.5" stroke-linecap="round"/>
  <path d="M125.631 206.75C128.445 208.24 131.632 209.303 132.874 209.648" stroke="black" stroke-width="0.5"/>
  <path d="M125.631 209.855C128.445 211.345 131.632 212.407 132.874 212.752" stroke="black" stroke-width="0.5"/>
  <rect x="2" y="354" width="297" height="1" fill="#00045F"/>
  <path d="M49.8746 85.4205C49.8746 84.1312 50.6227 83.0861 51.5456 83.0861H86.6351C87.558 83.0861 88.3061 84.1312 88.3061 85.4205V112.033C88.3061 113.322 87.558 114.367 86.6351 114.367H51.5456C50.6227 114.367 49.8746 113.322 49.8746 112.033V85.4205Z" fill="#B3D8F8"/>
  <path d="M135.087 80.6025H142.729C146.069 80.6025 148.767 77.8744 148.729 74.5343L148.595 62.8046C148.578 61.2811 147.982 59.8213 146.928 58.7213L145.069 56.7813C143.937 55.6004 142.372 54.9327 140.737 54.9327H135.087C131.773 54.9327 129.087 57.619 129.087 60.9327V74.6025C129.087 77.9162 131.773 80.6025 135.087 80.6025Z" fill="#E0ECFF"/>
  <path d="M140.129 83.3527H145.479C148.819 83.3527 151.517 80.6243 151.478 77.2839L151.345 65.7048C151.345 63.0466 149.191 60.8917 146.532 60.8917H140.129C136.816 60.8917 134.129 63.578 134.129 66.8917V77.3527C134.129 80.6664 136.816 83.3527 140.129 83.3527Z" fill="#E0ECFF" fill-opacity="0.5"/>
  <path d="M147.786 79.8525H130.087C129.949 79.8525 129.837 79.7405 129.837 79.6025V55.9327C129.837 55.7947 129.949 55.6827 130.087 55.6827H142.87C142.938 55.6827 143.004 55.7106 143.051 55.7598L147.754 60.667L148.295 60.148L147.754 60.667C147.797 60.7128 147.822 60.7736 147.823 60.8371L148.036 79.5996C148.038 79.7388 147.925 79.8525 147.786 79.8525Z" stroke="#0556E2" stroke-width="1.5"/>
  <rect x="124.503" y="65.0172" width="18.7939" height="8.25098" rx="1" fill="#0556E2"/>
  <path d="M142.38 61.3502V54.9327L148.568 61.3502H142.38Z" fill="#0556E2"/>
  <path d="M128.9 69.7356C128.9 69.2589 129.007 68.8331 129.22 68.4582C129.437 68.0786 129.731 67.7847 130.101 67.5764C130.476 67.3635 130.895 67.257 131.358 67.257C131.899 67.257 132.374 67.3959 132.781 67.6736C133.189 67.9513 133.473 68.3355 133.635 68.8261H132.517C132.406 68.5947 132.249 68.4211 132.045 68.3054C131.846 68.1897 131.615 68.1318 131.351 68.1318C131.069 68.1318 130.816 68.199 130.594 68.3332C130.377 68.4628 130.205 68.6479 130.08 68.8886C129.96 69.1293 129.9 69.4116 129.9 69.7356C129.9 70.055 129.96 70.3374 130.08 70.5827C130.205 70.8234 130.377 71.0108 130.594 71.145C130.816 71.2746 131.069 71.3394 131.351 71.3394C131.615 71.3394 131.846 71.2816 132.045 71.1659C132.249 71.0455 132.406 70.8696 132.517 70.6382H133.635C133.473 71.1335 133.189 71.52 132.781 71.7977C132.379 72.0708 131.904 72.2073 131.358 72.2073C130.895 72.2073 130.476 72.1032 130.101 71.8949C129.731 71.682 129.437 71.388 129.22 71.0131C129.007 70.6382 128.9 70.2124 128.9 69.7356ZM138.819 67.3195L137.041 72.1656H135.861L134.084 67.3195H135.125L136.458 71.1728L137.784 67.3195H138.819Z" fill="#FCFCFC"/>
  <path d="M76.4638 168.439C68.2072 161.725 58.5887 149 62.1637 138.722C67.9811 121.997 89.9814 135.6 85.1779 144.978C80.4857 154.139 49.4277 139.392 80.4857 91.8" stroke="#0556E2" stroke-linecap="square" stroke-dasharray="4 4"/>
  <circle cx="85.1779" cy="88.0016" r="1.34063" fill="#FCD20A"/>
  <path d="M195.655 40.8327L192.628 42.9768L193.604 44.6695L194.58 46.3622L197.952 44.8155C198.609 45.539 199.366 46.1763 200.196 46.7007L199.26 50.2918L201.098 50.9623L202.937 51.6327L204.524 48.2805C205.001 48.3469 205.493 48.3801 205.984 48.3801C206.482 48.3801 206.966 48.3469 207.451 48.2805L209.037 51.6327L210.876 50.9623L212.715 50.2918L211.779 46.7007C212.609 46.1763 213.365 45.539 214.022 44.8155L217.395 46.3622L218.37 44.6695L219.346 42.9768L216.319 40.8327C216.611 39.9167 216.784 38.9542 216.824 37.9518L220.402 36.9694L220.063 35.0444L219.724 33.1194L216.027 33.4181C215.655 32.5021 215.158 31.6524 214.56 30.8824L216.671 27.8289L215.171 26.5744L213.671 25.3198L211.035 27.9285C210.179 27.4771 209.256 27.1386 208.281 26.9262L207.935 23.2355H205.984H204.032L203.687 26.9262C202.718 27.1386 201.789 27.4771 200.932 27.9285L198.297 25.3198L196.797 26.5744L195.297 27.8289L197.408 30.8824C196.81 31.6524 196.319 32.5021 195.941 33.4181L192.243 33.1194L191.905 35.0444L191.566 36.9694L195.144 37.9518C195.191 38.9475 195.363 39.9167 195.655 40.8327ZM205.991 41.2443C203.933 41.2443 202.267 39.5781 202.267 37.5204C202.267 35.4626 203.933 33.7965 205.991 33.7965C208.048 33.7965 209.714 35.4626 209.714 37.5204C209.714 39.5781 208.048 41.2443 205.991 41.2443Z" fill="#C1DEF4"/>
  <path d="M227.225 22.1801L225.174 23.6338L225.838 24.7821L226.502 25.9305L228.792 24.8817C229.237 25.3729 229.748 25.8044 230.312 26.1562L229.675 28.5923L230.923 29.0437L232.171 29.4951L233.246 27.2183C233.571 27.2647 233.903 27.2847 234.242 27.2847C234.58 27.2847 234.912 27.2647 235.237 27.2183L236.313 29.4951L237.561 29.0437L238.809 28.5923L238.171 26.1562C238.736 25.7977 239.247 25.3729 239.691 24.8817L241.982 25.9305L242.645 24.7821L243.309 23.6338L241.258 22.1801C241.457 21.5627 241.577 20.9056 241.603 20.2219L244.033 19.5581L243.8 18.2504L243.568 16.9427L241.059 17.1485C240.807 16.5311 240.468 15.9536 240.063 15.4292L241.497 13.3582L240.481 12.5085L239.466 11.6589L237.674 13.4246C237.089 13.1192 236.465 12.8869 235.808 12.7475L235.576 10.245H234.248H232.921L232.688 12.7475C232.031 12.8869 231.401 13.1192 230.823 13.4246L229.031 11.6589L228.015 12.5085L227 13.3582L228.433 15.4292C228.029 15.9536 227.69 16.5311 227.438 17.1485L224.929 16.9427L224.696 18.2504L224.464 19.5581L226.893 20.2219C226.907 20.8989 227.026 21.5561 227.225 22.1801ZM234.235 22.4589C232.841 22.4589 231.706 21.3304 231.706 19.9298C231.706 18.5358 232.834 17.4007 234.235 17.4007C235.636 17.4007 236.764 18.5292 236.764 19.9298C236.764 21.3304 235.629 22.4589 234.235 22.4589Z" fill="#C1DEF4"/>
  <path d="M259.26 54.188H235.864C235.103 54.188 234.326 54.8033 234.132 55.5642L230.553 69.343L230.043 71.2941L229.363 73.909C229.088 74.9533 230.043 75.6172 231.096 75.1072L238.584 71.4722C238.819 71.3589 239.062 71.3022 239.297 71.3022H254.816C255.577 71.3022 256.354 70.6869 256.548 69.9259L260.28 55.5642C260.475 54.8033 260.021 54.188 259.26 54.188Z" fill="#B3D8F8"/>
  <path d="M254.549 50.4639H231.152C230.391 50.4639 229.614 51.0791 229.42 51.8401L225.842 65.6189L225.332 67.57L224.651 70.1849C224.376 71.2292 225.332 71.8931 226.384 71.383L233.872 67.7481C234.107 67.6347 234.35 67.5781 234.585 67.5781H250.104C250.865 67.5781 251.642 66.9628 251.837 66.2018L255.569 51.8482C255.763 51.0791 255.31 50.4639 254.549 50.4639Z" fill="#0556E2"/>
  <path d="M242.745 56.5276H231.379L231.63 55.548H243.004L242.745 56.5276Z" fill="white"/>
  <path d="M250.379 59.5796H230.586L230.845 58.5919H250.639L250.379 59.5796Z" fill="white"/>
  <path d="M246.769 62.6236H229.792L230.051 61.644H247.028L246.769 62.6236Z" fill="white"/>
  <path d="M205.035 35.6683H191.002C189.568 35.6683 188.407 36.83 188.407 38.2638V52.2964C188.407 53.7302 189.568 54.8919 191.002 54.8919H205.035C206.468 54.8919 207.63 53.7302 207.63 52.2964V38.2638C207.63 36.83 206.468 35.6683 205.035 35.6683Z" fill="#0556E2"/>
  <path d="M193.425 46.7937L192.077 47.7496L192.515 48.4997L192.953 49.2497L194.454 48.5594C194.746 48.878 195.084 49.1634 195.449 49.3958L195.031 50.9955L195.848 51.2942L196.664 51.5929L197.368 50.0994C197.58 50.126 197.799 50.1459 198.018 50.1459C198.237 50.1459 198.456 50.1326 198.669 50.0994L199.372 51.5929L200.189 51.2942L201.005 50.9955L200.587 49.3958C200.959 49.1634 201.291 48.878 201.583 48.5594L203.083 49.2497L203.521 48.4997L203.959 47.7496L202.612 46.7937C202.744 46.3888 202.818 45.9573 202.837 45.5126L204.431 45.0745L204.278 44.2182L204.125 43.3619L202.479 43.4946C202.313 43.0897 202.094 42.7113 201.828 42.3662L202.764 41.0054L202.101 40.4478L201.437 39.8902L200.262 41.0519C199.884 40.8527 199.472 40.7 199.04 40.6071L198.888 38.9675H198.018H197.149L196.996 40.6071C196.565 40.7 196.153 40.8527 195.775 41.0519L194.6 39.8902L193.936 40.4478L193.272 41.0054L194.208 42.3662C193.943 42.7113 193.723 43.0897 193.558 43.4946L191.911 43.3619L191.759 44.2182L191.606 45.0745L193.199 45.5126C193.212 45.9573 193.292 46.3888 193.425 46.7937ZM198.018 46.9796C197.102 46.9796 196.359 46.2361 196.359 45.3201C196.359 44.404 197.102 43.6606 198.018 43.6606C198.934 43.6606 199.678 44.404 199.678 45.3201C199.678 46.2361 198.934 46.9796 198.018 46.9796Z" fill="white"/>
  <path d="M82.6265 78.1703H50.1729C48.5261 78.1703 47.1933 79.441 47.1933 81.0112V108.281C47.1933 109.851 48.5261 111.122 50.1729 111.122H82.6265C84.2733 111.122 85.6061 109.851 85.6061 108.281V81.0112C85.6061 79.441 84.2733 78.1703 82.6265 78.1703Z" fill="white"/>
  <path d="M82.6265 78.1703H50.1729C48.5261 78.1703 47.1933 79.441 47.1933 81.0112V82.523H85.6061V81.0112C85.6061 79.441 84.2733 78.1703 82.6265 78.1703Z" fill="#01066E"/>
  <path d="M50.7167 81.2885C51.2624 81.2885 51.7048 80.8667 51.7048 80.3464C51.7048 79.8261 51.2624 79.4043 50.7167 79.4043C50.171 79.4043 49.7286 79.8261 49.7286 80.3464C49.7286 80.8667 50.171 81.2885 50.7167 81.2885Z" fill="#FF3E0D"/>
  <path d="M54.1099 81.2885C54.6556 81.2885 55.098 80.8667 55.098 80.3464C55.098 79.8261 54.6556 79.4043 54.1099 79.4043C53.5642 79.4043 53.1218 79.8261 53.1218 80.3464C53.1218 80.8667 53.5642 81.2885 54.1099 81.2885Z" fill="#FDD45B"/>
  <path d="M57.5108 81.2885C58.0565 81.2885 58.4988 80.8667 58.4988 80.3464C58.4988 79.8261 58.0565 79.4043 57.5108 79.4043C56.9651 79.4043 56.5227 79.8261 56.5227 80.3464C56.5227 80.8667 56.9651 81.2885 57.5108 81.2885Z" fill="#4E99FF"/>
  <path d="M54.118 87.4897H50.0431V88.3661H54.118V87.4897Z" fill="#4E99FF"/>
  <path d="M64.7183 87.489H55.0979V88.3654H64.7183V87.489Z" fill="#FDD45B"/>
  <path d="M70.0264 87.489H65.7064V88.3654H70.0264V87.489Z" fill="#4E99FF"/>
  <path d="M82.2588 87.489H71.0145V88.3654H82.2588V87.489Z" fill="#FF3E0D"/>
  <path d="M59.4179 90.1692H50.0426V91.0456H59.4179V90.1692Z" fill="#FF3E0D"/>
  <path d="M64.726 90.1692H60.406V91.0456H64.726V90.1692Z" fill="#4E99FF"/>
  <path d="M82.2587 90.1692H65.7064V91.0456H82.2587V90.1692Z" fill="#FDD45B"/>
  <path d="M59.4179 92.8568H50.0426V93.7332H59.4179V92.8568Z" fill="#FF3E0D"/>
  <path d="M70.0264 92.8568H60.406V93.7332H70.0264V92.8568Z" fill="#FDD45B"/>
  <path d="M82.2588 92.8568H71.0145V93.7332H82.2588V92.8568Z" fill="#FF3E0D"/>
  <path d="M70.0264 95.5443H50.0426V96.4207H70.0264V95.5443Z" fill="#4E99FF"/>
  <path d="M75.3345 95.5443H71.0145V96.4207H75.3345V95.5443Z" fill="#FDD45B"/>
  <path d="M82.2588 95.5443H76.315V96.4207H82.2588V95.5443Z" fill="#FF3E0D"/>
  <path d="M59.4179 98.2318H50.0426V99.1082H59.4179V98.2318Z" fill="#FF3E0D"/>
  <path d="M70.0264 98.2318H60.406V99.1082H70.0264V98.2318Z" fill="#4E99FF"/>
  <path d="M82.2588 98.2318H71.0145V99.1082H82.2588V98.2318Z" fill="#4E99FF"/>
  <path d="M54.1175 100.92H50.0426V101.796H54.1175V100.92Z" fill="#FDD45B"/>
  <path d="M59.4179 100.92H55.0979V101.796H59.4179V100.92Z" fill="#4E99FF"/>
  <path d="M75.3345 100.92H60.406V101.796H75.3345V100.92Z" fill="#4E99FF"/>
  <path d="M82.2588 100.92H76.315V101.796H82.2588V100.92Z" fill="#FF3E0D"/>
  <path d="M54.1175 103.607H50.0426V104.483H54.1175V103.607Z" fill="#FF3E0D"/>
  <path d="M64.7183 103.607H55.0979V104.483H64.7183V103.607Z" fill="#4E99FF"/>
  <path d="M70.0264 103.607H65.7064V104.483H70.0264V103.607Z" fill="#FDD45B"/>
  <path d="M82.2588 103.607H71.0145V104.483H82.2588V103.607Z" fill="#FF3E0D"/>
  <path opacity="0.2" d="M42.9725 231.449H23.7077C23.1039 231.449 22.6151 230.953 22.6151 230.341V210.66C22.6151 210.048 23.1039 209.552 23.7077 209.552H42.9725C43.5764 209.552 44.0652 210.048 44.0652 210.66V230.341C44.0652 230.953 43.5764 231.449 42.9725 231.449Z" fill="#0561FC"/>
  <path d="M39.3975 227.874H20.1327C19.5289 227.874 19.0401 227.378 19.0401 226.766V207.085C19.0401 206.473 19.5289 205.977 20.1327 205.977H39.3975C40.0014 205.977 40.4902 206.473 40.4902 207.085V226.766C40.4902 227.378 40.0014 227.874 39.3975 227.874Z" fill="#FC2731"/>
  <path d="M26.4135 219.384C29.2518 219.384 31.5526 217.083 31.5526 214.244C31.5526 211.406 29.2518 209.105 26.4135 209.105C23.5753 209.105 21.2744 211.406 21.2744 214.244C21.2744 217.083 23.5753 219.384 26.4135 219.384Z" fill="#00056D"/>
  <path d="M29.9386 209.999L26.1901 214.468H31.9988C32.0274 212.68 31.2262 211.095 29.9386 209.999Z" fill="white"/>
  <path d="M37.2901 212.233H35.1996C34.4368 212.233 33.787 211.545 33.787 210.669C33.787 209.825 34.4085 209.105 35.1996 209.105H37.2901C38.0529 209.105 38.7027 209.794 38.7027 210.669C38.6744 211.545 38.0529 212.233 37.2901 212.233Z" fill="white"/>
  <path d="M33.3401 217.149H39.1495" stroke="#00056D" stroke-miterlimit="10"/>
  <path d="M21.2744 222.512H32.8933" stroke="#00056D" stroke-miterlimit="10"/>
  <path d="M21.2744 224.299H28.8714" stroke="#00056D" stroke-miterlimit="10"/>
</svg>
