<svg width="794" height="488" viewBox="0 0 794 488" fill="none" xmlns="http://www.w3.org/2000/svg">
  <rect x="1" y="485" width="686" height="2" fill="#00045F"/>
  <path d="M289.319 471.51C287.928 476.379 280.045 482.233 276.277 484.552H216.283C212.226 470.93 206.197 441.948 214.544 434.992C224.978 426.297 244.976 430.644 257.148 438.47C266.887 444.73 279.175 456.729 284.102 461.945C285.493 459.859 289.899 458.757 291.927 458.468C291.638 460.786 290.71 466.641 289.319 471.51Z" fill="#C6E2FA"/>
  <path d="M277.146 475.857C276.567 477.016 275.06 478.987 273.668 477.596C272.277 476.205 272.509 474.698 272.799 474.118C272.219 474.987 270.712 476.552 269.321 475.857C267.93 475.161 268.741 472.669 269.321 471.51" stroke="#0556E2"/>
  <path d="M285.841 478.465L276.277 484.552H292.797C292.797 480.378 288.16 478.755 285.841 478.465Z" fill="#0556E2"/>
  <circle r="4.34737" transform="matrix(-1 0 0 1 265.843 467.162)" fill="#F2F2F2"/>
  <circle r="4.34737" transform="matrix(-1 0 0 1 281.494 470.64)" fill="#F2F2F2"/>
  <circle r="2.60842" transform="matrix(-1 0 0 1 281.494 470.64)" fill="#0556E2"/>
  <circle r="2.60842" transform="matrix(-1 0 0 1 265.843 467.162)" fill="#0556E2"/>
  <path d="M241.498 479.335C238.02 477.248 230.195 478.465 226.717 479.335C232.513 472.959 241.672 459.685 231.934 457.598C222.196 455.511 213.965 460.206 211.066 462.815C212.458 454.468 204.98 449.483 199.763 446.295C196.285 443.687 193.677 442.926 189.33 435.861C183.765 426.819 192.518 423.109 197.155 422.819C204.806 424.3 203.821 429.812 202.372 432.383C198.198 435.166 198.894 437.021 199.763 437.6C203.937 439.687 206.719 434.992 207.589 432.383C210.371 421.95 200.053 418.762 194.546 418.472C191.648 418.182 185.33 419.863 183.243 428.905C180.635 440.209 199.763 451.512 204.111 457.598C207.589 462.467 207.878 477.596 207.589 484.552H244.106C244.686 483.682 244.976 481.422 241.498 479.335Z" fill="#0556E2"/>
  <path d="M259.757 457.598H268.452C267.582 453.83 265.495 446.295 264.104 446.295C262.713 446.295 260.626 453.83 259.757 457.598Z" fill="#0556E2"/>
  <path d="M378.498 134.348C377.298 134.348 375 130.85 374 129.1C375.874 124.103 379.398 114.782 378.498 117.481C377.373 120.854 379.997 134.348 378.498 134.348Z" fill="#0556E2"/>
  <path d="M373 131L384.216 101.603V97.4801L377.469 89.2339L369.223 90.3584L370.722 103.852L364.725 118.845V128.966L373 131Z" stroke="#01066E"/>
  <path fill-rule="evenodd" clip-rule="evenodd" d="M384.43 109.642C380.047 106.944 376.058 108.489 374.518 109.721C374.033 110.109 373.954 110.817 374.342 111.302C374.73 111.787 375.437 111.865 375.922 111.477C376.881 110.711 379.838 109.456 383.252 111.557C383.781 111.882 384.473 111.718 384.799 111.189C385.124 110.66 384.959 109.967 384.43 109.642Z" fill="#0556E2"/>
  <path d="M355.354 149.582C355.654 163.076 362.226 179.193 365.474 182.942C346.733 197.56 318.246 187.065 306.626 182.942C297.33 179.643 310.624 171.942 311.499 170.068C314.248 167.819 301.185 164.061 306.626 161.649C320.19 155.635 332.489 137.212 334.364 134.214C335.863 131.815 337.737 130.965 338.487 130.84C344.484 129.716 353.48 121.095 355.354 118.846C357.228 116.597 355.354 110.599 359.102 104.977C362.851 99.3545 365.474 100.854 366.974 104.977C368.173 108.275 366.474 111.849 365.474 113.223C362.101 118.096 354.604 129.491 351.606 136.088C348.607 142.685 352.855 147.833 355.354 149.582Z" fill="#E5E5E5" stroke="#01066E" stroke-width="1.5"/>
  <path d="M361.847 105.462C361.579 105.529 361.308 105.366 361.241 105.098C361.174 104.83 361.337 104.558 361.604 104.492L361.847 105.462ZM362.391 111.527C362.945 110.232 363.533 108.392 363.559 107.019C363.572 106.321 363.438 105.864 363.213 105.625C363.025 105.424 362.655 105.26 361.847 105.462L361.604 104.492C362.596 104.244 363.406 104.37 363.942 104.94C364.442 105.472 364.574 106.265 364.559 107.038C364.529 108.607 363.88 110.591 363.31 111.92L362.391 111.527Z" fill="#01066E"/>
  <path d="M399.959 78.3639C398.759 87.3598 388.963 97.3553 384.216 101.229C381.817 92.5325 375.47 91.6079 372.596 92.2326C371.696 93.732 372.971 97.3553 373.72 98.9796C373.72 102.728 371.472 107.975 366.974 118.471C363.375 126.867 369.972 129.965 373.72 130.465C371.322 140.061 373.471 153.955 374.845 159.702C362.476 157.828 360.601 154.454 353.855 148.457C347.108 142.46 351.606 134.588 353.855 130.465C356.103 126.342 360.601 120.345 363.975 115.097C366.674 110.899 367.098 106.601 366.974 104.977C364.725 98.6047 360.601 102.353 358.727 104.977C357.228 107.076 356.103 114.847 355.729 118.471C351.83 126.567 341.11 131.09 336.238 132.339L333.614 135.713L330.24 131.59L335.488 127.092C341.485 121.095 343.734 104.977 345.233 97.8551C346.433 92.1577 351.481 89.234 353.855 88.4843C350.856 83.2367 356.478 72.7415 360.601 67.119C363.9 62.6211 364.225 57.4984 363.975 55.4993C372.371 55.4993 378.218 65.2449 380.093 70.1177C383.691 67.4189 386.34 58.2481 387.214 54C392.462 56.6238 401.458 67.119 399.959 78.3639Z" fill="#01066E"/>
  <path d="M364.725 136.462L368.848 142.085C368.098 142.835 366.224 144.184 364.725 143.584C363.225 142.984 364.1 138.586 364.725 136.462Z" fill="#E5E5E5"/>
  <circle r="1.49932" transform="matrix(-1 0 0 1 375.22 116.222)" fill="#01066E"/>
  <path d="M216.899 200.739V73.2444H1.00008V259.675H192.843" stroke="#01066E" stroke-width="1.5"/>
  <rect width="182.822" height="152.753" transform="matrix(-1 0 0 1 200.06 87.0764)" fill="#B5D7FA"/>
  <path d="M222.164 381.155L199.311 485.196M472.342 485.196L513.236 299.367M630.507 485.196L595.174 330.037M589.011 302.975L595.174 330.037M595.174 330.037H507.823M383.336 191.718C389.149 163.052 400.776 102.472 400.776 89.4819C400.776 76.4919 414.007 73.2444 420.622 73.2444H635.318C641.532 73.2444 653.36 76.4919 650.954 89.4819L625.696 232.011C625.495 235.82 621.486 243.798 607.053 245.242H425.433" stroke="#01066E" stroke-width="1.5"/>
  <path d="M374.315 449.113V467.154L361.686 474.371L355.672 449.113H374.315Z" fill="#EDE9E9"/>
  <path d="M496.397 290.947C501.208 281.926 506.621 281.325 515.04 281.325C521.371 281.325 524.301 286.991 525.13 290.336L496.397 290.947Z" fill="#0556E2"/>
  <path d="M388.749 415.435C392.597 405.813 403.984 393.384 409.196 388.372H362.287C347.373 397.995 350.059 434.88 353.267 452.12H378.525C380.329 443.901 384.9 425.057 388.749 415.435Z" fill="#0556E2"/>
  <path d="M368.899 467.932L375.07 459.557C375.669 458.744 376.781 458.505 377.661 459L401.418 472.364C403.622 473.604 404.986 475.936 404.986 478.465V484.594H359.882V471.56C359.882 470.455 360.777 469.56 361.882 469.56H365.679C366.95 469.56 368.145 468.956 368.899 467.932Z" fill="#F22126"/>
  <path d="M525.865 444.903L535.487 459.336V462.944L530.676 473.168L524.061 470.763L511.432 452.119L525.865 444.903Z" fill="#EDE9E9"/>
  <rect width="44.5028" height="4.81111" transform="matrix(-1 0 0 1 404.385 480.385)" fill="#01066E"/>
  <rect width="102.236" height="9.62222" transform="matrix(-1 0 0 1 629.304 290.346)" fill="#0556E2"/>
  <rect width="157.564" height="9.62222" transform="matrix(-1 0 0 1 527.068 290.346)" fill="#01066E"/>
  <path d="M401.378 216.976C404.264 223.231 421.825 239.629 430.244 247.046V271.703C430.244 278.919 421.224 289.143 413.405 290.346C407.151 291.308 388.749 283.931 380.329 280.122C379.728 295.758 366.497 325.226 355.071 333.646C345.93 340.381 322.395 342.065 311.771 342.065L280.499 250.654C285.911 244.039 299.142 175.48 299.142 168.865C299.142 162.25 305.757 159.243 316.582 161.047C327.407 162.851 352.665 172.474 372.511 184.501C392.357 196.529 397.769 209.158 401.378 216.976Z" fill="#FCD20A"/>
  <path d="M520.752 281.926H506.621C502.772 281.926 498.201 287.94 496.397 290.947H414.608L426.636 266.892L430.244 247.046L483.768 278.92C492.789 278.92 494.593 267.493 506.621 266.892C514.852 266.48 520.149 273.96 522.513 279.394C523.049 280.628 522.097 281.926 520.752 281.926Z" fill="#EDE9E9" stroke="#01066E"/>
  <path d="M346.05 218.781L360.7 244.039M380.931 278.919L360.7 244.039M360.7 244.039H346.05" stroke="#01066E" stroke-width="2"/>
  <path d="M162.025 223.592H248.625C256.844 224.794 274.725 231.891 280.499 250.654L315.98 354.093C318.186 362.111 329.331 378.149 356.274 378.149C383.216 378.149 409.597 378.149 419.419 378.149M423.028 387.771H242.01C235.595 388.573 220.36 385.004 210.737 364.317L178.262 274.108M206.528 241.032H242.01C247.021 240.831 260.893 244.279 264.261 259.675L283.505 312.597" stroke="#01066E" stroke-width="2" stroke-linecap="round"/>
  <path d="M563.753 289.744L549.319 245.242H477.153L484.971 276.514" stroke="black"/>
  <path d="M328.61 387.771L304.534 477.508C303.127 482.752 298.373 486.399 292.944 486.399H236.439C228.24 486.399 222.455 478.357 225.062 470.583L252.835 387.771" stroke="#01066E" stroke-width="2"/>
  <path d="M302.149 387.771L330.501 477.996C332.073 482.997 336.708 486.399 341.949 486.399H408.013C416.253 486.399 422.041 478.286 419.361 470.495L390.902 387.771" stroke="#01066E" stroke-width="2"/>
  <path d="M613.067 222.99L634.119 100C635.06 94.5029 630.825 89.4819 625.248 89.4819H487.978" stroke="#01066E"/>
  <path d="M332.218 388.974L353.868 487" stroke="#01066E" stroke-width="2"/>
  <path d="M566.76 476.773V485.797H522.257V471.161C522.257 470.609 522.705 470.161 523.257 470.161H527.442C528.669 470.161 529.772 469.414 530.228 468.275L533.082 461.14L536.118 459.453C537.6 458.63 539.398 458.614 540.894 459.41L563.577 471.475C565.536 472.517 566.76 474.554 566.76 476.773Z" fill="#F22126"/>
  <rect width="44.5028" height="6.01389" transform="matrix(-1 0 0 1 566.76 479.783)" fill="#01066E"/>
  <path d="M486.33 348.264L369.504 314.401C366.698 319.012 359.521 329.436 353.267 334.247C347.012 339.058 323.398 341.865 312.372 342.667C316.702 369.609 337.43 377.146 347.253 377.547C364.493 377.748 402.34 378.028 415.811 377.547C429.282 377.066 444.277 388.172 450.09 393.785L507.222 455.126L529.474 443.7L496.829 357.94C495.042 353.245 491.155 349.662 486.33 348.264Z" fill="#0556E2"/>
  <path d="M522.858 447.308L475.95 362.513L378.277 336.653M383.937 330.639L364.693 351.086" stroke="white"/>
  <path d="M703.216 382.689H793.005" stroke="#BFD7F0" stroke-width="2" stroke-miterlimit="10"/>
  <path d="M722.691 363V382.689" stroke="#BFD7F0" stroke-width="2" stroke-miterlimit="10"/>
  <path d="M753.1 406.227V382.689" stroke="#BFD7F0" stroke-width="2" stroke-miterlimit="10"/>
  <path d="M776.854 406.227H650" stroke="#BFD7F0" stroke-width="2" stroke-miterlimit="10"/>
  <path d="M729.817 406.227V428.802" stroke="#BFD7F0" stroke-width="2" stroke-miterlimit="10"/>
  <path d="M703.216 428.801H793.005" stroke="#BFD7F0" stroke-width="2" stroke-miterlimit="10"/>
  <path d="M96.3715 39.6523H216.554" stroke="#BFD7F0" stroke-width="2" stroke-miterlimit="10"/>
  <path d="M73.0001 19.8767H159.294" stroke="#BFD7F0" stroke-width="2" stroke-miterlimit="10"/>
  <path d="M87.3823 1H130.529" stroke="#BFD7F0" stroke-width="2" stroke-miterlimit="10"/>
  <path d="M111.653 1L111.653 19.8768" stroke="#BFD7F0" stroke-width="2" stroke-miterlimit="10"/>
  <path d="M140.417 20.7756L140.417 39.6524" stroke="#BFD7F0" stroke-width="2" stroke-miterlimit="10"/>
  <path d="M161.699 136C161.699 136 115.199 154.5 105.599 178.7C95.9993 202.9 112.599 224.4 112.599 224.4C112.599 224.4 115.199 204.5 133.499 197.2C151.899 189.9 165.299 156.1 161.699 136Z" fill="#C5E1F9"/>
  <path d="M136.199 250.3C136.199 250.3 114.399 263.8 109.299 293.1C104.299 322.4 106.099 332.1 106.099 332.1C106.099 332.1 148.699 304.5 136.199 250.3Z" fill="#0561FC"/>
  <path d="M60.9992 234.9C60.9992 234.9 57.2992 257.7 73.7992 276.2C90.2992 294.7 97.7992 298.1 97.7992 298.1C97.7992 298.1 104.199 252.9 60.9992 234.9Z" fill="#C5E1F9"/>
  <path d="M55.4994 105C55.4994 105 53.4994 122.9 67.2994 143.5C79.8994 162.3 92.1994 168.2 92.1994 168.2C92.1994 168.2 105.399 121.4 55.4994 105Z" fill="#0561FC"/>
  <path d="M40.7995 156.8C40.7995 156.8 72.9995 163 83.3995 188.6C93.7995 214.2 82.5995 237.3 82.5995 237.3C73.1995 214.9 29.6995 210.3 40.7995 156.8Z" fill="#0561FC"/>
  <path d="M79.2993 263.5C79.2993 263.5 101.799 290.8 100.699 329.3C99.5993 367.8 100.699 397.7 100.699 397.7" stroke="#00056D" stroke-miterlimit="10"/>
  <path d="M64.9995 189.5C64.9995 189.5 84.4995 236.2 88.0995 252C91.7995 267.7 90.7995 397.7 90.7995 397.7" stroke="#00056D" stroke-miterlimit="10"/>
  <path d="M73.7993 129.6C73.7993 129.6 97.5993 162.6 98.3993 201.8V250.3" stroke="#00056D" stroke-miterlimit="10"/>
  <path d="M129.499 484.9H61.8994L55.3994 397.7H136.999L129.499 484.9Z" fill="#C5E1F9"/>
  <path d="M136.999 165.1C136.999 165.1 113.499 200.6 112.499 227.9C111.299 264.6 112.499 397.2 112.499 397.2" stroke="#00056D" stroke-miterlimit="10"/>
  <path d="M584.475 231.795L423.487 235.41C420.617 235.509 418.659 233.297 419.264 230.713L439.481 129.578C439.984 126.902 442.783 124.718 445.653 124.62L606.64 121.005C609.51 120.906 611.469 123.118 610.863 125.702L590.646 226.837C590.044 229.516 587.345 231.697 584.475 231.795Z" fill="white"/>
  <path d="M569.015 147.831L411.492 151.327C407.035 151.385 404.051 148.164 404.901 144.053L421.562 60.6027C422.412 56.4913 426.752 53.0199 431.11 52.9656L588.634 49.4691C593.091 49.4114 596.074 52.632 595.224 56.7434L578.566 140.289C577.713 144.305 573.469 147.678 569.015 147.831Z" fill="#B9DAFF"/>
  <path d="M440.129 90.6316L591.018 87.2674L589.659 93.8646L438.769 97.2287L440.129 90.6316Z" fill="white"/>
  <path d="M442.749 77.4406L593.638 74.0765L592.279 80.6737L441.389 84.0378L442.749 77.4406Z" fill="white"/>
  <path d="M445.451 63.7717L596.341 60.4075L594.981 67.0047L444.191 70.3655L445.451 63.7717Z" fill="white"/>
  <path d="M433.008 99.7044C433.008 99.7044 442.513 79.2523 452.714 79.0928C462.911 78.8385 461.68 103.659 469.502 103.486C477.323 103.313 477.638 95.1379 485.361 94.9683C493.083 94.7987 488.982 108.135 499.578 107.962C510.175 107.789 532.52 54.3341 549.154 53.9543C565.787 53.5745 554.906 85.9408 568.273 85.6728C581.64 85.4049 602.837 59.141 602.837 59.141" stroke="#0561FC" stroke-miterlimit="10"/>
  <path opacity="0.2" d="M610.845 171.461L544.709 172.967C542.63 173.038 541.288 171.47 541.619 169.56L553.974 107.903C554.404 105.989 556.331 104.404 558.41 104.333L624.546 102.828C626.625 102.756 627.967 104.324 627.636 106.234L615.281 167.892C614.851 169.805 612.825 171.394 610.845 171.461Z" fill="#0561FC"/>
  <path d="M600.651 160.228L534.514 161.734C532.436 161.805 531.094 160.237 531.425 158.327L543.78 96.67C544.21 94.7566 546.137 93.1716 548.215 93.1004L614.352 91.5947C616.431 91.5235 617.772 93.0915 617.441 95.0016L605.087 156.659C604.756 158.569 602.73 160.157 600.651 160.228Z" fill="#FC2731"/>
  <path d="M561.042 134.908C570.645 134.674 580.002 127.233 581.778 118.343C583.554 109.453 577.168 102.362 567.565 102.596C557.962 102.83 548.605 110.27 546.829 119.16C544.954 128.054 551.34 135.145 561.042 134.908Z" fill="#00056D"/>
  <path d="M579.905 104.167L564.152 118.662L584.153 118.262C585.443 112.522 583.687 107.55 579.905 104.167Z" fill="white"/>
  <path d="M603.119 110.777L595.792 110.933C593.12 111.024 591.267 108.999 591.777 106.513C592.286 104.027 594.887 101.85 597.661 101.85L604.988 101.694C607.66 101.602 609.513 103.627 609.003 106.113C608.296 108.606 605.791 110.685 603.119 110.777Z" fill="white"/>
  <path d="M586.738 127.192L606.142 126.717" stroke="#00056D" stroke-miterlimit="10"/>
  <path d="M541.554 144.499L581.652 143.6" stroke="#00056D" stroke-miterlimit="10"/>
  <path d="M540.373 150.521L566.114 149.924" stroke="#00056D" stroke-miterlimit="10"/>
  <path d="M512.225 213.953L450.443 215.31C448.464 215.378 447.224 213.901 447.558 212.086L453.565 182.07C453.9 180.255 455.83 178.764 457.81 178.697L519.592 177.34C521.571 177.272 522.811 178.749 522.477 180.564L516.47 210.58C516.132 212.3 514.205 213.885 512.225 213.953Z" fill="#C5E1F9"/>
  <path d="M518.048 207.488L456.266 208.844C454.287 208.912 453.047 207.435 453.381 205.62L459.388 175.604C459.722 173.789 461.653 172.299 463.632 172.231L525.414 170.875C527.394 170.807 528.633 172.283 528.299 174.099L522.292 204.114C521.862 206.028 520.031 207.515 518.048 207.488Z" fill="#0561FC"/>
  <path d="M479.451 188.588L465.292 188.883C464.501 188.911 463.983 188.264 464.056 187.502L465.406 180.62C465.578 179.855 466.35 179.259 467.142 179.231L481.301 178.936C482.092 178.909 482.61 179.556 482.537 180.318L481.187 187.2C481.111 187.867 480.342 188.558 479.451 188.588Z" stroke="white" stroke-miterlimit="10"/>
  <path d="M466.069 179.743L472.077 184.474C472.588 184.931 473.479 184.9 474.156 184.402L482.109 179.383" stroke="white" stroke-miterlimit="10"/>
  <path d="M470.646 183.194L466.779 185.984" stroke="white" stroke-miterlimit="10"/>
  <path d="M476.291 183.095L479.057 185.753" stroke="white" stroke-miterlimit="10"/>
  <path d="M508.506 180.568L490.586 180.992C489.992 181.012 489.58 180.552 489.66 179.979C489.739 179.407 490.32 179.007 490.914 178.987L508.834 178.563C509.427 178.543 509.84 179.003 509.76 179.576C509.677 180.053 509.1 180.548 508.506 180.568Z" fill="white"/>
  <path d="M502.902 184.747L489.832 185.005C489.238 185.025 488.826 184.565 488.905 183.992C488.985 183.42 489.566 183.02 490.16 183L503.23 182.742C503.824 182.722 504.236 183.183 504.156 183.755C504.077 184.327 503.397 184.73 502.902 184.747Z" fill="white"/>
  <path d="M499.924 201.938L477.547 202.419C476.458 202.457 475.637 201.63 475.899 200.577L476.656 196.659C476.818 195.609 477.977 194.715 479.065 194.678L501.442 194.196C502.531 194.159 503.352 194.985 503.09 196.038L502.333 199.957C502.171 201.006 501.012 201.901 499.924 201.938Z" fill="#FF2227"/>
  <path d="M533.289 201.175L510.913 201.656C509.824 201.693 509.003 200.867 509.264 199.814L510.022 195.896C510.184 194.846 511.342 193.952 512.431 193.914L534.807 193.433C535.896 193.395 536.717 194.222 536.456 195.275L535.698 199.193C535.437 200.247 534.378 201.137 533.289 201.175Z" fill="#00056D"/>
  <path d="M521.573 197.589L522.602 198.692L525.496 196.41" stroke="white" stroke-miterlimit="10" stroke-linecap="round" stroke-linejoin="round"/>
  <path d="M487.749 199.411L490.544 197.132" stroke="white" stroke-miterlimit="10" stroke-linecap="round" stroke-linejoin="round"/>
  <path d="M488.169 197.214L490.124 199.33" stroke="white" stroke-miterlimit="10" stroke-linecap="round" stroke-linejoin="round"/>
</svg>
