<svg width="363" height="286" viewBox="0 0 363 286" fill="none" xmlns="http://www.w3.org/2000/svg">
  <path d="M303.244 208.703C286.88 220.04 277.648 240.106 270.83 259.719C267.893 268.108 265.27 276.611 262.333 285H78.865C69.529 275.477 60.0881 266.067 50.3325 257.225C35.5417 243.847 17.1844 236.138 2.70837 221.854C-10.8236 208.363 -21.838 190.791 -24.5653 171.064C-27.2927 151.338 -20.5792 129.345 -5.26395 118.235C9.2121 107.691 27.989 108.258 45.2973 106.331C86.7324 101.683 126.384 79.6892 154.287 46.0187C166.456 31.2807 177.05 13.9353 193.415 5.43267C211.562 -3.97694 233.696 -0.349137 251.319 10.0808C268.942 20.5107 282.893 36.9492 295.481 53.8411C310.692 74.1341 324.748 95.5608 337.441 117.894C342.791 127.304 347.931 137.054 350.448 147.824C352.861 158.594 352.336 170.611 346.672 179.907C337.231 195.439 317.72 198.613 303.244 208.703Z" fill="#EDF6FF"/>
  <rect x="16.2774" y="283.99" width="346.649" height="1" fill="#00045F"/>
  <path d="M161.971 277.173C161.268 279.633 157.284 282.592 155.38 283.763H125.064C123.014 276.88 119.968 262.234 124.185 258.72C129.458 254.326 139.563 256.523 145.714 260.477C150.635 263.64 156.845 269.704 159.334 272.34C160.037 271.285 162.263 270.729 163.289 270.582C163.142 271.754 162.673 274.712 161.971 277.173Z" fill="#C6E2FA"/>
  <path d="M155.819 279.369C155.527 279.955 154.765 280.951 154.062 280.248C153.359 279.545 153.476 278.784 153.623 278.491C153.33 278.93 152.568 279.721 151.865 279.369C151.162 279.018 151.572 277.758 151.865 277.173" stroke="#0556E2" stroke-width="0.822889"/>
  <path d="M160.213 280.688L155.38 283.763H163.728C163.728 281.654 161.385 280.834 160.213 280.688Z" fill="#0556E2"/>
  <circle r="2.19681" transform="matrix(-1 0 0 1 150.108 274.976)" fill="#F2F2F2"/>
  <circle r="2.19681" transform="matrix(-1 0 0 1 158.016 276.733)" fill="#F2F2F2"/>
  <circle r="1.31808" transform="matrix(-1 0 0 1 158.016 276.734)" fill="#0556E2"/>
  <circle r="1.31808" transform="matrix(-1 0 0 1 150.108 274.976)" fill="#0556E2"/>
  <path d="M137.806 281.127C136.048 280.072 132.094 280.688 130.336 281.127C133.266 277.905 137.893 271.197 132.973 270.143C128.052 269.088 123.893 271.461 122.428 272.779C123.131 268.561 119.352 266.042 116.716 264.431C114.959 263.113 113.641 262.729 111.444 259.159C108.632 254.59 113.055 252.715 115.398 252.568C119.265 253.317 118.767 256.102 118.034 257.401C115.925 258.807 116.277 259.745 116.716 260.038C118.825 261.092 120.231 258.72 120.671 257.401C122.077 252.129 116.863 250.518 114.08 250.372C112.616 250.225 109.423 251.075 108.368 255.644C107.05 261.356 116.716 267.067 118.913 270.143C120.671 272.603 120.817 280.248 120.671 283.763H139.124C139.417 283.324 139.563 282.181 137.806 281.127Z" fill="#0556E2"/>
  <path d="M147.032 270.143H151.426C150.987 268.239 149.932 264.431 149.229 264.431C148.526 264.431 147.472 268.239 147.032 270.143Z" fill="#0556E2"/>
  <path d="M207.034 106.798C206.428 106.798 205.267 105.03 204.761 104.147C205.709 101.621 207.489 96.9112 207.034 98.2749C206.466 99.9796 207.792 106.798 207.034 106.798Z" fill="#0556E2"/>
  <path d="M204.256 105.106L209.924 90.2517V88.1682L206.514 84.0012L202.347 84.5694L203.105 91.3882L200.074 98.9645V104.079L204.256 105.106Z" stroke="#01066E" stroke-width="0.822889"/>
  <path fill-rule="evenodd" clip-rule="evenodd" d="M210.032 94.3137C207.817 92.9508 205.801 93.7312 205.023 94.3539C204.778 94.55 204.738 94.9076 204.934 95.1526C205.13 95.3977 205.488 95.4374 205.733 95.2414C206.217 94.8539 207.712 94.2201 209.437 95.2816C209.704 95.4461 210.054 95.3627 210.218 95.0955C210.383 94.8282 210.299 94.4782 210.032 94.3137Z" fill="#0556E2"/>
  <path d="M195.339 114.496C195.491 121.315 198.812 129.46 200.453 131.354C190.983 138.741 176.588 133.437 170.716 131.354C166.019 129.687 172.737 125.796 173.178 124.849C174.567 123.712 167.967 121.813 170.716 120.594C177.57 117.555 183.785 108.246 184.732 106.731C185.49 105.518 186.437 105.089 186.816 105.026C189.846 104.458 194.392 100.101 195.339 98.9648C196.286 97.8283 195.339 94.7978 197.233 91.9567C199.127 89.1155 200.453 89.8732 201.211 91.9567C201.817 93.6235 200.958 95.4291 200.453 96.1236C198.749 98.586 194.96 104.344 193.445 107.678C191.93 111.011 194.077 113.612 195.339 114.496Z" fill="#E5E5E5" stroke="#01066E" stroke-width="0.5"/>
  <path d="M198.659 92.3555C198.438 92.4107 198.215 92.2766 198.16 92.0562C198.105 91.8357 198.239 91.6123 198.459 91.5572L198.659 92.3555ZM198.749 95.2037C199.027 94.5554 199.314 93.6484 199.327 92.9855C199.333 92.6445 199.265 92.4668 199.195 92.3925C199.155 92.3501 199.038 92.2608 198.659 92.3555L198.459 91.5572C198.989 91.4247 199.469 91.4822 199.795 91.8292C200.091 92.1444 200.157 92.5988 200.15 93.0013C200.134 93.8253 199.796 94.8502 199.505 95.5278L198.749 95.2037Z" fill="#01066E"/>
  <path d="M217.879 78.5086C217.273 83.0544 212.323 88.1053 209.924 90.0625C208.711 85.6682 205.504 85.201 204.052 85.5167C203.597 86.2743 204.241 88.1053 204.62 88.9261C204.62 90.8201 203.484 93.4719 201.211 98.7753C199.393 103.018 202.726 104.584 204.62 104.836C203.408 109.685 204.494 116.706 205.188 119.61C198.938 118.663 197.991 116.959 194.582 113.928C191.172 110.897 193.445 106.92 194.582 104.836C195.718 102.753 197.991 99.7224 199.696 97.0706C201.059 94.9493 201.274 92.7774 201.211 91.9566C200.074 88.7367 197.991 90.6307 197.044 91.9566C196.286 93.0173 195.718 96.9444 195.529 98.7753C193.559 102.867 188.142 105.152 185.679 105.783L184.354 107.488L182.649 105.405L185.301 103.132C188.331 100.101 189.468 91.9566 190.225 88.3578C190.831 85.4788 193.382 84.0014 194.582 83.6226C193.066 80.9709 195.907 75.6675 197.991 72.8263C199.658 70.5534 199.822 67.9648 199.696 66.9547C203.938 66.9547 206.893 71.8793 207.84 74.3416C209.659 72.9779 210.997 68.3437 211.439 66.197C214.091 67.5229 218.636 72.8263 217.879 78.5086Z" fill="#01066E"/>
  <path d="M200.074 107.867L202.158 110.708C201.779 111.087 200.832 111.769 200.074 111.465C199.317 111.162 199.759 108.94 200.074 107.867Z" fill="#E5E5E5"/>
  <circle r="0.757635" transform="matrix(-1 0 0 1 205.378 97.6387)" fill="#01066E"/>
  <path d="M125.375 140.347V75.9214H16.2775V170.128H113.219" stroke="#01066E"/>
  <rect width="92.3836" height="77.1889" transform="matrix(-1 0 0 1 116.866 82.9109)" fill="#B5D7FA"/>
  <path d="M128.036 231.515L116.488 284.088M254.455 284.088L275.12 190.185M334.379 284.088L316.525 205.684M313.411 192.009L316.525 205.684M316.525 205.684H272.385M209.479 135.788C212.417 121.303 218.292 90.6906 218.292 84.1265C218.292 77.5624 224.978 75.9214 228.321 75.9214H336.81C339.951 75.9214 345.927 77.5624 344.712 84.1265L331.948 156.149C331.847 158.074 329.821 162.106 322.527 162.835H230.752" stroke="#01066E"/>
  <path d="M204.921 265.855V274.972L198.539 278.618L195.5 265.855H204.921Z" fill="#EDE9E9"/>
  <path d="M266.611 185.931C269.042 181.372 271.777 181.069 276.032 181.069C279.231 181.069 280.712 183.932 281.13 185.622L266.611 185.931Z" fill="#0556E2"/>
  <path d="M212.214 248.837C214.159 243.975 219.913 237.694 222.547 235.162H198.843C191.306 240.024 192.664 258.663 194.284 267.375H207.048C207.96 263.221 210.269 253.699 212.214 248.837Z" fill="#0556E2"/>
  <path d="M202.565 274.848L204.969 271.585C205.462 270.916 206.377 270.719 207.101 271.127L217.483 276.967C219.297 277.987 220.419 279.906 220.419 281.987V283.784H197.627V277.833C197.627 276.924 198.364 276.187 199.273 276.187H199.915C200.961 276.187 201.944 275.69 202.565 274.848Z" fill="#F22126"/>
  <path d="M281.502 263.727L286.364 271.021V272.844L283.933 278.01L280.59 276.795L274.208 267.374L281.502 263.727Z" fill="#EDE9E9"/>
  <rect width="22.4881" height="2.43115" transform="matrix(-1 0 0 1 220.115 281.657)" fill="#01066E"/>
  <rect width="51.6619" height="4.86229" transform="matrix(-1 0 0 1 333.772 185.627)" fill="#0556E2"/>
  <rect width="79.6201" height="4.86229" transform="matrix(-1 0 0 1 282.11 185.627)" fill="#01066E"/>
  <path d="M218.596 148.552C220.055 151.713 228.928 159.999 233.183 163.747V176.206C233.183 179.853 228.624 185.019 224.674 185.627C221.513 186.113 212.214 182.386 207.96 180.461C207.656 188.362 200.97 203.253 195.196 207.507C190.577 210.911 178.685 211.762 173.316 211.762L157.513 165.57C160.248 162.227 166.934 127.584 166.934 124.241C166.934 120.898 170.277 119.378 175.747 120.29C181.217 121.202 193.981 126.064 204.009 132.142C214.038 138.22 216.773 144.602 218.596 148.552Z" fill="#FCD20A"/>
  <path d="M278.058 181.373H271.777C269.832 181.373 267.523 184.412 266.611 185.931H225.282L231.359 173.775L233.183 163.747L260.229 179.853C264.788 179.853 265.699 174.079 271.777 173.775C275.555 173.586 278.109 176.686 279.441 179.314C279.942 180.302 279.165 181.373 278.058 181.373Z" fill="#EDE9E9" stroke="#01066E" stroke-width="0.5"/>
  <path d="M190.638 149.464L198.041 162.227M208.264 179.853L198.041 162.227M198.041 162.227H190.638" stroke="#01066E" stroke-width="0.5"/>
  <path d="M97.6464 151.895H141.407C145.56 152.503 154.596 156.089 157.513 165.57L175.443 217.84C176.557 221.892 182.19 229.995 195.804 229.995C209.418 229.995 222.749 229.995 227.713 229.995M229.536 234.858H138.064C134.823 235.263 127.124 233.46 122.262 223.006L105.852 177.422M120.135 160.708H138.064C140.597 160.606 147.606 162.349 149.308 170.128L159.033 196.871" stroke="#01066E" stroke-linecap="round"/>
  <path d="M300.647 185.323L293.354 162.835H256.887L260.837 178.637" stroke="black" stroke-width="0.5"/>
  <path d="M181.825 234.857L170.416 277.38C169.259 281.696 165.347 284.696 160.879 284.696H140.547C133.799 284.696 129.039 278.079 131.185 271.681L143.534 234.857" stroke="#01066E"/>
  <path d="M168.454 234.857L181.942 277.782C183.235 281.896 187.049 284.696 191.363 284.696H216.608C223.388 284.696 228.151 278.02 225.946 271.609L213.302 234.857" stroke="#01066E"/>
  <path d="M325.566 151.591L335.633 92.7822C336.407 88.2584 332.923 84.1267 328.333 84.1267H262.357" stroke="#01066E" stroke-width="0.822889"/>
  <path d="M183.648 235.465L194.588 285" stroke="#01066E"/>
  <path d="M302.167 280.977V284.392H279.679V277.314C279.679 276.859 280.047 276.491 280.501 276.491H281.654C282.663 276.491 283.571 275.876 283.946 274.939L285.149 271.933L285.928 271.499C287.148 270.822 288.627 270.809 289.859 271.464L299.548 276.617C301.159 277.475 302.167 279.151 302.167 280.977Z" fill="#F22126"/>
  <rect width="22.4881" height="3.03893" transform="matrix(-1 0 0 1 302.167 281.353)" fill="#01066E"/>
  <path d="M259.091 214.189L202.49 197.783C201.071 200.113 197.445 205.38 194.284 207.811C191.124 210.243 179.191 211.661 173.62 212.066C175.808 225.68 186.282 229.489 191.246 229.692C199.957 229.793 219.082 229.935 225.889 229.692C232.697 229.449 240.274 235.061 243.211 237.897L272.081 268.894L283.325 263.12L267.731 222.151C266.26 218.288 263.061 215.34 259.091 214.189Z" fill="#0556E2"/>
  <path d="M279.982 264.943L256.279 222.094L206.923 209.026M209.783 205.988L200.058 216.32" stroke="white" stroke-width="0.822889"/>
  <path d="M62.8909 27.9495H108.263" stroke="#BFD7F0" stroke-miterlimit="10"/>
  <path d="M72.7322 18V27.9492" stroke="#BFD7F0" stroke-miterlimit="10"/>
  <path d="M88.0984 39.8438V27.9495" stroke="#BFD7F0" stroke-miterlimit="10"/>
  <path d="M100.102 39.8438H36" stroke="#BFD7F0" stroke-miterlimit="10"/>
  <path d="M76.3329 39.8438V51.251" stroke="#BFD7F0" stroke-miterlimit="10"/>
  <path d="M62.8909 51.2507H108.263" stroke="#BFD7F0" stroke-miterlimit="10"/>
  <path d="M97.4818 107.633C97.4818 107.633 73.9845 116.982 69.1334 129.21C64.2823 141.439 72.6706 152.304 72.6706 152.304C72.6706 152.304 73.9845 142.248 83.2318 138.559C92.5297 134.87 99.301 117.79 97.4818 107.633Z" fill="#C5E1F9"/>
  <path d="M84.5961 165.391C84.5961 165.391 73.5801 172.213 71.003 187.019C68.4764 201.825 69.386 206.726 69.386 206.726C69.386 206.726 90.9126 192.779 84.5961 165.391Z" fill="#0561FC"/>
  <path d="M46.5962 157.609C46.5962 157.609 44.7265 169.131 53.0643 178.479C61.402 187.827 65.1919 189.546 65.1919 189.546C65.1919 189.546 68.426 166.705 46.5962 157.609Z" fill="#C5E1F9"/>
  <path d="M43.817 91.9683C43.817 91.9683 42.8064 101.013 49.7798 111.423C56.1468 120.923 62.3622 123.904 62.3622 123.904C62.3622 123.904 69.0324 100.255 43.817 91.9683Z" fill="#0561FC"/>
  <path d="M36.3888 118.144C36.3888 118.144 52.6601 121.277 57.9154 134.213C63.1707 147.149 57.5112 158.822 57.5112 158.822C52.7612 147.503 30.7798 145.178 36.3888 118.144Z" fill="#0561FC"/>
  <path d="M55.8435 172.062C55.8435 172.062 67.2132 185.857 66.6574 205.312C66.1015 224.766 66.6574 239.875 66.6574 239.875" stroke="#00056D" stroke-width="0.5" stroke-miterlimit="10"/>
  <path d="M48.6176 134.668C48.6176 134.668 58.4713 158.266 60.2904 166.25C62.1601 174.184 61.6548 239.875 61.6548 239.875" stroke="#00056D" stroke-width="0.5" stroke-miterlimit="10"/>
  <path d="M53.0643 104.399C53.0643 104.399 65.0908 121.075 65.4951 140.883V165.391" stroke="#00056D" stroke-width="0.5" stroke-miterlimit="10"/>
  <path d="M81.2106 283.939H47.051L43.7664 239.875H85.0005L81.2106 283.939Z" fill="#C5E1F9"/>
  <path d="M85.0004 122.338C85.0004 122.338 73.1254 140.277 72.62 154.072C72.0137 172.617 72.62 239.622 72.62 239.622" stroke="#00056D" stroke-width="0.5" stroke-miterlimit="10"/>
  <path d="M311.118 156.04L229.768 157.867C228.318 157.917 227.328 156.799 227.634 155.493L237.85 104.388C238.104 103.036 239.519 101.932 240.969 101.882L322.319 100.056C323.769 100.006 324.759 101.123 324.453 102.429L314.237 153.535C313.933 154.888 312.569 155.991 311.118 156.04Z" fill="white"/>
  <path d="M303.306 113.612L223.707 115.379C221.454 115.408 219.947 113.78 220.376 111.703L228.796 69.5336C229.225 67.4561 231.418 65.7019 233.62 65.6745L313.22 63.9076C315.472 63.8785 316.98 65.5059 316.55 67.5835L308.133 109.8C307.701 111.83 305.557 113.535 303.306 113.612Z" fill="#B9DAFF"/>
  <path d="M238.178 84.7075L314.425 83.0075L313.738 86.3412L237.491 88.0411L238.178 84.7075Z" fill="white"/>
  <path d="M239.501 78.0419L315.749 76.342L315.062 79.6756L238.815 81.3756L239.501 78.0419Z" fill="white"/>
  <path d="M240.867 71.135L317.114 69.435L316.427 72.7687L240.23 74.4669L240.867 71.135Z" fill="white"/>
  <path d="M234.579 89.2923C234.579 89.2923 239.383 78.9574 244.537 78.8768C249.69 78.7483 249.068 91.2907 253.02 91.2033C256.973 91.1159 257.132 86.9847 261.034 86.899C264.937 86.8133 262.864 93.5526 268.219 93.4652C273.573 93.3777 284.865 66.3658 293.27 66.1739C301.675 65.9819 296.177 82.3373 302.931 82.2019C309.686 82.0665 320.397 68.7948 320.397 68.7948" stroke="#0561FC" stroke-width="0.822889" stroke-miterlimit="10"/>
  <path opacity="0.2" d="M324.444 125.552L291.024 126.313C289.973 126.349 289.295 125.557 289.463 124.592L295.706 93.4351C295.923 92.4682 296.897 91.6673 297.947 91.6313L331.367 90.8705C332.418 90.8345 333.096 91.6268 332.928 92.592L326.685 123.749C326.468 124.716 325.444 125.518 324.444 125.552Z" fill="#0561FC"/>
  <path d="M319.293 119.876L285.872 120.637C284.822 120.673 284.144 119.881 284.311 118.915L290.554 87.7589C290.772 86.792 291.746 85.991 292.796 85.9551L326.216 85.1942C327.266 85.1582 327.944 85.9505 327.777 86.9157L321.534 118.072C321.367 119.038 320.343 119.84 319.293 119.876Z" fill="#FC2731"/>
  <path d="M299.277 107.081C304.13 106.963 308.858 103.203 309.756 98.7107C310.653 94.2185 307.426 90.635 302.573 90.7533C297.721 90.8715 292.993 94.6314 292.095 99.1237C291.148 103.618 294.375 107.201 299.277 107.081Z" fill="#00056D"/>
  <path d="M308.809 91.5475L300.849 98.8722L310.956 98.6699C311.608 95.7692 310.72 93.257 308.809 91.5475Z" fill="white"/>
  <path d="M320.54 94.8873L316.837 94.9661C315.487 95.0124 314.551 93.989 314.808 92.7329C315.065 91.4768 316.38 90.3764 317.782 90.3763L321.484 90.2975C322.834 90.2512 323.771 91.2746 323.513 92.5307C323.156 93.7902 321.89 94.841 320.54 94.8873Z" fill="white"/>
  <path d="M312.262 103.182L322.067 102.942" stroke="#00056D" stroke-width="0.822889" stroke-miterlimit="10"/>
  <path d="M289.429 111.928L309.692 111.474" stroke="#00056D" stroke-width="0.822889" stroke-miterlimit="10"/>
  <path d="M288.833 114.971L301.84 114.669" stroke="#00056D" stroke-width="0.822889" stroke-miterlimit="10"/>
  <path d="M274.609 147.024L243.39 147.71C242.389 147.744 241.763 146.998 241.932 146.081L244.967 130.913C245.136 129.996 246.112 129.243 247.112 129.208L278.332 128.523C279.332 128.489 279.958 129.235 279.789 130.152L276.754 145.32C276.584 146.189 275.61 146.99 274.609 147.024Z" fill="#C5E1F9"/>
  <path d="M277.552 143.757L246.332 144.443C245.332 144.477 244.705 143.731 244.874 142.814L247.91 127.646C248.079 126.729 249.054 125.976 250.054 125.942L281.274 125.256C282.274 125.222 282.901 125.968 282.732 126.885L279.696 142.053C279.479 143.02 278.554 143.771 277.552 143.757Z" fill="#0561FC"/>
  <path d="M258.048 134.207L250.893 134.356C250.493 134.37 250.232 134.043 250.269 133.658L250.951 130.18C251.037 129.794 251.428 129.492 251.828 129.479L258.983 129.33C259.383 129.316 259.644 129.643 259.607 130.028L258.925 133.505C258.887 133.842 258.498 134.191 258.048 134.207Z" stroke="white" stroke-width="0.822889" stroke-miterlimit="10"/>
  <path d="M251.286 129.737L254.322 132.128C254.58 132.359 255.03 132.344 255.372 132.092L259.391 129.556" stroke="white" stroke-width="0.822889" stroke-miterlimit="10"/>
  <path d="M253.598 131.481L251.644 132.891" stroke="white" stroke-width="0.822889" stroke-miterlimit="10"/>
  <path d="M256.451 131.431L257.849 132.774" stroke="white" stroke-width="0.822889" stroke-miterlimit="10"/>
  <path d="M272.73 130.154L263.675 130.368C263.375 130.379 263.166 130.146 263.207 129.857C263.247 129.567 263.54 129.365 263.84 129.355L272.895 129.141C273.196 129.131 273.404 129.363 273.364 129.653C273.322 129.894 273.03 130.144 272.73 130.154Z" fill="white"/>
  <path d="M269.898 132.266L263.293 132.397C262.993 132.407 262.785 132.174 262.825 131.885C262.866 131.596 263.159 131.394 263.459 131.383L270.064 131.253C270.364 131.243 270.572 131.476 270.532 131.765C270.492 132.054 270.148 132.258 269.898 132.266Z" fill="white"/>
  <path d="M268.393 140.953L257.086 141.196C256.536 141.215 256.121 140.797 256.253 140.265L256.636 138.285C256.718 137.755 257.303 137.303 257.853 137.284L269.16 137.041C269.71 137.022 270.125 137.439 269.993 137.972L269.61 139.952C269.529 140.482 268.943 140.934 268.393 140.953Z" fill="#FF2227"/>
  <path d="M285.253 140.567L273.946 140.811C273.396 140.829 272.981 140.412 273.113 139.88L273.496 137.9C273.578 137.369 274.163 136.917 274.713 136.898L286.021 136.655C286.571 136.636 286.986 137.054 286.854 137.586L286.471 139.566C286.339 140.098 285.803 140.548 285.253 140.567Z" fill="#00056D"/>
  <path d="M279.333 138.755L279.853 139.313L281.315 138.159" stroke="white" stroke-width="0.822889" stroke-miterlimit="10" stroke-linecap="round" stroke-linejoin="round"/>
  <path d="M262.241 139.676L263.653 138.524" stroke="white" stroke-width="0.822889" stroke-miterlimit="10" stroke-linecap="round" stroke-linejoin="round"/>
  <path d="M262.453 138.566L263.441 139.635" stroke="white" stroke-width="0.822889" stroke-miterlimit="10" stroke-linecap="round" stroke-linejoin="round"/>
  <path opacity="0.2" d="M329.948 56.1333H276.884C275.512 56.1333 274.638 55.0104 274.93 53.6381L279.13 33.9261C279.421 32.5537 280.793 31.4309 282.166 31.4309H335.23C336.602 31.4309 337.476 32.5537 337.184 33.9261L332.984 53.6381C332.652 55.0104 331.321 56.1333 329.948 56.1333Z" fill="#0561FC"/>
  <path d="M326.538 51.1845H273.474C272.102 51.1845 271.228 50.0616 271.519 48.6893L275.72 29.0189C276.011 27.6465 277.383 26.5237 278.756 26.5237H331.82C333.192 26.5237 334.066 27.6465 333.774 29.0189L329.574 48.7309C329.283 50.1032 327.911 51.1845 326.538 51.1845Z" fill="#EAF4FF"/>
  <path d="M273.516 33.5517H280.752C281.75 33.5517 282.706 32.7616 282.956 31.7635L284.494 24.5275C284.702 23.5294 284.079 22.7393 283.08 22.7393H275.844C274.846 22.7393 273.89 23.5294 273.64 24.5275L272.102 31.7635C271.894 32.72 272.518 33.5517 273.516 33.5517Z" fill="#0561FC"/>
  <path d="M314.27 39.3738H322.837" stroke="#0561FC" stroke-width="0.822889" stroke-miterlimit="10" stroke-linecap="round"/>
  <path d="M302.959 41.2449H308.864" stroke="#0561FC" stroke-width="0.822889" stroke-miterlimit="10" stroke-linecap="round"/>
  <path d="M290.584 35.6849C291.881 34.5177 292.162 32.7132 291.209 31.6544C290.257 30.5957 288.433 30.6836 287.135 31.8509C285.838 33.0181 285.557 34.8226 286.51 35.8814C287.462 36.9401 289.286 36.8521 290.584 35.6849Z" fill="#0561FC"/>
  <path d="M304.913 33.6765H301.753C301.42 33.6765 301.212 33.3854 301.295 33.0527C301.379 32.72 301.711 32.4705 302.044 32.4705H305.205C305.537 32.4705 305.745 32.72 305.662 33.0527C305.579 33.3854 305.246 33.6765 304.913 33.6765Z" fill="#0561FC"/>
  <path d="M299.549 33.6765H294.018C293.685 33.6765 293.477 33.3854 293.56 33.0527C293.644 32.72 293.976 32.4705 294.309 32.4705H299.798C300.131 32.4705 300.339 32.72 300.256 33.0527C300.173 33.3854 299.881 33.6765 299.549 33.6765Z" fill="#0561FC"/>
  <path d="M293.56 34.6331H295.515C295.723 34.6331 295.848 34.7994 295.806 35.0073C295.764 35.2153 295.556 35.3816 295.349 35.3816H293.394C293.186 35.3816 293.061 35.2153 293.103 35.0073C293.186 34.7994 293.352 34.6331 293.56 34.6331Z" fill="#C5E1F9"/>
  <path d="M296.887 34.6331H300.297C300.505 34.6331 300.63 34.7994 300.588 35.0073C300.547 35.2153 300.339 35.3816 300.131 35.3816H296.721C296.513 35.3816 296.388 35.2153 296.43 35.0073C296.471 34.7994 296.679 34.6331 296.887 34.6331Z" fill="#C5E1F9"/>
  <path d="M297.511 39.3738H311.609" stroke="#0561FC" stroke-width="0.822889" stroke-miterlimit="10" stroke-linecap="round"/>
  <path d="M284.827 39.3738H293.81" stroke="#0561FC" stroke-width="0.822889" stroke-miterlimit="10" stroke-linecap="round"/>
  <path d="M284.453 41.2449H300.838" stroke="#0561FC" stroke-width="0.822889" stroke-miterlimit="10" stroke-linecap="round"/>
  <path d="M284.079 42.9922H304.373" stroke="#0561FC" stroke-width="0.822889" stroke-miterlimit="10" stroke-linecap="round"/>
</svg>
